<svg width="2684" height="2684" viewBox="0 0 2684 2684" fill="none" xmlns="http://www.w3.org/2000/svg">
<circle cx="1342" cy="1342" r="1342" fill="#E57373"/>
<circle cx="1342" cy="1342" r="1048" fill="#FFECEC"/>
<path fill-rule="evenodd" clip-rule="evenodd" d="M1152.79 1797.22L1152.79 1797.22C1152.56 1780.94 1151.22 1685.25 1152.82 1683.64C1153.08 1683.38 1154.47 1681.88 1156.66 1679.52L1156.66 1679.52C1169.04 1666.16 1206.94 1625.29 1210.4 1625.29C1210.4 1625.29 1470.33 1626.06 1472.08 1626.06C1473.83 1626.06 1529.66 1681.89 1529.66 1682.86C1529.66 1683.34 1529.66 1711.37 1529.66 1739.83C1529.66 1769.12 1529.66 1798.87 1529.66 1799.56C1529.66 1800.92 1429.83 1900.55 1428.67 1900.55H1350.61H1253.81C1252.45 1900.55 1152.82 1800.52 1152.82 1799.56C1152.82 1799.48 1152.81 1798.66 1152.79 1797.22ZM1287.08 1718.05C1301.52 1739.31 1300.3 1765.31 1284.35 1776.14C1268.41 1786.97 1243.79 1778.51 1229.35 1757.25C1214.92 1736 1216.14 1709.99 1232.08 1699.16C1248.03 1688.34 1272.65 1696.79 1287.08 1718.05ZM1399.57 1776.14C1383.62 1765.31 1382.4 1739.31 1396.84 1718.05C1411.27 1696.79 1435.89 1688.34 1451.84 1699.16C1467.78 1709.99 1469 1736 1454.57 1757.25C1440.13 1778.51 1415.51 1786.97 1399.57 1776.14Z" fill="#C62828"/>
<path fill-rule="evenodd" clip-rule="evenodd" d="M1091.56 1733.06V1660.95C1112.15 1607.05 1133.68 1586.82 1186.94 1565.58H1312.55V886.35H1114.83C1049.69 886.35 982.235 953.808 982.235 1056.16H779.862C733.339 1038.32 660.299 978.93 740.318 884.024C772.884 852.233 844.064 787.722 868.255 784C807.776 784 672.86 808.192 617.033 904.959C561.206 1001.73 604.627 1100.35 633.316 1137.57C695.059 1197.54 781.222 1197.02 948.026 1196.01C971.028 1195.87 995.564 1195.73 1021.78 1195.73V1363.21L970.606 1414.38V1593.49C976.033 1611.33 1007.82 1664.21 1091.56 1733.06ZM1091.56 1339.95V1288.77C1121.8 1284.12 1180.89 1296.22 1175.31 1381.82L1147.04 1381.82L1124.13 1381.82C1121.8 1381.82 1091.56 1342.28 1091.56 1339.95Z" fill="#C62828"/>
<path fill-rule="evenodd" clip-rule="evenodd" d="M1591.68 1733.07V1660.96C1571.1 1607.05 1549.57 1586.82 1496.31 1565.58H1370.7V886.353H1568.42C1633.55 886.353 1701.01 953.811 1701.01 1056.16H1903.39C1949.91 1038.33 2022.95 978.933 1942.93 884.026C1910.36 852.236 1839.18 787.725 1814.99 784.003C1875.47 784.003 2010.39 808.195 2066.21 904.962C2122.04 1001.73 2078.62 1100.36 2049.93 1137.58C1988.19 1197.54 1902.03 1197.02 1735.22 1196.02C1712.22 1195.88 1687.68 1195.73 1661.47 1195.73V1363.21L1712.64 1414.39V1593.5C1707.21 1611.33 1675.43 1664.21 1591.68 1733.07ZM1594.38 1339.95V1288.78C1564.14 1284.12 1505.06 1296.22 1510.64 1381.82C1510.64 1381.82 1559.49 1381.82 1561.81 1381.82C1564.14 1381.82 1594.38 1342.28 1594.38 1339.95Z" fill="#C62828"/>
<path d="M958.975 1253.88H817.081C773.511 1288.03 754.341 1309.76 726.361 1351.58C831.896 1433.84 882.64 1426.03 958.975 1321.34V1253.88Z" fill="#C62828"/>
<path d="M1724.27 1253.88H1866.17C1909.73 1288.03 1928.9 1309.76 1956.88 1351.58C1851.35 1433.84 1800.61 1426.03 1724.27 1321.34V1253.88Z" fill="#C62828"/>
<path d="M638.097 2289.25C642.692 2292.67 646.054 2296.91 648.184 2301.98C650.284 2307.09 651.06 2312.39 650.511 2317.88C649.924 2323.35 647.919 2328.38 644.497 2332.97C641.047 2337.61 636.802 2340.97 631.762 2343.06C626.655 2345.16 621.369 2345.92 615.903 2345.33C610.409 2344.78 605.364 2342.8 600.769 2339.37C596.136 2335.92 592.788 2331.66 590.725 2326.58C588.596 2321.51 587.825 2316.25 588.412 2310.78C588.933 2305.32 590.919 2300.28 594.369 2295.65C597.791 2291.05 602.055 2287.7 607.161 2285.6C612.23 2283.47 617.511 2282.68 623.006 2283.23C628.434 2283.79 633.464 2285.8 638.097 2289.25ZM397.32 2157.16C392.575 2162.64 390.774 2168.95 391.916 2176.11C393.059 2183.27 396.596 2190.11 402.529 2196.61C406.866 2201.37 411.431 2204.84 416.224 2207C420.985 2209.13 425.622 2209.97 430.135 2209.51C434.615 2209.01 438.57 2207.2 442 2204.08C444.87 2201.46 446.715 2198.53 447.536 2195.28C448.29 2192.03 448.361 2188.7 447.748 2185.29C447.101 2181.91 446.13 2178.63 444.836 2175.45C443.507 2172.31 442.196 2169.5 440.903 2167.02L433.892 2153.43C432.076 2149.96 430.252 2145.92 428.421 2141.31C426.559 2136.66 425.312 2131.74 424.681 2126.55C423.984 2121.36 424.426 2116.15 426.009 2110.93C427.592 2105.71 430.903 2100.8 435.943 2096.21C441.752 2090.91 448.389 2087.65 455.853 2086.42C463.285 2085.16 471.031 2086.17 479.09 2089.46C487.117 2092.72 494.894 2098.47 502.42 2106.73C509.437 2114.43 514.27 2122.23 516.92 2130.13C519.539 2137.99 520.093 2145.56 518.582 2152.83C517.04 2160.06 513.521 2166.57 508.024 2172.35L495.777 2158.91C499.518 2154.86 501.634 2150.43 502.124 2145.63C502.548 2140.82 501.734 2135.99 499.68 2131.14C497.559 2126.28 494.553 2121.72 490.662 2117.45C486.133 2112.48 481.262 2108.75 476.048 2106.26C470.799 2103.81 465.67 2102.75 460.66 2103.09C455.616 2103.45 451.134 2105.43 447.214 2109C443.645 2112.25 441.649 2115.9 441.227 2119.93C440.805 2123.97 441.378 2128.25 442.944 2132.78C444.51 2137.31 446.491 2141.94 448.885 2146.68L457.161 2163.35C462.401 2173.95 465.014 2183.74 464.999 2192.73C464.985 2201.71 461.356 2209.5 454.112 2216.1C448.092 2221.59 441.36 2224.74 433.914 2225.57C426.402 2226.4 418.884 2225.18 411.36 2221.91C403.769 2218.64 396.848 2213.58 390.597 2206.72C384.282 2199.79 379.912 2192.5 377.485 2184.85C375.023 2177.22 374.491 2169.89 375.89 2162.85C377.258 2155.78 380.574 2149.68 385.839 2144.56L397.32 2157.16ZM447.139 2047.05L329.702 2132.87L277.906 2062L290.522 2052.78L331.924 2109.43L371.605 2080.43L332.885 2027.45L345.5 2018.23L384.221 2071.22L424.131 2042.05L382.058 1984.48L394.673 1975.26L447.139 2047.05ZM378.101 1949.63L252.759 2023.43L243.822 2008.25L355.699 1942.38L321.394 1884.12L334.858 1876.19L378.101 1949.63ZM209.437 1774.02C223.459 1767.79 236.7 1764.95 249.161 1765.48C261.622 1766.01 272.581 1769.46 282.04 1775.82C291.498 1782.19 298.744 1791.05 303.777 1802.39C308.811 1813.72 310.517 1825.04 308.897 1836.32C307.277 1847.61 302.484 1858.05 294.518 1867.65C286.553 1877.25 275.559 1885.16 261.538 1891.38C247.517 1897.61 234.275 1900.46 221.815 1899.93C209.354 1899.4 198.394 1895.95 188.936 1889.58C179.477 1883.21 172.232 1874.35 167.198 1863.02C162.165 1851.68 160.458 1840.36 162.079 1829.08C163.699 1817.79 168.492 1807.35 176.457 1797.75C184.423 1788.15 195.416 1780.24 209.437 1774.02ZM216.353 1789.6C204.842 1794.71 195.981 1800.95 189.772 1808.31C183.543 1815.64 179.845 1823.47 178.678 1831.81C177.491 1840.11 178.685 1848.28 182.258 1856.33C185.832 1864.38 191.103 1870.77 198.071 1875.5C205.021 1880.18 213.31 1882.69 222.94 1883.03C232.55 1883.32 243.111 1880.91 254.622 1875.8C266.133 1870.69 275.004 1864.48 281.233 1857.15C287.442 1849.79 291.14 1841.95 292.327 1833.66C293.494 1825.32 292.29 1817.12 288.717 1809.07C285.144 1801.02 279.882 1794.65 272.933 1789.97C265.964 1785.24 257.675 1782.73 248.065 1782.44C238.435 1782.1 227.865 1784.49 216.353 1789.6ZM237.322 1621L94.9072 1650.58L84.5649 1600.79C82.5042 1590.87 82.5198 1582.33 84.6119 1575.17C86.6575 1568.03 90.2272 1562.28 95.3209 1557.93C100.368 1553.6 106.369 1550.7 113.323 1549.26C119.442 1547.99 124.721 1548.03 129.161 1549.38C133.591 1550.68 137.331 1552.86 140.38 1555.9C143.421 1558.89 145.921 1562.32 147.881 1566.16L149.271 1565.88C148.644 1561.46 149.264 1556.76 151.131 1551.78C152.998 1546.8 156.219 1542.28 160.795 1538.24C165.371 1534.19 171.414 1531.39 178.924 1529.83C186.063 1528.35 192.821 1528.64 199.197 1530.7C205.573 1532.76 211.157 1536.94 215.949 1543.25C220.741 1549.56 224.302 1558.32 226.633 1569.54L237.322 1621ZM218.441 1606.93L211.334 1572.71C208.994 1561.45 205.154 1553.91 199.814 1550.08C194.418 1546.22 188.591 1544.94 182.333 1546.24C177.512 1547.24 173.316 1549.4 169.747 1552.7C166.131 1556.01 163.567 1560.2 162.054 1565.25C160.494 1570.31 160.359 1575.95 161.65 1582.16L168.93 1617.21L218.441 1606.93ZM153.909 1620.33L147.265 1588.34C146.186 1583.15 144.194 1578.68 141.288 1574.93C138.371 1571.14 134.804 1568.4 130.585 1566.71C126.356 1564.98 121.738 1564.63 116.732 1565.67C110.473 1566.97 105.618 1570.25 102.165 1575.52C98.6661 1580.79 97.8989 1588.15 99.8634 1597.61L106.623 1630.15L153.909 1620.33ZM60.1579 1410.3L58.7015 1392.75L154.679 1384.78C164.588 1383.96 173.629 1385.56 181.802 1389.59C189.924 1393.57 196.577 1399.6 201.761 1407.67C206.897 1415.75 209.937 1425.48 210.881 1436.85C211.824 1448.22 210.429 1458.31 206.694 1467.13C202.912 1475.95 197.346 1483.01 189.995 1488.32C182.593 1493.6 173.937 1496.64 164.028 1497.46L68.0509 1505.43L66.5945 1487.87L161.156 1480.03C168.234 1479.44 174.404 1477.36 179.666 1473.79C184.882 1470.22 188.831 1465.43 191.515 1459.41C194.148 1453.34 195.129 1446.28 194.46 1438.21C193.79 1430.14 191.658 1423.33 188.062 1417.79C184.419 1412.25 179.733 1408.17 174.005 1405.56C168.226 1402.9 161.797 1401.87 154.719 1402.45L60.1579 1410.3ZM202.783 1345.72L57.4045 1341.02L60.2207 1253.85L75.8376 1254.36L73.5901 1323.92L122.712 1325.51L124.749 1262.47L140.366 1262.98L138.329 1326.01L203.352 1328.11L202.783 1345.72ZM208.365 1228.6L64.2234 1209.1L75.917 1122.67L91.4009 1124.76L82.0689 1193.74L130.773 1200.33L139.229 1137.83L154.713 1139.92L146.257 1202.42L210.726 1211.14L208.365 1228.6ZM139.151 1009.28C131.959 1008.38 125.706 1010.39 120.39 1015.32C115.075 1020.25 111.36 1026.99 109.247 1035.54C107.701 1041.79 107.36 1047.51 108.223 1052.7C109.098 1057.84 110.981 1062.16 113.873 1065.66C116.776 1069.11 120.479 1071.39 124.984 1072.5C128.753 1073.43 132.215 1073.34 135.37 1072.21C138.491 1071.04 141.299 1069.24 143.797 1066.84C146.248 1064.42 148.434 1061.79 150.356 1058.95C152.232 1056.09 153.839 1053.44 155.176 1050.99L162.582 1037.61C164.457 1034.17 166.801 1030.41 169.615 1026.32C172.441 1022.19 175.836 1018.42 179.801 1015.01C183.731 1011.55 188.306 1009.02 193.527 1007.43C198.748 1005.85 204.668 1005.87 211.287 1007.51C218.917 1009.39 225.317 1013.1 230.488 1018.62C235.67 1024.09 239.133 1031.1 240.878 1039.62C242.634 1048.11 242.171 1057.77 239.489 1068.62C236.989 1078.73 233.193 1087.08 228.1 1093.68C223.018 1100.22 217.036 1104.89 210.153 1107.68C203.281 1110.42 195.916 1111.11 188.058 1109.75L192.421 1092.1C197.867 1092.96 202.723 1092.26 206.989 1089.99C211.22 1087.68 214.783 1084.31 217.677 1079.91C220.536 1075.44 222.659 1070.41 224.045 1064.8C225.659 1058.27 226.051 1052.15 225.22 1046.43C224.344 1040.71 222.374 1035.85 219.309 1031.88C216.198 1027.89 212.068 1025.26 206.92 1023.99C202.232 1022.83 198.093 1023.19 194.503 1025.09C190.914 1026.98 187.671 1029.84 184.776 1033.66C181.88 1037.48 179.13 1041.7 176.523 1046.32L167.264 1062.47C161.365 1072.72 154.678 1080.33 147.204 1085.31C139.729 1090.29 131.235 1091.6 121.72 1089.25C113.814 1087.3 107.448 1083.46 102.621 1077.73C97.7601 1071.94 94.5955 1065.01 93.1275 1056.94C91.6249 1048.82 91.9873 1040.25 94.2146 1031.24C96.4647 1022.14 100.096 1014.45 105.11 1008.18C110.078 1001.9 115.877 997.38 122.507 994.63C129.149 991.833 136.06 991.201 143.242 992.733L139.151 1009.28ZM272.186 843.278C269.762 848.469 266.283 852.619 261.749 855.727C257.171 858.815 252.137 860.645 246.644 861.216C241.172 861.744 235.841 860.796 230.649 858.372C225.415 855.928 221.266 852.449 218.2 847.935C215.112 843.357 213.304 838.333 212.776 832.861C212.205 827.368 213.131 822.027 215.555 816.836C217.999 811.602 221.499 807.462 226.057 804.416C230.591 801.308 235.594 799.49 241.066 798.962C246.516 798.371 251.857 799.297 257.091 801.741C262.283 804.165 266.422 807.666 269.511 812.243C272.619 816.777 274.459 821.791 275.03 827.283C275.578 832.712 274.63 838.043 272.186 843.278ZM384.01 555.856L373.523 570.007C368.832 567.827 364.171 566.642 359.539 566.45C354.935 566.221 350.488 566.815 346.197 568.231C341.896 569.581 337.887 571.65 334.172 574.436C330.457 577.223 327.162 580.556 324.286 584.436C319.042 591.512 316.08 599.247 315.399 607.641C314.746 615.997 316.646 624.447 321.098 632.992C325.579 641.499 332.878 649.502 342.997 657.001C353.116 664.5 362.896 669.155 372.339 670.967C381.809 672.74 390.447 672.099 398.251 669.043C406.084 665.949 412.623 660.864 417.866 653.788C420.742 649.908 422.972 645.786 424.557 641.42C426.142 637.055 426.974 632.633 427.052 628.153C427.121 623.607 426.376 619.165 424.817 614.828C423.248 610.424 420.758 606.309 417.345 602.484L427.833 588.333C433.016 593.824 436.923 599.725 439.554 606.036C442.185 612.347 443.604 618.821 443.813 625.458C443.983 632.067 442.993 638.611 440.842 645.092C438.72 651.534 435.474 657.703 431.104 663.599C423.718 673.566 414.715 680.625 404.094 684.777C393.474 688.929 382.026 689.903 369.75 687.701C357.474 685.498 345.173 679.83 332.848 670.696C320.523 661.561 311.521 651.442 305.841 640.338C300.162 629.234 297.764 617.998 298.646 606.629C299.528 595.26 303.662 584.592 311.048 574.625C315.418 568.729 320.376 563.829 325.922 559.924C331.496 555.981 337.488 553.143 343.899 551.412C350.271 549.652 356.859 549.112 363.663 549.793C370.428 550.445 377.21 552.466 384.01 555.856ZM482.817 593.927L376.842 494.296L388.907 481.464L483.498 570.392L529.811 521.13L541.195 531.833L482.817 593.927ZM572.029 502.882L557.956 514.838L504.48 369.408L518.336 357.636L653.217 433.903L639.144 445.859L526.74 380.691L525.874 381.427L572.029 502.882ZM540.436 455.167L597.159 406.974L607.276 418.881L550.553 467.074L540.436 455.167ZM677.091 285.993C672.381 280.485 666.401 277.763 659.153 277.827C651.904 277.892 644.619 280.373 637.3 285.27C631.948 288.85 627.844 292.849 624.988 297.266C622.172 301.657 620.656 306.118 620.44 310.649C620.264 315.154 621.466 319.334 624.046 323.191C626.205 326.418 628.828 328.679 631.916 329.974C635.018 331.203 638.302 331.769 641.768 331.671C645.209 331.534 648.596 331.063 651.93 330.256C655.238 329.41 658.211 328.532 660.849 327.622L675.339 322.713C679.04 321.433 683.306 320.231 688.137 319.107C693.007 317.956 698.056 317.456 703.282 317.605C708.522 317.688 713.606 318.901 718.535 321.244C723.463 323.586 727.823 327.591 731.614 333.258C735.985 339.79 738.222 346.839 738.327 354.403C738.47 361.94 736.316 369.449 731.863 376.928C727.45 384.381 720.599 391.215 711.312 397.428C702.654 403.221 694.223 406.839 686.018 408.284C677.852 409.702 670.287 409.124 663.323 406.548C656.398 403.946 650.487 399.498 645.592 393.202L660.704 383.092C664.151 387.394 668.214 390.145 672.891 391.345C677.581 392.48 682.479 392.393 687.585 391.085C692.704 389.711 697.665 387.418 702.466 384.206C708.054 380.467 712.466 376.205 715.702 371.419C718.911 366.595 720.722 361.68 721.134 356.676C721.52 351.633 720.238 346.908 717.289 342.5C714.604 338.486 711.297 335.97 707.369 334.952C703.441 333.934 699.12 333.862 694.407 334.737C689.694 335.611 684.817 336.88 679.777 338.543L662.058 344.245C650.797 347.848 640.726 348.975 631.847 347.623C622.967 346.272 615.803 341.524 610.353 333.377C605.824 326.609 603.705 319.481 603.994 311.996C604.297 304.444 606.623 297.191 610.971 290.237C615.333 283.218 621.37 277.128 629.083 271.967C636.875 266.754 644.736 263.517 652.666 262.257C660.569 260.957 667.898 261.523 674.652 263.954C681.445 266.359 686.981 270.546 691.258 276.514L677.091 285.993ZM799.11 218.269C795.046 212.268 789.408 208.894 782.198 208.147C774.987 207.399 767.471 209.049 759.649 213.096C753.93 216.055 749.404 219.57 746.072 223.639C742.782 227.687 740.776 231.95 740.055 236.429C739.375 240.885 740.101 245.174 742.234 249.295C744.018 252.744 746.372 255.284 749.296 256.917C752.24 258.485 755.44 259.415 758.896 259.706C762.33 259.955 765.748 259.866 769.152 259.438C772.534 258.967 775.586 258.427 778.31 257.818L793.258 254.562C797.079 253.705 801.453 252.988 806.379 252.411C811.348 251.813 816.42 251.881 821.598 252.614C826.795 253.283 831.712 255.058 836.347 257.937C840.982 260.817 844.866 265.284 847.999 271.34C851.611 278.321 853.046 285.575 852.302 293.103C851.601 300.61 848.62 307.83 843.358 314.764C838.138 321.676 830.566 327.7 820.641 332.835C811.39 337.621 802.606 340.273 794.291 340.791C786.017 341.286 778.565 339.864 771.933 336.525C765.342 333.165 759.967 328.082 755.807 321.279L771.956 312.923C774.9 317.584 778.629 320.773 783.142 322.489C787.676 324.142 792.553 324.604 797.774 323.875C803.014 323.083 808.2 321.359 813.331 318.705C819.302 315.615 824.164 311.874 827.915 307.481C831.644 303.046 833.994 298.365 834.963 293.438C835.911 288.47 835.167 283.631 832.73 278.921C830.51 274.631 827.506 271.761 823.716 270.31C819.927 268.859 815.641 268.304 810.86 268.645C806.079 268.986 801.091 269.701 795.897 270.789L777.651 274.472C766.056 276.792 755.923 276.784 747.251 274.448C738.578 272.111 731.99 266.59 727.486 257.885C723.744 250.652 722.436 243.332 723.562 235.926C724.708 228.456 727.831 221.509 732.93 215.085C738.05 208.598 744.731 203.222 752.974 198.957C761.3 194.649 769.474 192.313 777.495 191.948C785.494 191.541 792.714 192.924 799.153 196.096C805.634 199.246 810.666 204.026 814.249 210.436L799.11 218.269ZM852.222 153.497L908.632 287.568L892.397 294.399L835.987 160.328L852.222 153.497ZM941.65 275.119L895.523 137.172L978.238 109.514L983.193 124.333L917.183 146.405L932.769 193.016L992.582 173.016L997.536 187.834L937.723 207.834L958.354 269.533L941.65 275.119ZM1034.71 93.8455L1070.37 234.861L1053.29 239.179L1017.64 98.1634L1034.71 93.8455ZM1204.53 110.34L1187.14 113.147C1185.3 108.312 1182.8 104.209 1179.61 100.837C1176.48 97.4587 1172.88 94.7782 1168.82 92.7959C1164.8 90.7593 1160.48 89.4413 1155.88 88.8418C1151.27 88.2423 1146.59 88.3274 1141.82 89.0971C1133.12 90.5006 1125.6 93.9691 1119.25 99.5024C1112.95 105.028 1108.41 112.404 1105.63 121.629C1102.9 130.848 1102.54 141.673 1104.54 154.107C1106.55 166.541 1110.3 176.703 1115.8 184.593C1121.34 192.475 1127.97 198.047 1135.69 201.309C1143.46 204.564 1151.69 205.489 1160.38 204.086C1165.15 203.316 1169.63 201.922 1173.81 199.904C1177.99 197.886 1181.67 195.301 1184.86 192.149C1188.08 188.943 1190.65 185.243 1192.56 181.049C1194.51 176.801 1195.61 172.117 1195.83 166.996L1213.22 164.189C1213.1 171.739 1211.77 178.691 1209.25 185.045C1206.73 191.4 1203.22 197.026 1198.74 201.922C1194.25 206.772 1188.97 210.766 1182.9 213.903C1176.88 217.033 1170.25 219.183 1163.01 220.352C1150.76 222.329 1139.39 221.096 1128.89 216.652C1118.38 212.208 1109.51 204.912 1102.26 194.764C1095.01 184.615 1090.16 171.969 1087.72 156.824C1085.27 141.679 1085.89 128.149 1089.58 116.235C1093.27 104.321 1099.4 94.6023 1107.97 87.0798C1116.54 79.5573 1126.95 74.8075 1139.19 72.8304C1146.44 71.6608 1153.41 71.6146 1160.11 72.6918C1166.85 73.7614 1173.12 75.9145 1178.92 79.1511C1184.71 82.341 1189.8 86.5548 1194.2 91.7926C1198.58 96.9836 1202.03 103.166 1204.53 110.34ZM1254.64 206.392L1236.19 207.142L1283.64 59.638L1301.81 58.8996L1361.08 202.065L1342.63 202.815L1294.23 82.2381L1293.09 82.2843L1254.64 206.392ZM1259.14 149.344L1333.51 146.321L1334.15 161.933L1259.78 164.956L1259.14 149.344ZM1501.26 112.93L1483.7 111.559C1483.06 106.427 1481.59 101.848 1479.29 97.8213C1477.04 93.7986 1474.17 90.3453 1470.69 87.4614C1467.27 84.5341 1463.38 82.2362 1459.05 80.5679C1454.72 78.8996 1450.14 77.8774 1445.33 77.5013C1436.55 76.8155 1428.42 78.4128 1420.95 82.2933C1413.52 86.1775 1407.37 92.2747 1402.49 100.585C1397.66 108.899 1394.76 119.334 1393.78 131.891C1392.8 144.447 1394.04 155.207 1397.52 164.17C1401.05 173.136 1406.18 180.115 1412.91 185.105C1419.7 190.099 1427.48 192.939 1436.26 193.625C1441.07 194.001 1445.75 193.701 1450.29 192.726C1454.83 191.751 1459.02 190.107 1462.86 187.795C1466.75 185.439 1470.11 182.449 1472.96 178.825C1475.86 175.157 1478.02 170.861 1479.45 165.939L1497.01 167.31C1495.11 174.618 1492.19 181.062 1488.24 186.643C1484.29 192.223 1479.55 196.864 1474.04 200.566C1468.53 204.22 1462.46 206.856 1455.83 208.475C1449.24 210.098 1442.29 210.624 1434.97 210.052C1422.61 209.086 1411.84 205.206 1402.69 198.411C1393.53 191.617 1386.62 182.434 1381.97 170.862C1377.32 159.291 1375.59 145.858 1376.78 130.563C1377.98 115.269 1381.77 102.267 1388.16 91.5584C1394.56 80.8495 1402.8 72.85 1412.91 67.56C1423.01 62.27 1434.24 60.108 1446.61 61.074C1453.93 61.6455 1460.71 63.2441 1466.97 65.8698C1473.27 68.4991 1478.85 72.07 1483.73 76.5824C1488.6 81.0476 1492.56 86.3433 1495.59 92.4695C1498.63 98.5486 1500.52 105.369 1501.26 112.93ZM1427.72 208.061L1441.6 209.145L1440.02 214.721C1443.66 215.575 1446.92 217.373 1449.79 220.114C1452.66 222.903 1453.88 227.059 1453.45 232.582C1452.97 238.671 1450.06 243.43 1444.71 246.859C1439.4 250.339 1431.86 251.698 1422.09 250.934L1422.39 239.844C1426.78 240.187 1430.47 239.763 1433.46 238.572C1436.49 237.431 1438.14 235.233 1438.39 231.976C1438.64 228.719 1437.61 226.406 1435.3 225.038C1432.98 223.67 1429.15 222.563 1423.8 221.718L1427.72 208.061ZM1527.31 218.102L1509.2 214.47L1590.18 82.3623L1608.01 85.9386L1631.76 239.057L1613.66 235.425L1595.13 106.824L1594.01 106.601L1527.31 218.102ZM1545.17 163.735L1618.15 178.376L1615.08 193.695L1542.1 179.055L1545.17 163.735ZM1580.5 65.6421L1567.8 62.5146C1569.22 55.4118 1572.4 50.0139 1577.35 46.3211C1582.34 42.5912 1587.84 41.327 1593.83 42.5284C1596.47 43.0592 1598.72 43.9938 1600.58 45.3321C1602.45 46.6239 1604.19 48.0364 1605.81 49.5695C1607.44 51.1026 1609.13 52.529 1610.9 53.8486C1612.72 55.1311 1614.88 56.0239 1617.39 56.5268C1620.03 57.0576 1622.46 56.4834 1624.69 54.804C1626.96 53.0874 1628.39 50.7668 1628.98 47.8422L1641.29 51.4709C1639.84 58.713 1636.64 64.0597 1631.7 67.5111C1626.8 70.9718 1621.36 72.1014 1615.37 70.9C1612.17 70.2574 1609.61 69.2855 1607.7 67.9844C1605.8 66.6368 1604.15 65.2197 1602.76 63.7332C1601.36 62.2466 1599.85 60.8807 1598.22 59.6354C1596.59 58.3437 1594.46 57.4325 1591.81 56.9016C1589.17 56.3708 1586.75 56.9729 1584.57 58.708C1582.44 60.4061 1581.08 62.7174 1580.5 65.6421ZM1786.08 214.097C1781.22 228.65 1774.4 240.351 1765.61 249.198C1756.82 258.046 1746.89 263.817 1735.81 266.51C1724.73 269.204 1713.3 268.588 1701.53 264.664C1689.77 260.739 1680.26 254.374 1673.01 245.569C1665.77 236.764 1661.28 226.185 1659.56 213.832C1657.84 201.48 1659.41 188.027 1664.26 173.474C1669.12 158.921 1675.94 147.22 1684.73 138.373C1693.52 129.525 1703.45 123.754 1714.54 121.061C1725.62 118.367 1737.04 118.983 1748.81 122.907C1760.58 126.832 1770.08 133.196 1777.33 142.002C1784.57 150.807 1789.06 161.386 1790.78 173.739C1792.5 186.091 1790.93 199.544 1786.08 214.097ZM1769.91 208.705C1773.89 196.757 1775.26 186.007 1774 176.454C1772.79 166.916 1769.5 158.905 1764.12 152.421C1758.79 145.952 1751.95 141.324 1743.6 138.538C1735.24 135.752 1726.97 135.339 1718.78 137.299C1710.63 139.275 1703.19 143.705 1696.45 150.592C1689.76 157.494 1684.42 166.918 1680.43 178.866C1676.45 190.814 1675.06 201.557 1676.27 211.095C1677.53 220.648 1680.82 228.659 1686.15 235.128C1691.53 241.612 1698.39 246.247 1706.75 249.033C1715.1 251.819 1723.35 252.224 1731.5 250.249C1739.69 248.289 1747.13 243.858 1753.82 236.956C1760.56 230.07 1765.92 220.653 1769.91 208.705ZM2032.09 312.563L2016.99 303.488C2018.71 298.609 2019.44 293.855 2019.19 289.227C2018.97 284.622 2017.95 280.253 2016.13 276.118C2014.37 271.967 2011.93 268.177 2008.79 264.747C2005.66 261.318 2002.03 258.359 1997.89 255.87C1990.34 251.333 1982.36 249.129 1973.94 249.259C1965.56 249.414 1957.33 252.119 1949.25 257.374C1941.22 262.653 1933.95 270.69 1927.46 281.484C1920.97 292.278 1917.28 302.461 1916.39 312.034C1915.54 321.632 1917.01 330.167 1920.8 337.641C1924.63 345.14 1930.33 351.158 1937.87 355.695C1942.01 358.184 1946.33 360.007 1950.83 361.164C1955.33 362.321 1959.81 362.723 1964.27 362.369C1968.81 362 1973.15 360.83 1977.32 358.861C1981.55 356.875 1985.41 354 1988.89 350.235L2003.98 359.311C1999.02 364.999 1993.52 369.456 1987.49 372.682C1981.46 375.909 1975.16 377.945 1968.57 378.792C1962.01 379.598 1955.4 379.243 1948.74 377.727C1942.13 376.235 1935.67 373.599 1929.38 369.817C1918.75 363.425 1910.86 355.144 1905.7 344.973C1900.55 334.802 1898.47 323.5 1899.48 311.069C1900.49 298.638 1904.95 285.849 1912.86 272.701C1920.76 259.553 1929.96 249.618 1940.47 242.896C1950.98 236.174 1961.93 232.704 1973.33 232.487C1984.73 232.269 1995.75 235.357 2006.38 241.749C2012.67 245.53 2018.02 249.993 2022.45 255.137C2026.91 260.305 2030.31 265.997 2032.65 272.211C2035.01 278.384 2036.19 284.889 2036.16 291.727C2036.17 298.523 2034.81 305.469 2032.09 312.563ZM2157.43 408.851L2143.61 397.929C2145.93 393.308 2147.26 388.686 2147.6 384.062C2147.97 379.468 2147.52 375.004 2146.23 370.671C2145.02 366.33 2143.07 362.26 2140.4 358.46C2137.74 354.66 2134.51 351.263 2130.72 348.268C2123.81 342.807 2116.17 339.606 2107.8 338.664C2099.47 337.752 2090.96 339.388 2082.28 343.573C2073.64 347.787 2065.42 354.835 2057.61 364.716C2049.8 374.597 2044.84 384.228 2042.74 393.61C2040.67 403.021 2041.04 411.674 2043.85 419.57C2046.7 427.495 2051.58 434.188 2058.49 439.649C2062.28 442.644 2066.33 445.001 2070.65 446.72C2074.96 448.44 2079.35 449.409 2083.83 449.626C2088.37 449.836 2092.83 449.23 2097.22 447.806C2101.67 446.375 2105.86 444.013 2109.79 440.722L2123.61 451.644C2117.96 456.654 2111.94 460.375 2105.55 462.809C2099.16 465.242 2092.64 466.46 2086 466.463C2079.39 466.428 2072.88 465.235 2066.47 462.884C2060.1 460.563 2054.03 457.127 2048.27 452.576C2038.54 444.884 2031.77 435.665 2027.95 424.921C2024.13 414.177 2023.51 402.704 2026.09 390.502C2028.67 378.301 2034.72 366.182 2044.23 354.146C2053.75 342.111 2064.14 333.427 2075.41 328.096C2086.69 322.764 2098 320.716 2109.33 321.95C2120.67 323.185 2131.2 327.649 2140.93 335.341C2146.69 339.892 2151.44 344.999 2155.17 350.664C2158.93 356.358 2161.58 362.435 2163.12 368.897C2164.68 375.321 2165.01 381.922 2164.12 388.701C2163.26 395.443 2161.03 402.159 2157.43 408.851ZM2257.18 507.808C2259.51 503.349 2261.13 498.881 2262.06 494.405C2263.04 489.93 2263.28 485.496 2262.76 481.104C2262.28 476.746 2261 472.495 2258.94 468.353C2256.88 464.211 2254.02 460.26 2250.34 456.5C2244.32 450.336 2237.25 446.286 2229.14 444.351C2221.02 442.415 2212.41 442.984 2203.3 446.059C2194.19 449.134 2185.13 455.072 2176.13 463.873C2167.12 472.675 2160.99 481.61 2157.73 490.68C2154.48 499.749 2153.78 508.413 2155.62 516.671C2157.47 524.93 2161.53 532.276 2167.82 538.711C2173.65 544.672 2180.04 548.68 2187.02 550.737C2194.06 552.795 2201.16 552.81 2208.31 550.784C2215.53 548.759 2222.33 544.636 2228.7 538.415L2231.66 543.07L2201.08 511.776L2212.26 500.857L2250.97 540.482L2239.8 551.402C2231.23 559.773 2221.99 565.224 2212.08 567.753C2202.21 570.317 2192.4 570.103 2182.66 567.11C2172.98 564.118 2164.11 558.49 2156.04 550.226C2147.04 541.014 2141.29 530.802 2138.81 519.59C2136.37 508.411 2137.24 496.97 2141.42 485.267C2145.64 473.597 2153.24 462.402 2164.21 451.681C2172.44 443.64 2180.92 437.511 2189.64 433.294C2198.43 429.077 2207.13 426.734 2215.74 426.265C2224.35 425.796 2232.6 427.131 2240.5 430.269C2248.4 433.408 2255.61 438.314 2262.13 444.986C2267.49 450.472 2271.66 456.397 2274.63 462.76C2277.67 469.123 2279.5 475.64 2280.13 482.311C2280.82 488.982 2280.31 495.605 2278.59 502.181C2276.91 508.724 2274 514.935 2269.88 520.814L2257.18 507.808ZM2334.75 703.756C2331.65 698.94 2329.99 693.785 2329.77 688.292C2329.6 682.773 2330.73 677.537 2333.17 672.585C2335.64 667.672 2339.28 663.664 2344.1 660.561C2348.95 657.432 2354.11 655.773 2359.56 655.582C2365.08 655.406 2370.3 656.551 2375.21 659.018C2380.16 661.46 2384.19 665.089 2387.29 669.905C2390.42 674.761 2392.06 679.928 2392.21 685.407C2392.43 690.9 2391.3 696.103 2388.83 701.016C2386.43 705.943 2382.8 709.971 2377.95 713.1C2373.13 716.203 2367.96 717.843 2362.45 718.019C2356.95 718.235 2351.73 717.122 2346.78 714.681C2341.89 712.254 2337.88 708.612 2334.75 703.756ZM2518.42 951.579L2512.04 935.161C2516.39 932.355 2519.87 929.044 2522.51 925.228C2525.15 921.456 2527.02 917.377 2528.11 912.991C2529.26 908.633 2529.65 904.139 2529.28 899.51C2528.9 894.881 2527.84 890.316 2526.09 885.815C2522.9 877.606 2517.93 870.975 2511.2 865.923C2504.48 860.914 2496.31 858.015 2486.71 857.225C2477.13 856.48 2466.46 858.387 2454.72 862.949C2442.98 867.51 2433.83 873.302 2427.26 880.323C2420.71 887.389 2416.65 895.038 2415.07 903.271C2413.51 911.547 2414.33 919.789 2417.52 927.998C2419.27 932.5 2421.57 936.585 2424.41 940.253C2427.26 943.922 2430.56 946.984 2434.31 949.439C2438.12 951.921 2442.27 953.659 2446.77 954.654C2451.33 955.675 2456.14 955.762 2461.2 954.916L2467.58 971.333C2460.17 972.79 2453.09 972.948 2446.35 971.809C2439.61 970.669 2433.37 968.418 2427.65 965.055C2421.97 961.675 2416.96 957.348 2412.62 952.073C2408.3 946.842 2404.82 940.806 2402.16 933.966C2397.67 922.402 2396.5 911.022 2398.65 899.823C2400.8 888.625 2406.08 878.421 2414.49 869.21C2422.9 859.999 2434.25 852.616 2448.55 847.06C2462.85 841.504 2476.21 839.285 2488.63 840.402C2501.05 841.519 2511.84 845.481 2520.99 852.29C2530.13 859.098 2536.95 868.284 2541.45 879.847C2544.1 886.688 2545.61 893.495 2545.95 900.269C2546.32 907.087 2545.52 913.67 2543.57 920.016C2541.66 926.346 2538.6 932.207 2534.4 937.599C2530.24 942.974 2524.91 947.634 2518.42 951.579ZM2433.45 1014.88L2574.39 978.917L2586.54 1026.54C2589.35 1037.55 2589.78 1047.07 2587.82 1055.09C2585.91 1063.11 2582.13 1069.64 2576.48 1074.7C2570.83 1079.76 2563.85 1083.35 2555.55 1085.46C2547.24 1087.58 2539.45 1087.76 2532.16 1086.01C2524.87 1084.25 2518.49 1080.33 2513.03 1074.25C2507.62 1068.16 2503.52 1059.65 2500.73 1048.73L2490.9 1010.19L2506.31 1006.26L2516 1044.25C2517.92 1051.77 2520.57 1057.54 2523.94 1061.57C2527.33 1065.64 2531.3 1068.2 2535.87 1069.23C2540.49 1070.3 2545.62 1070.11 2551.26 1068.67C2556.91 1067.23 2561.57 1064.92 2565.25 1061.73C2568.93 1058.54 2571.33 1054.34 2572.44 1049.12C2573.6 1043.89 2573.21 1037.47 2571.26 1029.85L2563.61 999.847L2437.81 1031.95L2433.45 1014.88ZM2513.69 1065.07L2459.23 1115.9L2454.18 1096.08L2508.78 1045.8L2513.69 1065.07ZM2619.44 1215.22L2621.7 1232.69L2526.18 1245.02C2516.32 1246.29 2507.22 1245.1 2498.87 1241.46C2490.57 1237.85 2483.65 1232.13 2478.11 1224.3C2472.61 1216.46 2469.13 1206.89 2467.67 1195.57C2466.21 1184.25 2467.14 1174.11 2470.47 1165.13C2473.85 1156.15 2479.09 1148.84 2486.19 1143.19C2493.34 1137.59 2501.85 1134.15 2511.71 1132.88L2607.22 1120.55L2609.48 1138.02L2515.37 1150.17C2508.33 1151.08 2502.26 1153.44 2497.17 1157.24C2492.12 1161.05 2488.39 1166.02 2485.99 1172.15C2483.63 1178.33 2482.97 1185.43 2484.01 1193.46C2485.05 1201.49 2487.49 1208.19 2491.33 1213.57C2495.22 1218.94 2500.09 1222.8 2505.93 1225.15C2511.83 1227.54 2518.29 1228.28 2525.34 1227.37L2619.44 1215.22ZM2479.79 1281.41L2492.58 1281.29L2610.34 1358.61L2609.61 1279.35L2625.23 1279.21L2626.16 1379.49L2613.38 1379.61L2495.61 1302.28L2496.35 1381.54L2480.72 1381.69L2479.79 1281.41ZM2478.4 1417.01L2480.3 1398.64L2619.48 1466.76L2617.6 1484.85L2467.42 1522.98L2469.32 1504.61L2595.59 1474L2595.71 1472.87L2478.4 1417.01ZM2534.21 1429.65L2526.54 1503.68L2511 1502.07L2518.67 1428.04L2534.21 1429.65ZM2603.95 1579.75L2598.93 1600.17L2469.88 1619.34L2469.47 1620.99L2574.91 1697.82L2569.89 1718.24L2428.64 1683.5L2432.58 1667.5L2539.89 1693.89L2540.23 1692.51L2443.77 1621.99L2447.57 1606.54L2565.74 1588.79L2566.08 1587.41L2458.76 1561.02L2462.7 1545.02L2603.95 1579.75ZM2418.05 1716.92L2553.54 1769.84L2521.61 1851.61L2507.05 1845.92L2532.58 1780.56L2486.8 1762.68L2462.92 1823.81L2448.37 1818.13L2472.24 1757L2426.2 1739.01L2400.26 1805.43L2385.7 1799.75L2418.05 1716.92ZM2446.48 1997.67L2318.25 1929.02L2326.29 1913.99L2464.38 1898.01L2465.06 1896.76L2364.37 1842.86L2372.68 1827.33L2500.92 1895.98L2492.87 1911.01L2354.4 1927.1L2353.73 1928.36L2454.66 1982.39L2446.48 1997.67ZM2410.76 2026.88L2423.55 2035.85L2360.95 2125.19L2348.15 2116.22L2374.4 2078.77L2268.08 2004.26L2278.18 1989.83L2384.51 2064.34L2410.76 2026.88ZM2200.29 2197.58C2188.87 2187.34 2180.84 2176.43 2176.22 2164.84C2171.6 2153.26 2170.26 2141.85 2172.2 2130.61C2174.14 2119.37 2179.25 2109.14 2187.53 2099.9C2195.81 2090.66 2205.43 2084.47 2216.39 2081.33C2227.36 2078.19 2238.84 2078.28 2250.86 2081.62C2262.88 2084.95 2274.6 2091.74 2286.02 2101.99C2297.44 2112.23 2305.46 2123.14 2310.08 2134.73C2314.7 2146.31 2316.04 2157.72 2314.11 2168.96C2312.17 2180.2 2307.06 2190.43 2298.78 2199.67C2290.49 2208.9 2280.87 2215.09 2269.91 2218.24C2258.95 2221.38 2247.46 2221.29 2235.44 2217.95C2223.43 2214.61 2211.71 2207.83 2200.29 2197.58ZM2211.67 2184.89C2221.04 2193.3 2230.36 2198.83 2239.63 2201.48C2248.86 2204.16 2257.52 2204.33 2265.61 2201.98C2273.66 2199.66 2280.63 2195.22 2286.51 2188.67C2292.39 2182.11 2296.06 2174.69 2297.52 2166.39C2298.95 2158.13 2297.84 2149.54 2294.21 2140.62C2290.54 2131.73 2284.02 2123.09 2274.64 2114.68C2265.26 2106.27 2255.96 2100.72 2246.73 2098.04C2237.46 2095.39 2228.8 2095.22 2220.75 2097.54C2212.66 2099.89 2205.68 2104.34 2199.8 2110.9C2193.92 2117.46 2190.26 2124.87 2188.83 2133.12C2187.37 2141.42 2188.48 2150.01 2192.15 2158.9C2195.78 2167.82 2202.29 2176.48 2211.67 2184.89ZM2012.5 2384.33L2026.81 2374.06C2030.61 2377.57 2034.69 2380.12 2039.04 2381.72C2043.36 2383.34 2047.77 2384.14 2052.29 2384.1C2056.8 2384.13 2061.25 2383.38 2065.64 2381.86C2070.02 2380.35 2074.18 2378.18 2078.1 2375.36C2085.26 2370.23 2090.44 2363.77 2093.66 2355.98C2096.83 2348.23 2097.61 2339.6 2095.98 2330.1C2094.31 2320.63 2089.81 2310.78 2082.46 2300.55C2075.12 2290.32 2067.23 2282.9 2058.79 2278.29C2050.32 2273.71 2041.89 2271.68 2033.53 2272.2C2025.13 2272.75 2017.35 2275.6 2010.19 2280.73C2006.27 2283.55 2002.88 2286.79 2000.04 2290.47C1997.2 2294.14 1995.06 2298.09 1993.61 2302.34C1992.16 2306.64 1991.51 2311.1 1991.67 2315.71C1991.82 2320.38 1992.93 2325.06 1995.01 2329.74L1980.7 2340.01C1977.44 2333.2 1975.53 2326.39 1974.95 2319.57C1974.37 2312.76 1975 2306.16 1976.83 2299.78C1978.69 2293.44 1981.63 2287.51 1985.66 2281.99C1989.65 2276.51 1994.62 2271.63 2000.58 2267.35C2010.66 2260.11 2021.39 2256.14 2032.77 2255.44C2044.15 2254.73 2055.35 2257.3 2066.37 2263.15C2077.39 2268.99 2087.37 2278.15 2096.31 2290.61C2105.25 2303.08 2110.73 2315.46 2112.75 2327.77C2114.76 2340.08 2113.61 2351.51 2109.3 2362.07C2104.99 2372.62 2097.79 2381.52 2087.71 2388.75C2081.75 2393.03 2075.53 2396.18 2069.06 2398.2C2062.54 2400.25 2055.97 2401.13 2049.34 2400.82C2042.73 2400.54 2036.3 2399.04 2030.03 2396.32C2023.78 2393.63 2017.94 2389.63 2012.5 2384.33ZM1856.1 2439.73C1848.86 2426.21 1845.04 2413.22 1844.64 2400.75C1844.25 2388.28 1846.88 2377.1 1852.53 2367.2C1858.18 2357.29 1866.48 2349.41 1877.41 2343.55C1888.35 2337.69 1899.5 2335.16 1910.88 2335.94C1922.26 2336.72 1933.02 2340.73 1943.18 2347.96C1953.34 2355.19 1962.05 2365.57 1969.29 2379.09C1976.53 2392.62 1980.35 2405.61 1980.75 2418.08C1981.14 2430.54 1978.51 2441.73 1972.86 2451.63C1967.21 2461.53 1958.91 2469.42 1947.98 2475.27C1937.04 2481.13 1925.89 2483.67 1914.51 2482.89C1903.13 2482.11 1892.37 2478.1 1882.21 2470.87C1872.05 2463.63 1863.34 2453.25 1856.1 2439.73ZM1871.13 2431.68C1877.07 2442.78 1883.95 2451.16 1891.76 2456.81C1899.52 2462.48 1907.6 2465.59 1916.01 2466.13C1924.37 2466.7 1932.43 2464.91 1940.2 2460.75C1947.96 2456.59 1953.94 2450.86 1958.14 2443.56C1962.3 2436.28 1964.19 2427.83 1963.81 2418.2C1963.4 2408.6 1960.21 2398.25 1954.26 2387.14C1948.32 2376.04 1941.46 2367.66 1933.7 2361.99C1925.89 2356.34 1917.81 2353.23 1909.44 2352.66C1901.04 2352.11 1892.96 2353.92 1885.19 2358.08C1877.43 2362.24 1871.47 2367.95 1867.31 2375.23C1863.11 2382.53 1861.22 2390.98 1861.64 2400.59C1862.02 2410.22 1865.18 2420.58 1871.13 2431.68ZM1737.75 2564.07L1686.76 2427.85L1702.72 2421.87L1816.99 2501.04L1818.32 2500.55L1778.28 2393.59L1794.78 2387.41L1845.77 2523.64L1829.81 2529.61L1715.17 2450.27L1713.84 2450.77L1753.98 2558L1737.75 2564.07ZM1691.19 2562.5L1694.83 2577.69L1588.74 2603.1L1585.1 2587.9L1629.58 2577.25L1599.35 2450.99L1616.48 2446.89L1646.71 2573.15L1691.19 2562.5ZM1528.14 2466L1545.87 2610.37L1497.09 2616.36C1485.81 2617.75 1476.32 2616.96 1468.61 2613.99C1460.9 2611.08 1454.9 2606.5 1450.61 2600.25C1446.31 2594 1443.64 2586.63 1442.59 2578.12C1441.55 2569.61 1442.36 2561.86 1445.03 2554.85C1447.7 2547.84 1452.4 2542.02 1459.13 2537.38C1465.86 2532.78 1474.82 2529.8 1486.01 2528.42L1525.48 2523.58L1527.42 2539.37L1488.51 2544.14C1480.8 2545.09 1474.74 2546.98 1470.32 2549.81C1465.85 2552.65 1462.81 2556.27 1461.2 2560.67C1459.55 2565.11 1459.08 2570.23 1459.79 2576.01C1460.5 2581.79 1462.2 2586.71 1464.9 2590.77C1467.59 2594.82 1471.45 2597.74 1476.49 2599.5C1481.53 2601.32 1487.95 2601.74 1495.75 2600.79L1526.49 2597.01L1510.66 2468.15L1528.14 2466ZM1468.15 2539.2L1424.66 2478.71L1444.96 2476.22L1487.89 2536.78L1468.15 2539.2ZM1278.42 2552.25C1278.41 2536.91 1281.17 2523.65 1286.71 2512.48C1292.24 2501.3 1299.83 2492.68 1309.49 2486.61C1319.14 2480.54 1330.17 2477.51 1342.58 2477.5C1354.98 2477.49 1366.02 2480.52 1375.68 2486.57C1385.34 2492.63 1392.95 2501.24 1398.5 2512.41C1404.04 2523.58 1406.82 2536.84 1406.83 2552.18C1406.84 2567.52 1404.08 2580.78 1398.54 2591.95C1393.01 2603.13 1385.42 2611.75 1375.76 2617.82C1366.11 2623.89 1355.08 2626.92 1342.67 2626.93C1330.26 2626.94 1319.23 2623.92 1309.57 2617.86C1299.91 2611.81 1292.3 2603.19 1286.75 2592.02C1281.21 2580.85 1278.43 2567.6 1278.42 2552.25ZM1295.47 2552.24C1295.47 2564.84 1297.59 2575.47 1301.81 2584.13C1305.98 2592.79 1311.64 2599.35 1318.79 2603.79C1325.9 2608.24 1333.85 2610.46 1342.66 2610.45C1351.47 2610.45 1359.44 2608.22 1366.59 2603.76C1373.69 2599.31 1379.34 2592.75 1383.55 2584.08C1387.71 2575.41 1389.79 2564.78 1389.78 2552.19C1389.78 2539.59 1387.69 2528.96 1383.51 2520.3C1379.3 2511.64 1373.63 2505.09 1366.53 2500.64C1359.38 2496.19 1351.4 2493.97 1342.59 2493.98C1333.78 2493.98 1325.83 2496.21 1318.73 2500.67C1311.58 2505.12 1305.93 2511.68 1301.77 2520.35C1297.56 2529.02 1295.46 2539.65 1295.47 2552.24ZM1248.99 2477.45L1231.8 2621.89L1214.31 2619.8L1229.66 2490.89L1162.52 2482.89L1164.36 2467.38L1248.99 2477.45ZM1122.76 2459.75L1140.74 2463.98L1055.39 2593.31L1037.7 2589.14L1019.07 2435.31L1037.04 2439.55L1051.27 2568.7L1052.37 2568.96L1122.76 2459.75ZM1103.1 2513.49L1030.65 2496.42L1034.23 2481.21L1106.68 2498.28L1103.1 2513.49ZM955.63 2412.47L997.722 2428.06L947.206 2564.46L903.248 2548.18C890.017 2543.28 879.706 2536.36 872.315 2527.41C864.909 2518.51 860.579 2508.04 859.328 2496.01C858.06 2484.03 860.04 2470.98 865.269 2456.86C870.531 2442.65 877.593 2431.36 886.453 2422.98C895.297 2414.64 905.578 2409.51 917.297 2407.59C928.999 2405.71 941.776 2407.34 955.63 2412.47ZM975.778 2436.59L951.269 2427.52C939.991 2423.34 929.838 2422.05 920.812 2423.66C911.785 2425.27 903.964 2429.41 897.346 2436.1C890.729 2442.79 885.365 2451.68 881.254 2462.78C877.176 2473.79 875.463 2483.94 876.116 2493.22C876.753 2502.54 879.856 2510.66 885.426 2517.57C890.979 2524.53 899.084 2529.98 909.741 2533.92L936.115 2543.69L975.778 2436.59ZM721.465 2383.16C728.621 2369.59 737.255 2359.15 747.368 2351.85C757.48 2344.55 768.222 2340.47 779.592 2339.62C790.963 2338.76 802.135 2341.23 813.108 2347.01C824.082 2352.8 832.427 2360.63 838.144 2370.49C843.861 2380.36 846.563 2391.53 846.251 2403.99C845.939 2416.46 842.205 2429.48 835.05 2443.05C827.894 2456.62 819.26 2467.06 809.148 2474.36C799.035 2481.66 788.294 2485.73 776.923 2486.59C765.552 2487.44 754.38 2484.98 743.407 2479.19C732.434 2473.41 724.088 2465.58 718.371 2455.71C712.654 2445.85 709.952 2434.68 710.264 2422.21C710.576 2409.74 714.31 2396.72 721.465 2383.16ZM736.543 2391.11C730.668 2402.25 727.574 2412.63 727.26 2422.26C726.904 2431.87 728.85 2440.31 733.098 2447.58C737.304 2454.83 743.302 2460.51 751.092 2464.62C758.882 2468.73 766.978 2470.48 775.378 2469.88C783.736 2469.25 791.8 2466.09 799.569 2460.39C807.296 2454.67 814.097 2446.24 819.972 2435.1C825.847 2423.96 828.962 2413.59 829.318 2403.98C829.632 2394.35 827.686 2385.91 823.48 2378.66C819.232 2371.39 813.213 2365.7 805.423 2361.59C797.633 2357.48 789.558 2355.74 781.2 2356.36C772.8 2356.96 764.736 2360.13 757.009 2365.85C749.24 2371.55 742.418 2379.97 736.543 2391.11Z" fill="#C62828"/>
</svg>
