<svg width="2684" height="2684" viewBox="0 0 2684 2684" fill="none" xmlns="http://www.w3.org/2000/svg">
<circle cx="1342" cy="1342" r="1342" fill="#9BB6DA"/>
<circle cx="1342" cy="1342" r="1048" fill="#F3F7FF"/>
<path fill-rule="evenodd" clip-rule="evenodd" d="M1152.79 1797.22L1152.79 1797.22C1152.56 1780.94 1151.22 1685.25 1152.82 1683.64C1153.08 1683.38 1154.47 1681.88 1156.66 1679.52L1156.66 1679.52C1169.04 1666.16 1206.94 1625.29 1210.4 1625.29C1210.4 1625.29 1470.33 1626.06 1472.08 1626.06C1473.83 1626.06 1529.66 1681.89 1529.66 1682.86C1529.66 1683.34 1529.66 1711.37 1529.66 1739.83C1529.66 1769.12 1529.66 1798.87 1529.66 1799.56C1529.66 1800.92 1429.83 1900.55 1428.67 1900.55H1350.61H1253.81C1252.45 1900.55 1152.82 1800.52 1152.82 1799.56C1152.82 1799.48 1152.81 1798.66 1152.79 1797.22ZM1287.08 1718.05C1301.52 1739.31 1300.3 1765.31 1284.35 1776.14C1268.41 1786.97 1243.79 1778.51 1229.35 1757.25C1214.92 1736 1216.14 1709.99 1232.08 1699.16C1248.03 1688.34 1272.65 1696.79 1287.08 1718.05ZM1399.57 1776.14C1383.62 1765.31 1382.4 1739.31 1396.84 1718.05C1411.27 1696.79 1435.89 1688.34 1451.84 1699.16C1467.78 1709.99 1469 1736 1454.57 1757.25C1440.13 1778.51 1415.51 1786.97 1399.57 1776.14Z" fill="#496A8C"/>
<path fill-rule="evenodd" clip-rule="evenodd" d="M1091.56 1733.06V1660.95C1112.15 1607.05 1133.68 1586.82 1186.94 1565.58H1312.55V886.35H1114.83C1049.69 886.35 982.235 953.808 982.235 1056.16H779.862C733.339 1038.32 660.299 978.93 740.318 884.024C772.884 852.233 844.064 787.722 868.255 784C807.776 784 672.86 808.192 617.033 904.959C561.206 1001.73 604.627 1100.35 633.316 1137.57C695.059 1197.54 781.222 1197.02 948.026 1196.01C971.028 1195.87 995.564 1195.73 1021.78 1195.73V1363.21L970.606 1414.38V1593.49C976.033 1611.33 1007.82 1664.21 1091.56 1733.06ZM1091.56 1339.95V1288.77C1121.8 1284.12 1180.89 1296.22 1175.31 1381.82L1147.04 1381.82L1124.13 1381.82C1121.8 1381.82 1091.56 1342.28 1091.56 1339.95Z" fill="#496A8C"/>
<path fill-rule="evenodd" clip-rule="evenodd" d="M1591.68 1733.07V1660.96C1571.1 1607.05 1549.57 1586.82 1496.31 1565.58H1370.7V886.353H1568.42C1633.55 886.353 1701.01 953.811 1701.01 1056.16H1903.39C1949.91 1038.33 2022.95 978.933 1942.93 884.026C1910.36 852.236 1839.18 787.725 1814.99 784.003C1875.47 784.003 2010.39 808.195 2066.21 904.962C2122.04 1001.73 2078.62 1100.36 2049.93 1137.58C1988.19 1197.54 1902.03 1197.02 1735.22 1196.02C1712.22 1195.88 1687.68 1195.73 1661.47 1195.73V1363.21L1712.64 1414.39V1593.5C1707.21 1611.33 1675.43 1664.21 1591.68 1733.07ZM1594.38 1339.95V1288.78C1564.14 1284.12 1505.06 1296.22 1510.64 1381.82C1510.64 1381.82 1559.49 1381.82 1561.81 1381.82C1564.14 1381.82 1594.38 1342.28 1594.38 1339.95Z" fill="#496A8C"/>
<path d="M958.975 1253.88H817.081C773.511 1288.03 754.341 1309.76 726.361 1351.58C831.896 1433.84 882.64 1426.03 958.975 1321.34V1253.88Z" fill="#496A8C"/>
<path d="M1724.27 1253.88H1866.17C1909.73 1288.03 1928.9 1309.76 1956.88 1351.58C1851.35 1433.84 1800.61 1426.03 1724.27 1321.34V1253.88Z" fill="#496A8C"/>
<path d="M520.53 2281.2C516.591 2287.29 515.685 2293.79 517.81 2300.72C519.936 2307.66 524.387 2313.93 531.166 2319.55C536.122 2323.67 541.124 2326.46 546.171 2327.94C551.182 2329.39 555.89 2329.57 560.295 2328.49C564.663 2327.38 568.328 2325.04 571.291 2321.46C573.77 2318.48 575.19 2315.32 575.552 2311.99C575.848 2308.66 575.456 2305.36 574.375 2302.06C573.264 2298.8 571.848 2295.69 570.125 2292.72C568.373 2289.79 566.684 2287.19 565.061 2284.92L556.23 2272.43C553.949 2269.25 551.582 2265.5 549.129 2261.19C546.64 2256.85 544.723 2252.15 543.377 2247.1C541.966 2242.05 541.681 2236.83 542.523 2231.44C543.366 2226.05 545.964 2220.73 550.317 2215.48C555.335 2209.43 561.454 2205.28 568.675 2203.03C575.86 2200.74 583.671 2200.67 592.109 2202.81C600.51 2204.92 609.011 2209.54 617.612 2216.67C625.629 2223.32 631.498 2230.38 635.219 2237.83C638.904 2245.25 640.503 2252.67 640.017 2260.08C639.494 2267.46 636.912 2274.39 632.271 2280.88L618.277 2269.27C621.419 2264.74 622.9 2260.06 622.719 2255.24C622.472 2250.42 620.994 2245.75 618.286 2241.22C615.511 2236.71 611.901 2232.61 607.455 2228.92C602.28 2224.63 596.938 2221.61 591.429 2219.87C585.891 2218.17 580.664 2217.83 575.75 2218.86C570.805 2219.93 566.64 2222.5 563.255 2226.58C560.171 2230.3 558.701 2234.19 558.844 2238.24C558.986 2242.3 560.147 2246.46 562.328 2250.73C564.508 2255 567.112 2259.31 570.141 2263.67L580.652 2279.03C587.312 2288.8 591.259 2298.13 592.492 2307.03C593.724 2315.93 591.212 2324.15 584.954 2331.69C579.755 2337.96 573.526 2342.02 566.268 2343.87C558.942 2345.73 551.328 2345.57 543.424 2343.38C535.453 2341.2 527.896 2337.14 520.753 2331.22C513.537 2325.23 508.196 2318.62 504.73 2311.38C501.234 2304.17 499.69 2296.98 500.098 2289.82C500.47 2282.62 502.907 2276.12 507.411 2270.32L520.53 2281.2ZM554.574 2165.25L450.232 2266.59L389.072 2203.62L400.28 2192.73L449.169 2243.07L484.425 2208.83L438.704 2161.75L449.912 2150.86L495.634 2197.94L531.094 2163.5L481.414 2112.35L492.623 2101.46L554.574 2165.25ZM472.642 2078.39L358.8 2168.93L347.837 2155.15L449.449 2074.33L407.363 2021.41L419.592 2011.69L472.642 2078.39ZM281.066 1928.15C294.074 1920.02 306.784 1915.34 319.195 1914.11C331.607 1912.88 342.942 1914.76 353.202 1919.74C363.461 1924.71 371.879 1932.46 378.455 1942.98C385.032 1953.5 388.31 1964.46 388.292 1975.86C388.273 1987.27 384.995 1998.28 378.457 2008.9C371.919 2019.52 362.146 2028.9 349.138 2037.03C336.13 2045.16 323.42 2049.84 311.008 2051.07C298.597 2052.29 287.261 2050.42 277.002 2045.44C266.742 2040.46 258.325 2032.72 251.748 2022.2C245.172 2011.68 241.893 2000.72 241.912 1989.31C241.93 1977.91 245.209 1966.9 251.747 1956.28C258.285 1945.66 268.058 1936.28 281.066 1928.15ZM290.102 1942.6C279.423 1949.28 271.526 1956.7 266.413 1964.87C261.275 1972.99 258.714 1981.27 258.73 1989.69C258.721 1998.07 261.051 2006 265.72 2013.46C270.388 2020.93 276.505 2026.52 284.069 2030.22C291.608 2033.88 300.168 2035.2 309.749 2034.18C319.305 2033.12 329.422 2029.25 340.102 2022.58C350.781 2015.9 358.69 2008.5 363.828 2000.37C368.941 1992.21 371.502 1983.93 371.511 1975.55C371.495 1967.13 369.152 1959.18 364.484 1951.72C359.815 1944.25 353.711 1938.68 346.172 1935.02C338.608 1931.32 330.048 1930 320.492 1931.06C310.911 1932.08 300.781 1935.93 290.102 1942.6ZM281.01 1757.44L143.47 1804.76L126.925 1756.68C123.628 1747.1 122.565 1738.62 123.737 1731.26C124.864 1723.91 127.68 1717.76 132.184 1712.81C136.644 1707.87 142.231 1704.24 148.947 1701.93C154.857 1699.9 160.099 1699.27 164.674 1700.05C169.233 1700.79 173.217 1702.47 176.626 1705.1C180.02 1707.69 182.933 1710.77 185.363 1714.34L186.706 1713.88C185.526 1709.58 185.548 1704.84 186.771 1699.66C187.994 1694.48 190.62 1689.6 194.648 1685.01C198.677 1680.41 204.318 1676.87 211.571 1674.38C218.466 1672 225.206 1671.44 231.791 1672.68C238.377 1673.92 244.444 1677.36 249.994 1683.01C255.544 1688.66 260.183 1696.91 263.911 1707.74L281.01 1757.44ZM260.505 1745.87L249.136 1712.83C245.392 1701.95 240.631 1694.95 234.851 1691.83C229.011 1688.68 223.068 1688.15 217.024 1690.23C212.368 1691.83 208.478 1694.49 205.354 1698.22C202.186 1701.97 200.17 1706.44 199.307 1711.64C198.399 1716.86 198.977 1722.47 201.042 1728.47L212.688 1762.32L260.505 1745.87ZM198.182 1767.31L187.552 1736.42C185.827 1731.4 183.286 1727.22 179.929 1723.87C176.558 1720.47 172.672 1718.2 168.274 1717.06C163.861 1715.88 159.236 1716.12 154.401 1717.78C148.356 1719.86 143.954 1723.73 141.193 1729.39C138.388 1735.06 138.557 1742.46 141.699 1751.59L152.514 1783.02L198.182 1767.31ZM78.7315 1570.66L75.0851 1553.42L169.305 1533.49C179.033 1531.43 188.204 1531.88 196.818 1534.85C205.375 1537.78 212.732 1542.93 218.887 1550.29C224.996 1557.66 229.231 1566.93 231.594 1578.09C233.956 1589.25 233.837 1599.44 231.238 1608.66C228.592 1617.88 223.955 1625.59 217.329 1631.78C210.646 1637.94 202.441 1642.05 192.713 1644.1L98.4929 1664.04L94.8465 1646.81L187.677 1627.17C194.626 1625.7 200.486 1622.86 205.259 1618.65C209.986 1614.46 213.303 1609.21 215.21 1602.9C217.062 1596.56 217.15 1589.42 215.474 1581.5C213.797 1573.58 210.828 1567.1 206.565 1562.04C202.255 1557 197.096 1553.55 191.085 1551.67C185.018 1549.76 178.511 1549.54 171.562 1551.01L78.7315 1570.66ZM212.157 1488.7L67.3179 1502.06L59.3046 1415.22L74.8635 1413.78L81.2585 1483.09L130.198 1478.57L124.404 1415.77L139.963 1414.34L145.757 1477.14L210.539 1471.16L212.157 1488.7ZM203.165 1371.79L57.7172 1370.39L58.5572 1283.18L74.1815 1283.33L73.5111 1352.93L122.657 1353.4L123.264 1290.34L138.888 1290.49L138.281 1353.55L203.335 1354.18L203.165 1371.79ZM107.03 1162.93C99.7832 1162.94 93.8332 1165.73 89.1803 1171.29C84.5274 1176.85 81.6906 1184 80.6698 1192.75C79.9235 1199.14 80.3051 1204.86 81.8147 1209.9C83.3297 1214.89 85.7415 1218.94 89.0499 1222.04C92.3639 1225.1 96.3253 1226.89 100.934 1227.43C104.791 1227.88 108.213 1227.35 111.202 1225.84C114.149 1224.28 116.71 1222.14 118.884 1219.44C121.012 1216.74 122.85 1213.85 124.399 1210.79C125.901 1207.72 127.161 1204.89 128.179 1202.29L133.842 1188.08C135.268 1184.43 137.12 1180.41 139.398 1176C141.682 1171.55 144.575 1167.38 148.079 1163.5C151.541 1159.57 155.762 1156.48 160.742 1154.25C165.722 1152.02 171.598 1151.3 178.37 1152.09C186.177 1153 192.992 1155.87 198.817 1160.7C204.647 1165.48 208.964 1171.99 211.768 1180.23C214.578 1188.42 215.336 1198.07 214.04 1209.17C212.833 1219.51 210.118 1228.28 205.896 1235.46C201.679 1242.59 196.331 1247.98 189.854 1251.61C183.381 1255.19 176.162 1256.8 168.195 1256.44L170.302 1238.38C175.813 1238.55 180.542 1237.24 184.489 1234.46C188.395 1231.63 191.506 1227.85 193.822 1223.11C196.097 1218.32 197.569 1213.06 198.239 1207.32C199.018 1200.64 198.636 1194.52 197.093 1188.96C195.502 1183.38 192.937 1178.82 189.395 1175.26C185.807 1171.69 181.379 1169.6 176.112 1168.99C171.315 1168.43 167.255 1169.31 163.932 1171.64C160.61 1173.97 157.753 1177.21 155.361 1181.37C152.97 1185.52 150.772 1190.06 148.769 1194.97L141.615 1212.16C137.053 1223.06 131.378 1231.46 124.59 1237.34C117.802 1243.22 109.54 1245.6 99.8051 1244.46C91.7161 1243.52 84.9168 1240.51 79.4074 1235.43C73.8565 1230.3 69.845 1223.83 67.373 1216.01C64.8594 1208.13 64.1404 1199.59 65.216 1190.37C66.3026 1181.06 68.9379 1172.98 73.1221 1166.12C77.2593 1159.26 82.4436 1154.05 88.6751 1150.49C94.9121 1146.88 101.689 1145.38 109.006 1146L107.03 1162.93ZM223.351 965.276C221.524 970.705 218.531 975.218 214.373 978.815C210.17 982.396 205.372 984.778 199.978 985.96C194.599 987.097 189.195 986.752 183.765 984.924C178.29 983.081 173.777 980.089 170.226 975.946C166.645 971.743 164.286 966.952 163.148 961.573C161.966 956.18 162.289 950.768 164.117 945.338C165.959 939.863 168.975 935.358 173.162 931.821C177.32 928.225 182.089 925.858 187.467 924.721C192.816 923.524 198.228 923.847 203.703 925.689C209.133 927.517 213.638 930.532 217.219 934.735C220.816 938.893 223.205 943.669 224.387 949.063C225.539 954.397 225.194 959.801 223.351 965.276ZM312.383 652.181L303.311 667.279C298.432 665.563 293.678 664.833 289.05 665.09C284.445 665.306 280.076 666.326 275.942 668.151C271.791 669.91 268.001 672.356 264.573 675.488C261.144 678.621 258.186 682.256 255.698 686.396C251.163 693.945 248.961 701.93 249.094 710.351C249.251 718.731 251.958 726.958 257.214 735.033C262.495 743.067 270.534 750.328 281.33 756.815C292.125 763.301 302.31 766.991 311.883 767.882C321.48 768.732 330.016 767.26 337.489 763.464C344.986 759.628 351.003 753.936 355.539 746.387C358.026 742.247 359.848 737.929 361.004 733.431C362.16 728.933 362.56 724.451 362.206 719.984C361.835 715.453 360.665 711.104 358.694 706.937C356.707 702.705 353.831 698.85 350.066 695.372L359.137 680.275C364.827 685.24 369.285 690.736 372.513 696.763C375.741 702.79 377.779 709.097 378.628 715.683C379.436 722.245 379.082 728.854 377.568 735.512C376.077 742.129 373.442 748.583 369.662 754.874C363.273 765.507 354.994 773.403 344.824 778.561C334.654 783.718 323.353 785.794 310.922 784.787C298.491 783.781 285.7 779.327 272.55 771.425C259.401 763.524 249.463 754.322 242.738 743.818C236.014 733.314 232.541 722.362 232.321 710.961C232.101 699.56 235.185 688.543 241.575 677.91C245.355 671.619 249.816 666.262 254.959 661.84C260.126 657.377 265.817 653.975 272.03 651.632C278.203 649.265 284.708 648.091 291.545 648.112C298.342 648.108 305.288 649.465 312.383 652.181ZM414.409 680.537L299.335 591.571L310.108 577.636L412.821 657.045L454.176 603.554L466.538 613.111L414.409 680.537ZM494.442 581.328L481.585 594.583L414.364 454.973L427.023 441.922L568.616 504.858L555.759 518.113L437.607 464.061L436.815 464.877L494.442 581.328ZM458.405 536.874L510.228 483.447L521.444 494.326L469.621 547.753L458.405 536.874ZM578.113 355.336C572.894 350.308 566.68 348.176 559.471 348.939C552.262 349.702 545.251 352.874 538.438 358.454C533.456 362.534 529.757 366.91 527.341 371.582C524.961 376.224 523.882 380.811 524.105 385.341C524.364 389.842 525.963 393.887 528.903 397.477C531.363 400.48 534.193 402.478 537.391 403.469C540.597 404.393 543.92 404.64 547.361 404.208C550.772 403.74 554.098 402.944 557.339 401.82C560.55 400.659 563.424 399.498 565.962 398.337L579.911 392.054C583.472 390.423 587.602 388.815 592.302 387.23C597.038 385.615 602.015 384.63 607.232 384.274C612.455 383.852 617.632 384.569 622.764 386.425C627.895 388.281 632.621 391.847 636.941 397.121C641.921 403.202 644.828 410.002 645.662 417.52C646.532 425.009 645.111 432.69 641.401 440.564C637.727 448.408 631.568 455.871 622.923 462.951C614.864 469.551 606.821 473.966 598.794 476.196C590.803 478.395 583.217 478.549 576.037 476.657C568.893 474.735 562.582 470.877 557.102 465.084L571.168 453.563C575.014 457.512 579.323 459.859 584.094 460.602C588.872 461.279 593.739 460.721 598.695 458.926C603.658 457.064 608.374 454.303 612.842 450.643C618.044 446.383 622.024 441.715 624.783 436.64C627.513 431.528 628.841 426.462 628.768 421.442C628.666 416.385 626.934 411.805 623.574 407.702C620.514 403.966 616.98 401.781 612.972 401.146C608.964 400.512 604.657 400.858 600.05 402.183C595.443 403.507 590.712 405.241 585.856 407.382L568.769 414.766C557.908 419.439 547.993 421.532 539.024 421.043C530.056 420.555 522.467 416.519 516.256 408.937C511.096 402.636 508.299 395.747 507.865 388.268C507.439 380.722 509.054 373.279 512.711 365.938C516.375 358.53 521.797 351.886 528.977 346.006C536.23 340.066 543.741 336.086 551.513 334.066C559.254 332.01 566.603 331.867 573.56 333.635C580.553 335.374 586.467 339.007 591.3 344.535L578.113 355.336ZM692.971 276.149C688.345 270.57 682.407 267.758 675.158 267.713C667.91 267.667 660.588 270.037 653.195 274.823C647.79 278.322 643.626 282.258 640.704 286.632C637.821 290.979 636.238 295.417 635.953 299.944C635.708 304.445 636.847 308.644 639.368 312.539C641.478 315.798 644.067 318.099 647.135 319.44C650.217 320.717 653.492 321.332 656.96 321.287C660.402 321.202 663.796 320.782 667.142 320.026C670.463 319.23 673.449 318.397 676.1 317.527L690.663 312.838C694.383 311.615 698.667 310.478 703.514 309.427C708.401 308.35 713.456 307.926 718.68 308.154C723.918 308.317 728.984 309.607 733.876 312.024C738.768 314.441 743.067 318.511 746.772 324.235C751.043 330.833 753.173 337.915 753.163 345.479C753.192 353.018 750.924 360.493 746.359 367.904C741.833 375.29 734.88 382.018 725.499 388.091C716.755 393.751 708.269 397.241 700.043 398.562C691.857 399.856 684.301 399.163 677.377 396.482C670.492 393.775 664.65 389.238 659.851 382.869L675.114 372.989C678.496 377.342 682.516 380.155 687.174 381.426C691.847 382.632 696.746 382.619 701.871 381.388C707.011 380.092 712.005 377.874 716.854 374.735C722.498 371.082 726.974 366.887 730.282 362.151C733.565 357.376 735.45 352.489 735.938 347.492C736.4 342.455 735.19 337.711 732.308 333.259C729.684 329.205 726.416 326.639 722.503 325.562C718.591 324.484 714.272 324.347 709.546 325.15C704.821 325.953 699.925 327.148 694.861 328.734L677.057 334.167C665.742 337.599 655.656 338.573 646.798 337.087C637.94 335.601 630.848 330.745 625.522 322.517C621.097 315.68 619.086 308.522 619.489 301.041C619.906 293.495 622.341 286.278 626.795 279.391C631.262 272.438 637.391 266.44 645.182 261.398C653.052 256.303 660.961 253.186 668.909 252.046C676.831 250.866 684.15 251.543 690.866 254.076C697.622 256.584 703.094 260.854 707.281 266.886L692.971 276.149ZM739.519 206.548L808.688 334.504L793.193 342.88L724.025 214.924L739.519 206.548ZM840.337 318.901L780.988 186.105L860.614 150.519L866.989 164.784L803.444 193.184L823.498 238.054L881.077 212.321L887.453 226.586L829.873 252.319L856.418 311.714L840.337 318.901ZM915.298 129.421L964.523 266.293L947.949 272.254L898.724 135.382L915.298 129.421ZM1085.93 129.306L1068.89 133.792C1066.6 129.158 1063.7 125.318 1060.2 122.273C1056.75 119.215 1052.91 116.898 1048.68 115.32C1044.48 113.684 1040.06 112.792 1035.41 112.644C1030.77 112.495 1026.12 113.036 1021.45 114.266C1012.93 116.509 1005.78 120.693 1000 126.818C994.267 132.931 990.466 140.713 988.597 150.166C986.775 159.606 987.468 170.416 990.675 182.595C993.883 194.774 998.605 204.523 1004.84 211.841C1011.12 219.147 1018.26 224.047 1026.27 226.542C1034.31 229.025 1042.6 229.145 1051.11 226.903C1055.78 225.673 1060.1 223.85 1064.07 221.434C1068.03 219.019 1071.45 216.087 1074.31 212.641C1077.21 209.136 1079.4 205.204 1080.9 200.844C1082.43 196.426 1083.06 191.658 1082.79 186.539L1099.82 182.053C1100.43 189.579 1099.79 196.627 1097.9 203.197C1096 209.767 1093.06 215.707 1089.07 221.017C1085.08 226.281 1080.21 230.77 1074.48 234.482C1068.8 238.183 1062.41 240.967 1055.31 242.836C1043.31 245.996 1031.87 245.875 1020.99 242.475C1010.1 239.074 1000.56 232.676 992.357 223.281C984.154 213.886 978.099 201.771 974.192 186.936C970.285 172.101 969.587 158.575 972.098 146.359C974.609 134.142 979.763 123.873 987.56 115.553C995.357 107.232 1005.25 101.492 1017.25 98.3323C1024.35 96.4631 1031.28 95.7388 1038.05 96.1592C1044.87 96.5675 1051.32 98.1002 1057.4 100.757C1063.48 103.368 1068.95 107.067 1073.84 111.852C1078.71 116.591 1082.74 122.409 1085.93 129.306ZM1145.15 220.054L1126.85 222.574L1159.92 71.1923L1177.93 68.7117L1250.68 205.519L1232.39 208.039L1172.63 92.6707L1171.5 92.8257L1145.15 220.054ZM1144.15 162.837L1217.88 152.682L1220.02 168.161L1146.28 178.316L1144.15 162.837ZM1381.7 103.404L1364.09 103.716C1362.96 98.6689 1361.06 94.2511 1358.39 90.4626C1355.76 86.6733 1352.58 83.5095 1348.84 80.9711C1345.15 78.3846 1341.07 76.468 1336.6 75.2213C1332.12 73.9746 1327.47 73.394 1322.64 73.4795C1313.84 73.6355 1305.9 76.0019 1298.83 80.5786C1291.81 85.1544 1286.27 91.8114 1282.21 100.549C1278.19 109.287 1276.3 119.952 1276.52 132.544C1276.75 145.137 1279.02 155.728 1283.34 164.318C1287.7 172.907 1293.48 179.363 1300.66 183.687C1307.88 188.011 1315.9 190.095 1324.71 189.939C1329.53 189.853 1334.16 189.108 1338.59 187.704C1343.02 186.299 1347.03 184.263 1350.63 181.595C1354.27 178.878 1357.34 175.58 1359.83 171.7C1362.36 167.772 1364.11 163.289 1365.06 158.253L1382.67 157.941C1381.48 165.397 1379.18 172.091 1375.78 178.023C1372.38 183.956 1368.11 189.027 1362.98 193.238C1357.84 197.402 1352.05 200.606 1345.61 202.852C1339.2 205.096 1332.34 206.283 1325 206.413C1312.59 206.633 1301.51 203.799 1291.74 197.91C1281.98 192.021 1274.23 183.54 1268.49 172.466C1262.76 161.391 1259.75 148.185 1259.48 132.846C1259.21 117.508 1261.74 104.203 1267.08 92.9326C1272.42 81.662 1279.87 72.9113 1289.42 66.6805C1298.97 60.4498 1309.95 57.2246 1322.35 57.0048C1329.69 56.8748 1336.6 57.818 1343.07 59.8343C1349.6 61.8497 1355.5 64.8706 1360.78 68.8971C1366.06 72.8761 1370.5 77.7698 1374.11 83.578C1377.71 89.3389 1380.25 95.9476 1381.7 103.404ZM1317.59 205.124L1331.51 204.877L1330.47 210.578C1334.17 211.081 1337.58 212.56 1340.71 215.014C1343.83 217.516 1345.44 221.536 1345.54 227.075C1345.65 233.182 1343.2 238.198 1338.2 242.122C1333.25 246.093 1325.88 248.165 1316.08 248.339L1315.32 237.271C1319.72 237.193 1323.35 236.419 1326.21 234.947C1329.12 233.522 1330.55 231.177 1330.49 227.91C1330.43 224.644 1329.19 222.44 1326.75 221.299C1324.32 220.158 1320.4 219.423 1314.99 219.092L1317.59 205.124ZM1417.69 205.575L1399.31 203.713L1467.11 64.3827L1485.2 66.2153L1523.68 216.312L1505.3 214.451L1474.4 88.2505L1473.27 88.1359L1417.69 205.575ZM1430.2 149.733L1504.25 157.235L1502.67 172.781L1428.62 165.278L1430.2 149.733ZM1455.85 48.6793L1442.91 46.7969C1443.64 39.5894 1446.28 33.9086 1450.85 29.7544C1455.46 25.5578 1460.8 23.7674 1466.88 24.383C1469.57 24.6551 1471.9 25.3671 1473.87 26.5193C1475.86 27.6243 1477.73 28.8611 1479.49 30.2297C1481.26 31.5983 1483.08 32.8538 1484.97 33.9964C1486.9 35.0967 1489.14 35.7757 1491.68 36.0334C1494.37 36.3054 1496.74 35.4981 1498.78 33.6115C1500.88 31.6826 1502.08 29.2342 1502.38 26.2665L1514.99 28.6856C1514.24 36.0343 1511.58 41.6657 1506.99 45.5796C1502.46 49.4982 1497.15 51.1498 1491.07 50.5341C1487.82 50.2048 1485.18 49.4853 1483.15 48.3755C1481.13 47.2186 1479.35 45.9678 1477.82 44.623C1476.29 43.2783 1474.65 42.0654 1472.91 40.9842C1471.17 39.856 1468.95 39.1558 1466.27 38.8838C1463.58 38.6118 1461.24 39.445 1459.23 41.3835C1457.28 43.2796 1456.15 45.7116 1455.85 48.6793ZM1674.82 176.428C1671.41 191.385 1665.76 203.695 1657.88 213.357C1649.99 223.02 1640.67 229.731 1629.9 233.492C1619.14 237.253 1607.71 237.754 1595.61 234.995C1583.52 232.236 1573.43 226.829 1565.36 218.772C1557.3 210.715 1551.8 200.623 1548.89 188.497C1545.97 176.37 1546.22 162.829 1549.63 147.872C1553.04 132.915 1558.69 120.606 1566.58 110.943C1574.46 101.281 1583.79 94.5691 1594.55 90.8083C1605.32 87.0475 1616.75 86.5465 1628.84 89.3052C1640.94 92.064 1651.02 97.4718 1659.09 105.529C1667.16 113.586 1672.65 123.677 1675.57 135.804C1678.48 147.93 1678.24 161.472 1674.82 176.428ZM1658.2 172.638C1661.01 160.358 1661.32 149.526 1659.13 140.141C1657 130.767 1652.94 123.115 1646.96 117.186C1641.02 111.267 1633.76 107.328 1625.18 105.37C1616.59 103.411 1608.32 103.807 1600.36 106.556C1592.44 109.316 1585.47 114.451 1579.43 121.962C1573.44 129.483 1569.05 139.383 1566.25 151.663C1563.45 163.942 1563.12 174.769 1565.25 184.143C1567.43 193.528 1571.49 201.18 1577.42 207.099C1583.41 213.028 1590.69 216.972 1599.28 218.93C1607.86 220.889 1616.11 220.488 1624.03 217.728C1631.99 214.979 1638.96 209.844 1644.95 202.323C1650.99 194.812 1655.4 184.917 1658.2 172.638ZM1795.89 296.761L1858.38 165.413L1902.76 186.527C1913.06 191.429 1920.6 197.296 1925.37 204.128C1930.21 210.937 1932.71 218.237 1932.89 226.028C1933.06 233.818 1931.31 241.583 1927.62 249.322C1923.94 257.061 1919.01 263.342 1912.84 268.164C1906.71 273.007 1899.48 275.754 1891.15 276.405C1882.83 277.012 1873.57 274.885 1863.35 270.024L1831.54 254.89L1838.25 240.781L1869.55 255.67C1876.6 259.026 1882.85 260.503 1888.28 260.1C1893.72 259.697 1898.39 257.879 1902.28 254.647C1906.24 251.393 1909.47 247.136 1911.98 241.877C1914.48 236.618 1915.73 231.447 1915.74 226.364C1915.79 221.301 1914.21 216.567 1911.01 212.161C1907.83 207.712 1902.67 203.789 1895.53 200.392L1867.57 187.089L1811.8 304.328L1795.89 296.761ZM1901.25 349.716L1885.53 340.021L2007.36 244.27L2022.83 253.816L1991.92 405.651L1976.2 395.955L2003.49 268.925L2002.53 268.329L1901.25 349.716ZM1936.88 304.939L2000.23 344.019L1992.02 357.317L1928.68 318.237L1936.88 304.939ZM2157.33 488.855C2153.19 484.896 2150.37 480.271 2148.88 474.979C2147.42 469.654 2147.3 464.298 2148.52 458.913C2149.77 453.56 2152.38 448.813 2156.34 444.672C2160.33 440.497 2164.96 437.681 2170.21 436.223C2175.54 434.764 2180.88 434.661 2186.23 435.914C2191.62 437.133 2196.38 439.722 2200.52 443.681C2204.7 447.673 2207.5 452.315 2208.92 457.608C2210.41 462.899 2210.53 468.221 2209.28 473.574C2208.09 478.926 2205.51 483.689 2201.51 487.864C2197.55 492.005 2192.91 494.805 2187.59 496.264C2182.29 497.756 2176.96 497.892 2171.57 496.673C2166.25 495.453 2161.51 492.847 2157.33 488.855ZM2258.36 665.693L2247.96 650.432L2398.24 612.677L2408.48 627.704L2318.34 753.738L2307.95 738.477L2384.67 633.616L2384.03 632.677L2258.36 665.693ZM2309.16 639.338L2351.06 700.852L2338.15 709.649L2296.24 648.136L2309.16 639.338ZM2511.17 809.997L2381.66 876.216L2373.9 861.039L2439.5 738.476L2438.86 737.211L2337.17 789.203L2329.15 773.521L2458.66 707.302L2466.42 722.479L2400.7 845.424L2401.35 846.689L2503.28 794.567L2511.17 809.997ZM2537.72 870.127L2402.81 924.489L2396.22 908.151L2531.14 853.79L2537.72 870.127ZM2554.05 917.484L2559.88 937.682L2457.59 1018.66L2458.06 1020.3L2587.78 1034.3L2593.61 1054.5L2453.86 1094.84L2449.29 1079.01L2555.47 1048.36L2555.07 1047L2436.29 1033.98L2431.88 1018.69L2525.44 944.371L2525.05 943.006L2418.87 973.657L2414.3 957.826L2554.05 917.484ZM2462.07 1135.02L2459.45 1116.74L2611.02 1148.9L2613.61 1166.9L2477.23 1240.46L2474.61 1222.19L2589.62 1161.74L2589.46 1160.61L2462.07 1135.02ZM2519.28 1133.68L2529.88 1207.35L2514.41 1209.58L2503.82 1135.9L2519.28 1133.68ZM2478.56 1262.98L2623.92 1257.88L2624.54 1275.48L2494.79 1280.03L2497.17 1347.61L2481.55 1348.15L2478.56 1262.98ZM2471.41 1491.42L2614.72 1516.32L2606.01 1566.43C2604.28 1576.41 2601.12 1584.34 2596.54 1590.23C2592.01 1596.12 2586.57 1600.15 2580.24 1602.32C2573.95 1604.49 2567.31 1604.97 2560.31 1603.76C2554.15 1602.69 2549.26 1600.71 2545.63 1597.82C2541.99 1594.97 2539.31 1591.58 2537.59 1587.62C2535.87 1583.72 2534.8 1579.62 2534.4 1575.32L2533 1575.08C2531.95 1579.41 2529.65 1583.55 2526.08 1587.5C2522.51 1591.44 2517.85 1594.46 2512.11 1596.53C2506.37 1598.61 2499.72 1598.99 2492.16 1597.68C2484.98 1596.43 2478.8 1593.68 2473.63 1589.41C2468.46 1585.15 2464.81 1579.21 2462.67 1571.58C2460.54 1563.95 2460.45 1554.49 2462.41 1543.2L2471.41 1491.42ZM2483.79 1511.45L2477.81 1545.88C2475.84 1557.21 2476.63 1565.64 2480.19 1571.16C2483.78 1576.74 2488.73 1580.07 2495.03 1581.17C2499.88 1582.01 2504.57 1581.55 2509.11 1579.79C2513.69 1578.04 2517.61 1575.09 2520.88 1570.95C2524.2 1566.82 2526.4 1561.63 2527.48 1555.38L2533.61 1520.11L2483.79 1511.45ZM2548.72 1522.73L2543.13 1554.92C2542.22 1560.15 2542.43 1565.04 2543.75 1569.59C2545.07 1574.19 2547.38 1578.06 2550.68 1581.18C2553.97 1584.34 2558.14 1586.37 2563.18 1587.24C2569.48 1588.34 2575.2 1587.07 2580.34 1583.45C2585.54 1579.83 2588.96 1573.27 2590.62 1563.75L2596.31 1531L2548.72 1522.73ZM2445.45 1624.76L2450.71 1607.06L2574.91 1699.71L2569.72 1717.14L2415.08 1726.87L2420.34 1709.17L2550.1 1702.41L2550.42 1701.32L2445.45 1624.76ZM2497.96 1647.49L2476.75 1718.83L2461.77 1714.38L2482.99 1643.03L2497.96 1647.49ZM2475.65 1863.91C2482.6 1865.96 2489.1 1864.99 2495.14 1860.98C2501.18 1856.98 2505.94 1850.93 2509.41 1842.84C2511.95 1836.92 2513.21 1831.33 2513.2 1826.07C2513.17 1820.85 2512.01 1816.29 2509.72 1812.37C2507.42 1808.5 2504.13 1805.65 2499.87 1803.82C2496.3 1802.29 2492.87 1801.82 2489.57 1802.42C2486.3 1803.08 2483.24 1804.39 2480.38 1806.36C2477.57 1808.35 2474.99 1810.59 2472.63 1813.09C2470.32 1815.6 2468.31 1817.95 2466.59 1820.15L2457.11 1832.16C2454.71 1835.25 2451.78 1838.59 2448.35 1842.16C2444.89 1845.78 2440.93 1848.95 2436.46 1851.67C2432.02 1854.46 2427.1 1856.21 2421.69 1856.93C2416.28 1857.65 2410.44 1856.67 2404.18 1853.98C2396.95 1850.88 2391.24 1846.19 2387.03 1839.91C2382.8 1833.66 2380.52 1826.19 2380.18 1817.5C2379.82 1808.84 2381.84 1799.38 2386.24 1789.11C2390.35 1779.53 2395.45 1771.91 2401.54 1766.22C2407.61 1760.59 2414.27 1756.95 2421.52 1755.32C2428.74 1753.73 2436.12 1754.24 2443.66 1756.85L2436.49 1773.56C2431.26 1771.83 2426.35 1771.74 2421.78 1773.28C2417.22 1774.88 2413.16 1777.62 2409.59 1781.5C2406.05 1785.44 2403.14 1790.07 2400.86 1795.38C2398.22 1801.56 2396.84 1807.53 2396.73 1813.31C2396.67 1819.1 2397.83 1824.21 2400.21 1828.63C2402.63 1833.07 2406.28 1836.34 2411.16 1838.43C2415.59 1840.33 2419.74 1840.64 2423.59 1839.35C2427.44 1838.06 2431.1 1835.77 2434.57 1832.47C2438.05 1829.17 2441.45 1825.45 2444.77 1821.31L2456.52 1806.87C2464 1797.72 2471.83 1791.28 2480.01 1787.58C2488.2 1783.88 2496.79 1783.95 2505.8 1787.82C2513.28 1791.02 2518.94 1795.85 2522.78 1802.28C2526.64 1808.78 2528.64 1816.13 2528.78 1824.33C2528.95 1832.59 2527.2 1840.99 2523.55 1849.52C2519.85 1858.13 2515.03 1865.13 2509.06 1870.51C2503.14 1875.9 2496.69 1879.42 2489.7 1881.06C2482.69 1882.75 2475.77 1882.25 2468.93 1879.58L2475.65 1863.91ZM2354.78 1864.12L2481.44 1935.64L2438.28 2012.08L2424.67 2004.4L2459.17 1943.3L2416.38 1919.13L2384.11 1976.28L2370.5 1968.59L2402.77 1911.45L2359.73 1887.14L2324.67 1949.24L2311.06 1941.55L2354.78 1864.12ZM2225.45 2060.95L2333.57 2158.25L2321.78 2171.35L2273.64 2128.01L2221.75 2185.66L2269.9 2228.99L2258.12 2242.08L2150 2144.78L2161.78 2131.69L2210.14 2175.21L2262.02 2117.56L2213.67 2074.04L2225.45 2060.95ZM2078.78 2304.27C2068.82 2292.6 2062.31 2280.72 2059.27 2268.63C2056.22 2256.53 2056.41 2245.04 2059.81 2234.16C2063.22 2223.28 2069.64 2213.81 2079.08 2205.75C2088.51 2197.7 2098.87 2192.84 2110.15 2191.17C2121.43 2189.51 2132.8 2191.13 2144.27 2196.03C2155.74 2200.92 2166.46 2209.21 2176.42 2220.87C2186.39 2232.54 2192.89 2244.42 2195.93 2256.51C2198.98 2268.61 2198.8 2280.1 2195.39 2290.98C2191.98 2301.86 2185.56 2311.33 2176.12 2319.38C2166.69 2327.44 2156.33 2332.3 2145.05 2333.97C2133.77 2335.63 2122.4 2334.01 2110.93 2329.11C2099.46 2324.21 2088.74 2315.93 2078.78 2304.27ZM2091.74 2293.2C2099.92 2302.77 2108.43 2309.49 2117.26 2313.34C2126.05 2317.22 2134.61 2318.54 2142.94 2317.28C2151.23 2316.05 2158.73 2312.57 2165.42 2306.85C2172.12 2301.14 2176.74 2294.26 2179.29 2286.23C2181.8 2278.24 2181.84 2269.58 2179.42 2260.25C2176.96 2250.96 2171.64 2241.52 2163.46 2231.94C2155.28 2222.37 2146.79 2215.64 2138 2211.75C2129.17 2207.9 2120.61 2206.59 2112.31 2207.82C2103.99 2209.08 2096.47 2212.56 2089.78 2218.28C2083.08 2224 2078.48 2230.86 2075.97 2238.86C2073.42 2246.89 2073.38 2255.55 2075.84 2264.84C2078.26 2274.17 2083.56 2283.62 2091.74 2293.2ZM2085.18 2389.12L2067.4 2400.33L1961.19 2324.56L1959.75 2325.47L1982.32 2453.97L1964.54 2465.18L1886.97 2342.14L1900.9 2333.35L1959.84 2426.83L1961.04 2426.08L1940.56 2308.35L1954.01 2299.87L2051.4 2369.11L2052.6 2368.35L1993.67 2274.87L2007.6 2266.08L2085.18 2389.12ZM1773.32 2474.85C1767.11 2460.82 1764.26 2447.58 1764.8 2435.12C1765.34 2422.66 1768.79 2411.7 1775.16 2402.25C1781.54 2392.79 1790.4 2385.55 1801.74 2380.52C1813.08 2375.5 1824.39 2373.79 1835.68 2375.42C1846.96 2377.05 1857.4 2381.84 1867 2389.81C1876.59 2397.78 1884.5 2408.78 1890.71 2422.81C1896.93 2436.83 1899.77 2450.07 1899.24 2462.53C1898.7 2474.99 1895.25 2485.95 1888.87 2495.41C1882.5 2504.86 1873.64 2512.1 1862.3 2517.13C1850.96 2522.16 1839.65 2523.86 1828.36 2522.23C1817.07 2520.61 1806.63 2515.81 1797.04 2507.84C1787.45 2499.87 1779.54 2488.87 1773.32 2474.85ZM1788.91 2467.94C1794.01 2479.45 1800.24 2488.32 1807.61 2494.53C1814.93 2500.76 1822.76 2504.47 1831.1 2505.64C1839.4 2506.83 1847.57 2505.64 1855.62 2502.07C1863.67 2498.5 1870.06 2493.23 1874.8 2486.26C1879.49 2479.32 1882 2471.03 1882.34 2461.4C1882.64 2451.79 1880.23 2441.23 1875.13 2429.71C1870.03 2418.2 1863.81 2409.33 1856.49 2403.09C1849.13 2396.88 1841.3 2393.18 1833 2391.99C1824.66 2390.82 1816.47 2392.02 1808.41 2395.59C1800.36 2399.16 1793.99 2404.41 1789.3 2411.36C1784.57 2418.33 1782.06 2426.62 1781.76 2436.23C1781.42 2445.86 1783.8 2456.43 1788.91 2467.94ZM1716.17 2418.43L1759.53 2557.27L1742.71 2562.52L1704.01 2438.6L1639.47 2458.75L1634.81 2443.84L1716.17 2418.43ZM1506.8 2542.74C1503.93 2527.67 1504.17 2514.13 1507.52 2502.12C1510.86 2490.1 1516.72 2480.21 1525.07 2472.45C1533.42 2464.69 1543.69 2459.65 1555.88 2457.32C1568.06 2455 1579.47 2455.91 1590.09 2460.06C1600.71 2464.2 1609.79 2471.24 1617.33 2481.18C1624.86 2491.12 1630.07 2503.62 1632.94 2518.69C1635.81 2533.76 1635.57 2547.3 1632.22 2559.32C1628.88 2571.33 1623.02 2581.22 1614.67 2588.98C1606.32 2596.75 1596.05 2601.79 1583.86 2604.11C1571.68 2606.44 1560.27 2605.52 1549.65 2601.38C1539.03 2597.24 1529.95 2590.19 1522.41 2580.25C1514.88 2570.32 1509.67 2557.81 1506.8 2542.74ZM1523.55 2539.55C1525.9 2551.92 1529.96 2561.97 1535.73 2569.69C1541.44 2577.42 1548.23 2582.8 1556.09 2585.84C1563.9 2588.88 1572.13 2589.58 1580.78 2587.93C1589.43 2586.28 1596.85 2582.6 1603.04 2576.89C1609.18 2571.18 1613.51 2563.68 1616.03 2554.38C1618.5 2545.09 1618.55 2534.26 1616.19 2521.89C1613.84 2509.51 1609.8 2499.46 1604.08 2491.73C1598.32 2484.01 1591.53 2478.63 1583.72 2475.59C1575.87 2472.55 1567.61 2471.86 1558.96 2473.51C1550.31 2475.16 1542.91 2478.83 1536.77 2484.54C1530.58 2490.25 1526.25 2497.75 1523.78 2507.04C1521.27 2516.34 1521.19 2527.18 1523.55 2539.55ZM1370.53 2580.22C1372.37 2584.9 1374.68 2589.06 1377.45 2592.69C1380.18 2596.37 1383.37 2599.46 1387.03 2601.95C1390.64 2604.44 1394.68 2606.26 1399.16 2607.42C1403.64 2608.58 1408.5 2609.01 1413.75 2608.7C1422.35 2608.2 1430.04 2605.51 1436.83 2600.66C1443.61 2595.8 1448.82 2588.92 1452.48 2580.03C1456.13 2571.14 1457.58 2560.4 1456.84 2547.83C1456.11 2535.26 1453.38 2524.77 1448.66 2516.37C1443.95 2507.96 1437.87 2501.75 1430.42 2497.73C1422.98 2493.71 1414.76 2491.96 1405.78 2492.49C1397.46 2492.98 1390.24 2495.18 1384.12 2499.1C1377.95 2503.07 1373.28 2508.42 1370.12 2515.15C1366.91 2521.93 1365.57 2529.76 1366.09 2538.65L1360.64 2537.83L1404.31 2535.26L1405.23 2550.86L1349.93 2554.11L1349.01 2538.51C1348.31 2526.56 1350.25 2516.01 1354.83 2506.87C1359.37 2497.73 1365.96 2490.47 1374.61 2485.07C1383.21 2479.73 1393.28 2476.72 1404.82 2476.04C1417.67 2475.29 1429.15 2477.65 1439.24 2483.13C1449.29 2488.61 1457.35 2496.76 1463.44 2507.6C1469.49 2518.44 1472.96 2531.52 1473.86 2546.83C1474.54 2558.32 1473.61 2568.73 1471.07 2578.08C1468.49 2587.48 1464.56 2595.59 1459.27 2602.4C1453.98 2609.21 1447.56 2614.56 1440.01 2618.47C1432.46 2622.38 1424.03 2624.6 1414.72 2625.15C1407.06 2625.6 1399.85 2624.86 1393.1 2622.93C1386.3 2621.06 1380.18 2618.17 1374.73 2614.27C1369.24 2610.42 1364.58 2605.69 1360.74 2600.08C1356.9 2594.52 1354.11 2588.25 1352.38 2581.29L1370.53 2580.22ZM1314.17 2480.51L1332.6 2481.66L1270.27 2623.52L1252.12 2622.39L1207.84 2473.9L1226.27 2475.05L1262.05 2599.95L1263.19 2600.02L1314.17 2480.51ZM1303.84 2536.8L1229.55 2532.18L1230.52 2516.58L1304.81 2521.2L1303.84 2536.8ZM1141.45 2462.14L1185.57 2470.36L1158.91 2613.35L1112.83 2604.76C1098.96 2602.18 1087.63 2597.1 1078.83 2589.54C1070.02 2582.02 1063.98 2572.44 1060.7 2560.8C1057.42 2549.2 1057.16 2536.01 1059.92 2521.21C1062.7 2506.31 1067.74 2493.98 1075.05 2484.22C1082.36 2474.5 1091.62 2467.7 1102.84 2463.82C1114.06 2459.99 1126.93 2459.43 1141.45 2462.14ZM1165.4 2482.5L1139.7 2477.7C1127.88 2475.5 1117.66 2475.95 1109.03 2479.07C1100.41 2482.18 1093.4 2487.59 1088.01 2495.31C1082.63 2503.02 1078.85 2512.69 1076.68 2524.33C1074.53 2535.87 1074.56 2546.16 1076.78 2555.2C1078.98 2564.28 1083.42 2571.75 1090.08 2577.62C1096.73 2583.53 1105.64 2587.53 1116.81 2589.61L1144.46 2594.77L1165.4 2482.5ZM905.704 2472.94C910.456 2458.36 917.196 2446.61 925.924 2437.7C934.653 2428.79 944.548 2422.95 955.609 2420.18C966.67 2417.41 978.099 2417.95 989.894 2421.79C1001.69 2425.63 1011.24 2431.93 1018.55 2440.68C1025.85 2449.44 1030.41 2459.99 1032.22 2472.33C1034.02 2484.67 1032.55 2498.13 1027.8 2512.72C1023.05 2527.3 1016.31 2539.05 1007.58 2547.96C998.849 2556.87 988.954 2562.71 977.892 2565.48C966.831 2568.25 955.403 2567.71 943.608 2563.87C931.812 2560.03 922.261 2553.73 914.955 2544.98C907.648 2536.22 903.091 2525.67 901.285 2513.33C899.479 2500.99 900.952 2487.53 905.704 2472.94ZM921.911 2478.22C918.01 2490.2 916.721 2500.96 918.043 2510.5C919.321 2520.03 922.67 2528.02 928.089 2534.46C933.464 2540.9 940.338 2545.48 948.711 2548.2C957.085 2550.93 965.36 2551.29 973.537 2549.27C981.668 2547.24 989.079 2542.76 995.77 2535.82C1002.42 2528.87 1007.69 2519.41 1011.59 2507.44C1015.49 2495.46 1016.8 2484.71 1015.53 2475.18C1014.2 2465.64 1010.85 2457.65 1005.48 2451.22C1000.06 2444.77 993.164 2440.18 984.79 2437.45C976.416 2434.73 968.164 2434.38 960.032 2436.41C951.855 2438.43 944.444 2442.91 937.799 2449.86C931.108 2456.79 925.812 2466.25 921.911 2478.22ZM741.649 2358.16C746.579 2361.08 750.37 2364.95 753.021 2369.76C755.648 2374.62 756.978 2379.81 757.011 2385.33C757.003 2390.83 755.54 2396.04 752.621 2400.97C749.678 2405.94 745.811 2409.73 741.019 2412.34C736.163 2414.97 730.985 2416.28 725.488 2416.27C719.966 2416.3 714.74 2414.86 709.81 2411.94C704.84 2409 701.061 2405.11 698.475 2400.28C695.823 2395.46 694.502 2390.31 694.51 2384.81C694.453 2379.33 695.896 2374.1 698.839 2369.13C701.757 2364.2 705.645 2360.42 710.501 2357.8C715.317 2355.14 720.486 2353.8 726.008 2353.77C731.464 2353.75 736.678 2355.22 741.649 2358.16Z" fill="#2D5A87"/>
</svg>
