<svg width="2684" height="2684" viewBox="0 0 2684 2684" fill="none" xmlns="http://www.w3.org/2000/svg">
<circle cx="1342" cy="1342" r="1342" fill="#F4D14B"/>
<circle cx="1342" cy="1342" r="1048" fill="#FFF9E5"/>
<path fill-rule="evenodd" clip-rule="evenodd" d="M1152.79 1797.22L1152.79 1797.22C1152.56 1780.94 1151.22 1685.25 1152.82 1683.64C1153.08 1683.38 1154.47 1681.88 1156.66 1679.52L1156.66 1679.52C1169.04 1666.16 1206.94 1625.29 1210.4 1625.29C1210.4 1625.29 1470.33 1626.06 1472.08 1626.06C1473.83 1626.06 1529.66 1681.89 1529.66 1682.86C1529.66 1683.34 1529.66 1711.37 1529.66 1739.83C1529.66 1769.12 1529.66 1798.87 1529.66 1799.56C1529.66 1800.92 1429.83 1900.55 1428.67 1900.55H1350.61H1253.81C1252.45 1900.55 1152.82 1800.52 1152.82 1799.56C1152.82 1799.48 1152.81 1798.66 1152.79 1797.22ZM1287.08 1718.05C1301.52 1739.31 1300.3 1765.31 1284.35 1776.14C1268.41 1786.97 1243.79 1778.51 1229.35 1757.25C1214.92 1736 1216.14 1709.99 1232.08 1699.16C1248.03 1688.34 1272.65 1696.79 1287.08 1718.05ZM1399.57 1776.14C1383.62 1765.31 1382.4 1739.31 1396.84 1718.05C1411.27 1696.79 1435.89 1688.34 1451.84 1699.16C1467.78 1709.99 1469 1736 1454.57 1757.25C1440.13 1778.51 1415.51 1786.97 1399.57 1776.14Z" fill="#D3A215"/>
<path fill-rule="evenodd" clip-rule="evenodd" d="M1091.56 1733.06V1660.95C1112.15 1607.05 1133.68 1586.82 1186.94 1565.58H1312.55V886.35H1114.83C1049.69 886.35 982.235 953.808 982.235 1056.16H779.862C733.339 1038.32 660.299 978.93 740.318 884.024C772.884 852.233 844.064 787.722 868.255 784C807.776 784 672.86 808.192 617.033 904.959C561.206 1001.73 604.627 1100.35 633.316 1137.57C695.059 1197.54 781.222 1197.02 948.026 1196.01C971.028 1195.87 995.564 1195.73 1021.78 1195.73V1363.21L970.606 1414.38V1593.49C976.033 1611.33 1007.82 1664.21 1091.56 1733.06ZM1091.56 1339.95V1288.77C1121.8 1284.12 1180.89 1296.22 1175.31 1381.82L1147.04 1381.82L1124.13 1381.82C1121.8 1381.82 1091.56 1342.28 1091.56 1339.95Z" fill="#D3A215"/>
<path fill-rule="evenodd" clip-rule="evenodd" d="M1591.68 1733.07V1660.96C1571.1 1607.05 1549.57 1586.82 1496.31 1565.58H1370.7V886.353H1568.42C1633.55 886.353 1701.01 953.811 1701.01 1056.16H1903.39C1949.91 1038.33 2022.95 978.933 1942.93 884.026C1910.36 852.236 1839.18 787.725 1814.99 784.003C1875.47 784.003 2010.39 808.195 2066.21 904.962C2122.04 1001.73 2078.62 1100.36 2049.93 1137.58C1988.19 1197.54 1902.03 1197.02 1735.22 1196.02C1712.22 1195.88 1687.68 1195.73 1661.47 1195.73V1363.21L1712.64 1414.39V1593.5C1707.21 1611.33 1675.43 1664.21 1591.68 1733.07ZM1594.38 1339.95V1288.78C1564.14 1284.12 1505.06 1296.22 1510.64 1381.82C1510.64 1381.82 1559.49 1381.82 1561.81 1381.82C1564.14 1381.82 1594.38 1342.28 1594.38 1339.95Z" fill="#D3A215"/>
<path d="M958.975 1253.88H817.081C773.511 1288.03 754.341 1309.76 726.361 1351.58C831.896 1433.84 882.64 1426.03 958.975 1321.34V1253.88Z" fill="#D3A215"/>
<path d="M1724.27 1253.88H1866.17C1909.73 1288.03 1928.9 1309.76 1956.88 1351.58C1851.35 1433.84 1800.61 1426.03 1724.27 1321.34V1253.88Z" fill="#D3A215"/>
<path d="M1103.72 2498C1109.33 2499.15 1114.18 2501.57 1118.25 2505.26C1122.32 2508.99 1125.27 2513.47 1127.1 2518.68C1128.89 2523.88 1129.2 2529.28 1128.05 2534.89C1126.89 2540.55 1124.47 2545.4 1120.79 2549.43C1117.06 2553.49 1112.59 2556.42 1107.39 2558.2C1102.18 2560.04 1096.77 2560.38 1091.16 2559.22C1085.5 2558.06 1080.66 2555.62 1076.64 2551.89C1072.56 2548.21 1069.63 2543.76 1067.85 2538.56C1066.01 2533.4 1065.67 2527.99 1066.83 2522.33C1067.98 2516.72 1070.42 2511.88 1074.16 2507.81C1077.84 2503.73 1082.29 2500.78 1087.5 2498.95C1092.66 2497.16 1098.06 2496.84 1103.72 2498ZM731.657 2430.5C729.056 2437.27 729.509 2443.82 733.017 2450.17C736.525 2456.51 742.174 2461.74 749.966 2465.84C755.662 2468.84 761.133 2470.55 766.377 2470.96C771.579 2471.34 776.223 2470.55 780.311 2468.59C784.356 2466.6 787.46 2463.55 789.623 2459.44C791.433 2456.01 792.173 2452.63 791.841 2449.29C791.446 2445.98 790.38 2442.82 788.644 2439.82C786.885 2436.86 784.858 2434.11 782.561 2431.56C780.243 2429.05 778.055 2426.86 775.998 2424.97L764.783 2414.56C761.896 2411.92 758.808 2408.74 755.519 2405.03C752.189 2401.29 749.345 2397.09 746.988 2392.42C744.566 2387.77 743.213 2382.73 742.926 2377.28C742.64 2371.83 744.086 2366.09 747.265 2360.05C750.929 2353.1 756.062 2347.78 762.664 2344.09C769.224 2340.37 776.853 2338.69 785.55 2339.05C794.206 2339.38 803.476 2342.15 813.362 2347.36C822.578 2352.21 829.774 2357.91 834.951 2364.43C840.086 2370.94 843.179 2377.87 844.229 2385.22C845.238 2392.55 844.139 2399.86 840.934 2407.16L824.848 2398.69C826.99 2393.61 827.475 2388.73 826.304 2384.04C825.069 2379.38 822.661 2375.11 819.08 2371.24C815.434 2367.4 811.056 2364.13 805.946 2361.43C799.997 2358.3 794.149 2356.45 788.4 2355.88C782.629 2355.36 777.445 2356.1 772.849 2358.12C768.23 2360.18 764.684 2363.56 762.212 2368.25C759.961 2372.53 759.323 2376.63 760.298 2380.57C761.273 2384.51 763.267 2388.34 766.279 2392.07C769.292 2395.8 772.729 2399.48 776.591 2403.12L790.041 2415.99C798.572 2424.18 804.356 2432.5 807.395 2440.95C810.435 2449.4 809.67 2457.96 805.101 2466.64C801.304 2473.84 796.045 2479.1 789.324 2482.41C782.539 2485.74 775.054 2487.14 766.869 2486.63C758.619 2486.14 750.389 2483.73 742.179 2479.4C733.885 2475.03 727.296 2469.66 722.412 2463.28C717.507 2456.95 714.515 2450.24 713.438 2443.14C712.319 2436.02 713.365 2429.16 716.577 2422.56L731.657 2430.5ZM741.094 2310.01L659.751 2430.59L586.977 2381.5L595.715 2368.55L653.887 2407.79L681.372 2367.05L626.968 2330.35L635.706 2317.39L690.11 2354.09L717.754 2313.11L658.64 2273.24L667.378 2260.28L741.094 2310.01ZM643.09 2241.81L550.255 2353.78L536.695 2342.54L619.557 2242.59L567.506 2199.44L577.478 2187.41L643.09 2241.81ZM424.76 2134.06C435.823 2123.44 447.302 2116.25 459.198 2112.5C471.094 2108.76 482.573 2108.27 493.636 2111.03C504.698 2113.8 514.526 2119.66 523.12 2128.6C531.715 2137.55 537.172 2147.6 539.494 2158.77C541.815 2169.93 540.865 2181.38 536.645 2193.12C532.425 2204.85 524.783 2216.04 513.72 2226.66C502.657 2237.29 491.178 2244.48 479.282 2248.23C467.385 2251.97 455.906 2252.46 444.844 2249.7C433.782 2246.93 423.953 2241.07 415.359 2232.13C406.765 2223.18 401.307 2213.13 398.986 2201.96C396.665 2190.8 397.614 2179.35 401.835 2167.61C406.055 2155.87 413.697 2144.69 424.76 2134.06ZM436.568 2146.36C427.486 2155.08 421.28 2163.97 417.951 2173.01C414.589 2182.01 413.78 2190.64 415.524 2198.88C417.234 2207.08 421.14 2214.36 427.242 2220.71C433.343 2227.06 440.475 2231.27 448.638 2233.35C456.768 2235.38 465.417 2234.92 474.585 2231.96C483.72 2228.96 492.829 2223.1 501.911 2214.37C510.994 2205.65 517.216 2196.78 520.578 2187.77C523.907 2178.73 524.716 2170.11 523.005 2161.9C521.262 2153.66 517.339 2146.37 511.238 2140.02C505.137 2133.67 498.021 2129.47 489.891 2127.43C481.728 2125.36 473.079 2125.82 463.944 2128.82C454.776 2131.79 445.651 2137.63 436.568 2146.36ZM346.22 1895.6L216.315 1961.03L193.438 1915.62C188.88 1906.57 186.685 1898.32 186.854 1890.86C186.98 1883.43 188.94 1876.96 192.736 1871.44C196.488 1865.94 201.536 1861.6 207.879 1858.4C213.461 1855.59 218.571 1854.26 223.209 1854.42C227.825 1854.53 232 1855.66 235.733 1857.81C239.445 1859.92 242.746 1862.58 245.635 1865.79L246.904 1865.15C245.155 1861.04 244.538 1856.35 245.051 1851.05C245.565 1845.76 247.508 1840.56 250.881 1835.47C254.254 1830.38 259.366 1826.11 266.216 1822.66C272.728 1819.38 279.331 1817.91 286.023 1818.25C292.715 1818.59 299.192 1821.18 305.453 1826.03C311.714 1830.88 317.422 1838.43 322.577 1848.66L346.22 1895.6ZM324.342 1886.9L308.622 1855.69C303.446 1845.41 297.784 1839.12 291.636 1836.81C285.425 1834.48 279.465 1834.75 273.757 1837.63C269.359 1839.84 265.864 1843.01 263.271 1847.12C260.637 1851.26 259.243 1855.96 259.089 1861.24C258.893 1866.53 260.222 1872.01 263.076 1877.68L279.179 1909.65L324.342 1886.9ZM265.478 1916.55L250.781 1887.37C248.395 1882.63 245.314 1878.83 241.536 1875.96C237.737 1873.05 233.582 1871.33 229.07 1870.79C224.537 1870.21 219.987 1871.07 215.42 1873.37C209.711 1876.25 205.87 1880.67 203.898 1886.65C201.883 1892.65 203.048 1899.96 207.393 1908.59L222.346 1938.27L265.478 1916.55ZM120.609 1737.78L114.673 1721.2L205.347 1688.75C214.708 1685.4 223.857 1684.61 232.792 1686.39C241.667 1688.14 249.65 1692.25 256.741 1698.71C263.787 1705.19 269.233 1713.81 273.079 1724.55C276.924 1735.29 278.18 1745.4 276.845 1754.88C275.466 1764.38 271.911 1772.64 266.18 1779.67C260.388 1786.67 252.811 1791.85 243.45 1795.2L152.776 1827.66L146.841 1811.07L236.177 1779.1C242.864 1776.7 248.288 1773.1 252.451 1768.29C256.569 1763.5 259.148 1757.85 260.188 1751.34C261.168 1744.8 260.294 1737.72 257.565 1730.1C254.837 1722.48 251.02 1716.45 246.115 1712.02C241.166 1707.61 235.587 1704.88 229.379 1703.83C223.11 1702.76 216.632 1703.41 209.945 1705.81L120.609 1737.78ZM241.784 1638.59L100.043 1671.24L80.4623 1586.25L95.6884 1582.75L111.314 1650.57L159.208 1639.54L145.048 1578.08L160.275 1574.57L174.434 1636.03L237.83 1621.42L241.784 1638.59ZM217.234 1523.94L72.881 1541.8L62.17 1455.24L77.6767 1453.33L86.2246 1522.4L135 1516.37L127.255 1453.77L142.762 1451.86L150.507 1514.45L215.071 1506.46L217.234 1523.94ZM94.2862 1329.66C87.1045 1330.63 81.5761 1334.18 77.7008 1340.3C73.8255 1346.43 71.9616 1353.9 72.109 1362.7C72.2168 1369.14 73.3526 1374.76 75.5165 1379.55C77.6796 1384.3 80.6064 1387.99 84.2969 1390.63C87.9866 1393.22 92.1512 1394.47 96.7907 1394.4C100.673 1394.33 103.995 1393.35 106.757 1391.46C109.471 1389.52 111.727 1387.07 113.524 1384.1C115.274 1381.13 116.714 1378.03 117.843 1374.79C118.926 1371.55 119.799 1368.58 120.464 1365.87L124.194 1351.03C125.124 1347.23 126.427 1342.99 128.101 1338.32C129.774 1333.61 132.09 1329.09 135.048 1324.78C137.959 1320.42 141.734 1316.81 146.374 1313.94C151.014 1311.07 156.743 1309.57 163.56 1309.46C171.419 1309.33 178.555 1311.27 184.967 1315.28C191.379 1319.25 196.521 1325.13 200.393 1332.92C204.264 1340.67 206.292 1350.13 206.479 1361.3C206.654 1371.72 205.124 1380.77 201.891 1388.44C198.656 1396.08 194.069 1402.12 188.13 1406.58C182.189 1410.98 175.247 1413.54 167.303 1414.24L166.999 1396.06C172.483 1395.5 176.997 1393.57 180.541 1390.29C184.037 1386.97 186.619 1382.8 188.287 1377.8C189.907 1372.76 190.669 1367.35 190.573 1361.57C190.46 1354.85 189.27 1348.83 187.003 1343.52C184.688 1338.2 181.54 1334.02 177.558 1330.96C173.529 1327.9 168.864 1326.42 163.561 1326.51C158.733 1326.59 154.826 1328 151.841 1330.75C148.856 1333.5 146.454 1337.09 144.634 1341.53C142.814 1345.96 141.237 1350.75 139.902 1355.88L135.089 1373.87C132.012 1385.28 127.5 1394.35 121.551 1401.08C115.602 1407.81 107.728 1411.26 97.9282 1411.42C89.7854 1411.56 82.6473 1409.48 76.5138 1405.18C70.3322 1400.83 65.4982 1394.94 62.0117 1387.52C58.477 1380.05 56.632 1371.67 56.4767 1362.4C56.3198 1353.02 57.8609 1344.66 61.1001 1337.31C64.292 1329.97 68.7401 1324.12 74.4445 1319.76C80.1481 1315.35 86.6669 1312.97 94.0009 1312.61L94.2862 1329.66ZM202.542 1033.97C201.05 1039.5 198.339 1044.19 194.409 1048.03C190.433 1051.87 185.79 1054.54 180.479 1056.05C175.18 1057.51 169.764 1057.5 164.233 1056C158.656 1054.5 153.968 1051.79 150.169 1047.87C146.338 1043.9 143.69 1039.26 142.225 1033.96C140.715 1028.65 140.706 1023.23 142.198 1017.7C143.702 1012.12 146.436 1007.44 150.399 1003.65C154.329 999.807 158.944 997.152 164.243 995.688C169.508 994.166 174.93 994.157 180.507 995.661C186.039 997.153 190.72 999.886 194.552 1003.86C198.396 1007.79 201.073 1012.41 202.583 1017.72C204.06 1022.98 204.046 1028.39 202.542 1033.97ZM321.151 639.288L311.891 654.27C307.034 652.493 302.289 651.703 297.658 651.902C293.051 652.06 288.669 653.026 284.512 654.798C280.34 656.505 276.52 658.903 273.052 661.992C269.584 665.081 266.581 668.68 264.042 672.788C259.411 680.279 257.11 688.236 257.137 696.658C257.188 705.039 259.792 713.3 264.947 721.44C270.126 729.54 278.073 736.901 288.787 743.523C299.5 750.145 309.637 753.961 319.198 754.973C328.785 755.944 337.338 754.578 344.858 750.877C352.403 747.135 358.49 741.519 363.121 734.028C365.66 729.92 367.536 725.624 368.748 721.141C369.96 716.658 370.417 712.181 370.119 707.711C369.805 703.175 368.689 698.812 366.771 694.62C364.838 690.364 362.01 686.473 358.289 682.948L367.549 667.966C373.176 673.002 377.565 678.554 380.717 684.621C383.869 690.688 385.828 697.02 386.593 703.616C387.319 710.187 386.883 716.792 385.284 723.43C383.711 730.028 380.995 736.448 377.137 742.691C370.614 753.243 362.236 761.034 352.003 766.064C341.769 771.094 330.443 773.027 318.025 771.865C305.608 770.702 292.874 766.088 279.825 758.022C266.775 749.956 256.954 740.63 250.362 730.042C243.769 719.455 240.434 708.46 240.358 697.057C240.281 685.655 243.503 674.677 250.026 664.125C253.884 657.882 258.413 652.582 263.611 648.225C268.834 643.827 274.566 640.496 280.809 638.231C287.011 635.942 293.53 634.85 300.366 634.957C307.162 635.038 314.091 636.482 321.151 639.288ZM422.813 668.922L308.864 578.52L319.811 564.721L421.52 645.412L463.542 592.443L475.783 602.155L422.813 668.922ZM504.083 570.723L491.061 583.816L425.593 443.376L438.414 430.485L579.209 495.187L566.187 508.28L448.72 452.755L447.919 453.56L504.083 570.723ZM468.605 525.822L521.093 473.048L532.172 484.066L479.684 536.84L468.605 525.822ZM590.58 345.795C585.424 340.703 579.237 338.493 572.019 339.166C564.801 339.838 557.751 342.922 550.868 348.416C545.836 352.434 542.082 356.763 539.608 361.404C537.17 366.016 536.034 370.589 536.199 375.122C536.402 379.625 537.95 383.69 540.845 387.316C543.268 390.351 546.072 392.383 549.258 393.415C552.451 394.379 555.771 394.667 559.217 394.279C562.634 393.854 565.97 393.099 569.225 392.015C572.45 390.895 575.339 389.77 577.891 388.641L591.917 382.533C595.498 380.947 599.648 379.391 604.367 377.865C609.124 376.31 614.112 375.387 619.333 375.097C624.562 374.74 629.73 375.522 634.837 377.442C639.945 379.363 644.626 382.987 648.879 388.316C653.783 394.458 656.604 401.294 657.343 408.822C658.12 416.321 656.603 423.984 652.794 431.811C649.022 439.608 642.77 446.993 634.037 453.964C625.896 460.463 617.798 464.777 609.743 466.906C601.726 469.005 594.139 469.063 586.983 467.082C579.864 465.07 573.601 461.134 568.194 455.271L582.404 443.928C586.2 447.925 590.479 450.325 595.241 451.129C600.009 451.866 604.883 451.368 609.861 449.636C614.847 447.836 619.597 445.135 624.112 441.531C629.366 437.336 633.405 432.719 636.227 427.679C639.02 422.602 640.412 417.552 640.402 412.532C640.363 407.474 638.689 402.872 635.381 398.728C632.368 394.954 628.861 392.724 624.862 392.04C620.862 391.355 616.55 391.647 611.928 392.914C607.305 394.181 602.552 395.854 597.669 397.935L580.492 405.104C569.572 409.641 559.632 411.609 550.67 411.008C541.709 410.407 534.171 406.277 528.056 398.617C522.975 392.252 520.265 385.328 519.925 377.844C519.592 370.294 521.301 362.872 525.05 355.577C528.807 348.216 534.311 341.641 541.564 335.851C548.891 330.002 556.452 326.116 564.248 324.194C572.014 322.236 579.365 322.184 586.299 324.04C593.27 325.866 599.138 329.573 603.901 335.161L590.58 345.795ZM706.428 268.057C701.873 262.42 695.971 259.534 688.723 259.397C681.475 259.26 674.125 261.538 666.672 266.23C661.223 269.661 657.01 273.545 654.033 277.881C651.096 282.192 649.457 286.609 649.115 291.132C648.814 295.63 649.899 299.842 652.371 303.769C654.44 307.055 657 309.387 660.051 310.768C663.117 312.083 666.384 312.739 669.852 312.738C673.295 312.696 676.694 312.319 680.049 311.605C683.379 310.851 686.375 310.056 689.038 309.219L703.658 304.714C707.393 303.537 711.691 302.454 716.551 301.464C721.451 300.45 726.512 300.089 731.733 300.383C736.968 300.612 742.017 301.965 746.878 304.444C751.74 306.922 755.987 311.046 759.619 316.816C763.807 323.467 765.848 330.575 765.742 338.139C765.677 345.678 763.315 353.124 758.657 360.477C754.038 367.804 747.001 374.445 737.545 380.399C728.73 385.949 720.201 389.332 711.959 390.549C703.757 391.74 696.211 390.952 689.321 388.184C682.471 385.391 676.686 380.78 671.967 374.351L687.353 364.664C690.68 369.06 694.665 371.922 699.307 373.252C703.964 374.517 708.862 374.566 714.003 373.4C719.158 372.168 724.18 370.013 729.068 366.936C734.758 363.353 739.287 359.215 742.654 354.522C745.996 349.788 747.943 344.926 748.493 339.935C749.019 334.904 747.869 330.145 745.043 325.657C742.47 321.57 739.234 318.964 735.336 317.837C731.438 316.711 727.121 316.519 722.385 317.263C717.65 318.006 712.74 319.139 707.656 320.661L689.785 325.87C678.428 329.159 668.33 330.006 659.492 328.409C650.653 326.812 643.623 321.866 638.401 313.572C634.062 306.68 632.141 299.497 632.638 292.022C633.15 284.482 635.676 277.296 640.216 270.466C644.771 263.57 650.975 257.649 658.828 252.705C666.762 247.71 674.709 244.692 682.671 243.652C690.607 242.572 697.918 243.341 704.601 245.959C711.325 248.552 716.742 252.89 720.853 258.975L706.428 268.057ZM753.856 199.045L821.402 327.865L805.803 336.044L738.256 207.225L753.856 199.045ZM853.245 312.664L795.579 179.129L875.647 144.551L881.842 158.896L817.943 186.49L837.429 231.61L895.328 206.606L901.523 220.951L843.623 245.955L869.416 305.68L853.245 312.664ZM930.604 124.145L978.087 261.631L961.438 267.38L913.955 129.894L930.604 124.145ZM1101.22 126.193L1084.13 130.463C1081.89 125.8 1079.04 121.924 1075.58 118.834C1072.17 115.733 1068.36 113.367 1064.15 111.736C1059.97 110.047 1055.56 109.099 1050.92 108.892C1046.28 108.685 1041.62 109.167 1036.93 110.337C1028.39 112.472 1021.19 116.565 1015.33 122.616C1009.52 128.656 1005.62 136.39 1003.63 145.818C1001.69 155.234 1002.24 166.052 1005.3 178.271C1008.35 190.49 1012.95 200.298 1019.09 207.694C1025.28 215.079 1032.36 220.069 1040.33 222.666C1048.34 225.25 1056.62 225.475 1065.17 223.34C1069.85 222.17 1074.19 220.402 1078.19 218.037C1082.19 215.671 1085.64 212.784 1088.54 209.373C1091.48 205.906 1093.73 202.001 1095.28 197.661C1096.87 193.263 1097.56 188.503 1097.35 183.381L1114.44 179.111C1114.95 186.645 1114.22 193.684 1112.25 200.23C1110.27 206.775 1107.26 212.677 1103.2 217.936C1099.14 223.149 1094.21 227.576 1088.44 231.215C1082.71 234.843 1076.28 237.547 1069.16 239.326C1057.13 242.333 1045.69 242.068 1034.85 238.53C1024.01 234.991 1014.55 228.473 1006.46 218.975C998.38 209.477 992.479 197.286 988.76 182.403C985.041 167.52 984.515 153.986 987.18 141.802C989.846 129.618 995.13 119.416 1003.03 111.194C1010.93 102.973 1020.9 97.3588 1032.94 94.3515C1040.06 92.5724 1047 91.936 1053.76 92.4421C1060.57 92.9367 1067 94.551 1073.06 97.2848C1079.1 99.9728 1084.53 103.74 1089.35 108.587C1094.16 113.388 1098.12 119.256 1101.22 126.193ZM1159.28 217.682L1140.96 219.971L1175.92 69.0176L1193.97 66.7637L1264.99 204.476L1246.67 206.765L1188.36 90.6541L1187.23 90.7949L1159.28 217.682ZM1159 160.457L1232.86 151.23L1234.8 166.734L1160.94 175.961L1159 160.457ZM1397.27 103.992L1379.66 104.086C1378.59 99.0248 1376.74 94.5838 1374.12 90.7625C1371.54 86.9409 1368.4 83.7379 1364.69 81.1534C1361.03 78.5213 1356.97 76.5542 1352.51 75.2522C1348.06 73.9501 1343.41 73.3119 1338.58 73.3376C1329.78 73.3844 1321.81 75.6522 1314.69 80.1409C1307.61 84.6294 1301.98 91.2171 1297.82 99.9042C1293.7 108.591 1291.67 119.232 1291.74 131.826C1291.8 144.421 1293.94 155.039 1298.15 163.682C1302.41 172.324 1308.11 178.852 1315.23 183.264C1322.41 187.677 1330.4 189.86 1339.2 189.813C1344.03 189.788 1348.67 189.1 1353.11 187.751C1357.56 186.401 1361.59 184.415 1365.23 181.791C1368.91 179.12 1372.01 175.86 1374.55 172.011C1377.13 168.115 1378.93 163.655 1379.95 158.63L1397.56 158.537C1396.27 165.977 1393.9 172.642 1390.42 178.532C1386.95 184.422 1382.62 189.44 1377.43 193.587C1372.25 197.687 1366.42 200.819 1359.94 202.984C1353.51 205.149 1346.63 206.251 1339.29 206.29C1326.89 206.356 1315.84 203.385 1306.15 197.375C1296.46 191.366 1288.81 182.789 1283.21 171.645C1277.61 160.5 1274.77 147.258 1274.69 131.917C1274.61 116.576 1277.31 103.304 1282.79 92.1005C1288.27 80.8969 1295.82 72.2392 1305.45 66.1273C1315.08 60.0154 1326.09 56.9265 1338.5 56.8605C1345.84 56.8215 1352.73 57.8502 1359.18 59.9466C1365.68 62.0428 1371.54 65.1366 1376.77 69.2282C1382 73.2724 1386.39 78.2208 1389.92 84.0733C1393.46 89.8784 1395.91 96.5179 1397.27 103.992ZM1331.9 204.909L1345.82 204.835L1344.71 210.523C1348.41 211.071 1351.8 212.592 1354.89 215.085C1357.98 217.626 1359.54 221.666 1359.57 227.205C1359.61 233.313 1357.1 238.298 1352.05 242.16C1347.05 246.07 1339.66 248.05 1329.85 248.102L1329.23 237.026C1333.63 237.003 1337.27 236.273 1340.15 234.837C1343.08 233.449 1344.54 231.121 1344.52 227.854C1344.5 224.587 1343.28 222.368 1340.86 221.197C1338.44 220.026 1334.53 219.242 1329.13 218.844L1331.9 204.909ZM1431.98 206.604L1413.63 204.512L1483.17 66.0431L1501.24 68.1024L1537.83 218.67L1519.48 216.579L1490.16 90.0004L1489.03 89.8717L1431.98 206.604ZM1445.19 150.924L1519.14 159.354L1517.37 174.878L1443.42 166.448L1445.19 150.924ZM1472.11 50.1997L1459.19 48.1551C1460.01 40.9574 1462.73 35.3102 1467.34 31.2135C1472.01 27.0751 1477.38 25.3519 1483.44 26.0437C1486.13 26.3493 1488.45 27.0906 1490.41 28.2674C1492.38 29.3972 1494.24 30.6574 1495.98 32.048C1497.73 33.4386 1499.54 34.717 1501.41 35.8831C1503.33 37.0075 1505.56 37.7146 1508.1 38.0041C1510.78 38.3098 1513.16 37.5323 1515.23 35.6715C1517.35 33.769 1518.58 31.3359 1518.92 28.3722L1531.49 30.9492C1530.66 38.288 1527.92 43.8855 1523.29 47.7416C1518.7 51.603 1513.37 53.1879 1507.31 52.4961C1504.06 52.126 1501.43 51.3735 1499.41 50.2383C1497.4 49.0561 1495.64 47.7831 1494.13 46.4193C1492.62 45.0555 1491 43.8221 1489.26 42.7191C1487.54 41.5691 1485.33 40.8413 1482.65 40.5356C1479.97 40.2299 1477.61 41.0337 1475.58 42.9468C1473.61 44.8183 1472.45 47.236 1472.11 50.1997ZM1689.47 180.705C1685.87 195.617 1680.06 207.854 1672.06 217.416C1664.05 226.978 1654.64 233.571 1643.83 237.195C1633.01 240.819 1621.58 241.175 1609.52 238.263C1597.46 235.351 1587.45 229.816 1579.48 221.658C1571.52 213.499 1566.15 203.339 1563.39 191.176C1560.63 179.014 1561.05 165.477 1564.65 150.564C1568.25 135.652 1574.05 123.415 1582.06 113.853C1590.07 104.291 1599.48 97.6986 1610.29 94.0745C1621.1 90.4504 1632.54 90.0942 1644.6 93.006C1656.65 95.9178 1666.67 101.453 1674.63 109.611C1682.6 117.77 1687.96 127.93 1690.73 140.093C1693.49 152.255 1693.07 165.792 1689.47 180.705ZM1672.9 176.704C1675.86 164.461 1676.3 153.634 1674.24 144.222C1672.22 134.821 1668.26 127.118 1662.36 121.114C1656.5 115.12 1649.29 111.09 1640.73 109.023C1632.17 106.956 1623.89 107.246 1615.89 109.895C1607.95 112.554 1600.91 117.6 1594.78 125.034C1588.69 132.479 1584.17 142.322 1581.22 154.565C1578.26 166.808 1577.79 177.63 1579.81 187.031C1581.87 196.442 1585.83 204.145 1591.69 210.139C1597.59 216.143 1604.83 220.179 1613.39 222.246C1621.95 224.313 1630.2 224.017 1638.15 221.358C1646.15 218.71 1653.19 213.663 1659.27 206.218C1665.4 198.785 1669.94 188.947 1672.9 176.704ZM1883.87 339.75L1958.25 214.748L2000.48 239.878C2010.29 245.713 2017.25 252.252 2021.37 259.497C2025.56 266.724 2027.37 274.225 2026.83 281.998C2026.28 289.771 2023.81 297.34 2019.43 304.705C2015.05 312.07 2009.56 317.868 2002.97 322.099C1996.41 326.354 1988.96 328.419 1980.6 328.296C1972.27 328.132 1963.24 325.157 1953.52 319.37L1923.24 301.358L1931.23 287.93L1961.02 305.652C1967.73 309.647 1973.81 311.695 1979.26 311.796C1984.71 311.898 1989.53 310.52 1993.71 307.663C1997.95 304.789 2001.56 300.849 2004.54 295.844C2007.52 290.839 2009.24 285.806 2009.72 280.746C2010.24 275.709 2009.11 270.849 2006.33 266.166C2003.58 261.442 1998.8 257.059 1992.01 253.016L1965.39 237.182L1899.01 348.756L1883.87 339.75ZM2145.48 398.538L2131.53 387.793C2133.79 383.143 2135.06 378.504 2135.34 373.877C2135.65 369.278 2135.14 364.82 2133.8 360.504C2132.53 356.179 2130.54 352.133 2127.82 348.368C2125.1 344.602 2121.83 341.246 2118 338.3C2111.03 332.927 2103.35 329.823 2094.97 328.988C2086.62 328.182 2078.14 329.926 2069.51 334.221C2060.93 338.544 2052.79 345.696 2045.11 355.675C2037.42 365.655 2032.59 375.348 2030.61 384.756C2028.66 394.192 2029.14 402.84 2032.05 410.7C2035 418.588 2039.97 425.218 2046.95 430.591C2050.77 433.537 2054.85 435.843 2059.19 437.508C2063.52 439.172 2067.93 440.085 2072.41 440.246C2076.95 440.398 2081.41 439.734 2085.77 438.255C2090.2 436.768 2094.36 434.353 2098.25 431.012L2112.21 441.757C2106.62 446.839 2100.65 450.637 2094.29 453.151C2087.93 455.666 2081.44 456.966 2074.8 457.053C2068.18 457.102 2061.66 455.992 2055.22 453.723C2048.82 451.483 2042.71 448.124 2036.89 443.647C2027.06 436.079 2020.17 426.948 2016.22 416.253C2012.26 405.558 2011.49 394.094 2013.92 381.86C2016.35 369.627 2022.24 357.432 2031.6 345.277C2040.96 333.121 2051.24 324.306 2062.45 318.832C2073.66 313.358 2084.93 311.166 2096.29 312.256C2107.64 313.346 2118.23 317.676 2128.06 325.244C2133.87 329.721 2138.68 334.768 2142.48 340.385C2146.32 346.03 2149.05 352.074 2150.66 358.515C2152.31 364.919 2152.72 371.515 2151.92 378.305C2151.14 385.057 2149 391.801 2145.48 398.538ZM2297.96 649.958C2294.6 645.32 2292.66 640.264 2292.14 634.791C2291.66 629.29 2292.51 624 2294.67 618.921C2296.86 613.88 2300.28 609.678 2304.92 606.315C2309.6 602.925 2314.65 600.984 2320.09 600.494C2325.59 600.015 2330.86 600.872 2335.9 603.066C2340.98 605.232 2345.2 608.634 2348.56 613.272C2351.95 617.949 2353.87 623.018 2354.33 628.481C2354.84 633.954 2354 639.211 2351.81 644.252C2349.68 649.304 2346.28 653.525 2341.6 656.915C2336.97 660.278 2331.9 662.199 2326.4 662.679C2320.92 663.196 2315.65 662.372 2310.57 660.206C2305.55 658.051 2301.35 654.635 2297.96 649.958ZM2397.53 912.83L2534.36 863.495L2551.03 909.729C2554.9 920.464 2556.13 929.937 2554.71 938.149C2553.35 946.39 2549.99 953.338 2544.63 958.995C2539.27 964.652 2532.56 968.934 2524.5 971.841C2516.44 974.747 2508.52 975.741 2500.74 974.822C2492.97 973.947 2485.9 970.809 2479.52 965.407C2473.19 959.99 2468.11 951.958 2464.27 941.312L2452.32 908.173L2467.02 902.874L2478.77 935.478C2481.42 942.828 2484.82 948.272 2488.97 951.811C2493.11 955.349 2497.71 957.342 2502.75 957.789C2507.85 958.264 2513.14 957.514 2518.62 955.538C2524.1 953.563 2528.63 950.772 2532.21 947.165C2535.81 943.603 2538.02 939.131 2538.85 933.749C2539.72 928.351 2538.82 921.933 2536.14 914.494L2525.63 885.364L2403.5 929.399L2397.53 912.83ZM2601.55 1093.51L2605.47 1110.68L2511.57 1132.1C2501.88 1134.31 2492.7 1134 2484.04 1131.17C2475.44 1128.37 2468 1123.34 2461.73 1116.08C2455.51 1108.81 2451.13 1099.61 2448.59 1088.48C2446.05 1077.36 2446.01 1067.17 2448.46 1057.92C2450.96 1048.65 2455.48 1040.87 2462.01 1034.58C2468.59 1028.31 2476.73 1024.08 2486.42 1021.87L2580.32 1000.45L2584.24 1017.62L2491.73 1038.72C2484.8 1040.3 2478.99 1043.23 2474.28 1047.51C2469.62 1051.78 2466.39 1057.08 2464.58 1063.42C2462.83 1069.79 2462.85 1076.93 2464.65 1084.82C2466.45 1092.71 2469.52 1099.15 2473.87 1104.13C2478.26 1109.11 2483.47 1112.48 2489.51 1114.26C2495.6 1116.08 2502.11 1116.19 2509.04 1114.61L2601.55 1093.51ZM2469.35 1177.57L2614.03 1162.61L2619.09 1211.5C2620.26 1222.8 2619.28 1232.28 2616.17 1239.93C2613.11 1247.58 2608.41 1253.49 2602.08 1257.67C2595.76 1261.84 2588.33 1264.37 2579.81 1265.25C2571.28 1266.13 2563.54 1265.17 2556.59 1262.37C2549.63 1259.57 2543.9 1254.76 2539.39 1247.94C2534.92 1241.12 2532.11 1232.1 2530.95 1220.9L2526.86 1181.33L2542.68 1179.7L2546.72 1218.69C2547.52 1226.42 2549.29 1232.52 2552.04 1236.99C2554.79 1241.52 2558.35 1244.62 2562.71 1246.31C2567.13 1248.05 2572.23 1248.61 2578.02 1248.02C2583.82 1247.42 2588.77 1245.81 2592.88 1243.19C2596.99 1240.58 2599.97 1236.77 2601.83 1231.77C2603.74 1226.77 2604.3 1220.36 2603.49 1212.54L2600.3 1181.74L2471.16 1195.09L2469.35 1177.57ZM2541.39 1238.95L2480.07 1281.28L2477.97 1260.93L2539.34 1219.17L2541.39 1238.95ZM2480.61 1304.85L2626.07 1305.48L2625.69 1393.26L2610.06 1393.19L2610.37 1323.02L2561.22 1322.81L2560.93 1388.43L2545.31 1388.37L2545.59 1322.74L2496.16 1322.53L2495.85 1393.83L2480.23 1393.77L2480.61 1304.85ZM2478.76 1419.42L2491.47 1420.82L2599.17 1511.64L2607.9 1432.86L2623.43 1434.58L2612.39 1534.26L2599.68 1532.85L2491.98 1442.03L2483.25 1520.81L2467.72 1519.09L2478.76 1419.42ZM2461.16 1553.87L2465.28 1535.87L2595.16 1620.38L2591.1 1638.1L2437.4 1657.72L2441.52 1639.72L2570.57 1624.66L2570.82 1623.55L2461.16 1553.87ZM2515.02 1573.19L2498.42 1645.75L2483.19 1642.26L2499.79 1569.71L2515.02 1573.19ZM2382.39 2015.48L2391.22 2000.24C2396.13 2001.88 2400.89 2002.54 2405.51 2002.21C2410.12 2001.92 2414.47 2000.83 2418.57 1998.94C2422.7 1997.12 2426.45 1994.61 2429.83 1991.43C2433.21 1988.24 2436.11 1984.56 2438.53 1980.38C2442.95 1972.77 2445.02 1964.75 2444.76 1956.33C2444.47 1947.95 2441.64 1939.77 2436.25 1931.78C2430.85 1923.83 2422.7 1916.69 2411.8 1910.37C2400.91 1904.06 2390.67 1900.53 2381.08 1899.79C2371.47 1899.09 2362.96 1900.69 2355.55 1904.6C2348.11 1908.55 2342.18 1914.34 2337.76 1921.96C2335.34 1926.14 2333.59 1930.48 2332.5 1935C2331.42 1939.51 2331.09 1944 2331.51 1948.46C2331.95 1952.99 2333.19 1957.32 2335.23 1961.45C2337.28 1965.65 2340.21 1969.46 2344.03 1972.88L2335.2 1988.12C2329.43 1983.24 2324.89 1977.82 2321.57 1971.84C2318.25 1965.87 2316.11 1959.59 2315.16 1953.02C2314.25 1946.47 2314.5 1939.86 2315.91 1933.18C2317.29 1926.54 2319.83 1920.04 2323.51 1913.69C2329.73 1902.96 2337.89 1894.94 2347.98 1889.62C2358.06 1884.31 2369.33 1882.05 2381.78 1882.87C2394.22 1883.68 2407.08 1887.93 2420.35 1895.63C2433.62 1903.32 2443.7 1912.37 2450.59 1922.77C2457.48 1933.16 2461.12 1944.06 2461.52 1955.46C2461.92 1966.85 2459.01 1977.92 2452.78 1988.65C2449.1 1995 2444.73 2000.42 2439.65 2004.93C2434.56 2009.47 2428.92 2012.96 2422.74 2015.4C2416.61 2017.86 2410.12 2019.14 2403.28 2019.22C2396.49 2019.33 2389.52 2018.09 2382.39 2015.48ZM2279.95 1988.73L2396.49 2075.76L2343.97 2146.1L2331.45 2136.75L2373.44 2080.52L2334.06 2051.12L2294.79 2103.7L2282.27 2094.35L2321.54 2041.77L2281.93 2012.19L2239.26 2069.33L2226.74 2059.98L2279.95 1988.73ZM2207 2083.25L2313.49 2182.33L2280.01 2218.31C2272.27 2226.63 2264.49 2232.14 2256.68 2234.83C2248.91 2237.56 2241.37 2237.91 2234.06 2235.9C2226.75 2233.88 2219.96 2229.95 2213.68 2224.12C2207.41 2218.28 2203.04 2211.82 2200.57 2204.74C2198.11 2197.66 2197.96 2190.18 2200.12 2182.29C2202.31 2174.44 2207.25 2166.39 2214.93 2158.14L2242.02 2129.02L2253.67 2139.86L2226.96 2168.56C2221.67 2174.25 2218.25 2179.6 2216.68 2184.61C2215.09 2189.66 2215.09 2194.38 2216.69 2198.78C2218.29 2203.25 2221.23 2207.46 2225.49 2211.43C2229.75 2215.4 2234.22 2218.07 2238.89 2219.44C2243.57 2220.81 2248.4 2220.56 2253.39 2218.67C2258.41 2216.81 2263.6 2213.01 2268.96 2207.25L2290.05 2184.58L2195 2096.14L2207 2083.25ZM2208.2 2177.88L2135.98 2159.58L2149.91 2144.6L2221.75 2163.32L2208.2 2177.88ZM2209.18 2268.73L2219.37 2280.58L2136.62 2351.67L2126.44 2339.82L2161.13 2310.01L2076.52 2211.54L2089.88 2200.06L2174.49 2298.54L2209.18 2268.73ZM2091.92 2385.8L2006.17 2268.31L2020.4 2257.92L2106.14 2375.41L2091.92 2385.8ZM1976.91 2288.03L2053.66 2411.59L1979.58 2457.61L1971.33 2444.34L2030.46 2407.61L2004.52 2365.86L1950.95 2399.14L1942.71 2385.87L1996.28 2352.59L1961.95 2297.33L1976.91 2288.03ZM1928.31 2485.89L1860.98 2356.96L1876.59 2348.81L1943.93 2477.74L1928.31 2485.89ZM1759.3 2509.16L1775.57 2502.4C1778.47 2506.68 1781.86 2510.09 1785.74 2512.63C1789.57 2515.2 1793.69 2516.97 1798.1 2517.96C1802.49 2519.01 1806.99 2519.29 1811.61 2518.81C1816.23 2518.33 1820.77 2517.16 1825.23 2515.3C1833.36 2511.93 1839.87 2506.81 1844.77 2499.96C1849.62 2493.12 1852.33 2484.9 1852.9 2475.28C1853.42 2465.68 1851.27 2455.06 1846.44 2443.43C1841.6 2431.8 1835.6 2422.78 1828.43 2416.38C1821.21 2409.99 1813.47 2406.11 1805.21 2404.72C1796.9 2403.36 1788.68 2404.36 1780.54 2407.74C1776.08 2409.59 1772.05 2411.98 1768.45 2414.92C1764.85 2417.85 1761.86 2421.22 1759.5 2425.02C1757.1 2428.89 1755.46 2433.08 1754.57 2437.6C1753.66 2442.19 1753.68 2447 1754.64 2452.03L1738.38 2458.79C1736.75 2451.41 1736.43 2444.34 1737.41 2437.58C1738.39 2430.81 1740.5 2424.53 1743.73 2418.73C1746.98 2412.97 1751.19 2407.86 1756.36 2403.4C1761.49 2398.97 1767.44 2395.34 1774.22 2392.52C1785.68 2387.76 1797.03 2386.33 1808.27 2388.22C1819.52 2390.11 1829.84 2395.16 1839.24 2403.35C1848.65 2411.54 1856.29 2422.72 1862.18 2436.89C1868.06 2451.06 1870.59 2464.36 1869.76 2476.81C1868.93 2489.25 1865.22 2500.13 1858.62 2509.43C1852.03 2518.73 1843 2525.76 1831.55 2530.52C1824.77 2533.34 1818 2535 1811.24 2535.5C1804.43 2536.02 1797.83 2535.38 1791.44 2533.57C1785.07 2531.81 1779.14 2528.89 1773.65 2524.81C1768.18 2520.78 1763.4 2515.56 1759.3 2509.16ZM1688.29 2427.22L1706.09 2422.3L1693.36 2576.72L1675.84 2581.57L1585.6 2455.6L1603.4 2450.68L1677.92 2557.12L1679.02 2556.81L1688.29 2427.22ZM1696.85 2483.8L1625.11 2503.63L1620.95 2488.57L1692.69 2468.74L1696.85 2483.8ZM1519.02 2466.26L1563.41 2459.55L1585.12 2603.38L1538.78 2610.38C1524.82 2612.48 1512.45 2611.41 1501.66 2607.15C1490.87 2602.93 1482.02 2595.87 1475.11 2585.94C1468.21 2576.07 1463.63 2563.69 1461.38 2548.8C1459.12 2533.82 1459.84 2520.52 1463.55 2508.9C1467.26 2497.32 1473.78 2487.86 1483.11 2480.51C1492.44 2473.21 1504.42 2468.46 1519.02 2466.26ZM1548.32 2477.63L1522.48 2481.54C1510.59 2483.33 1501.08 2487.11 1493.95 2492.88C1486.83 2498.65 1481.99 2506.06 1479.43 2515.12C1476.87 2524.17 1476.47 2534.55 1478.24 2546.25C1479.99 2557.86 1483.4 2567.57 1488.45 2575.38C1493.52 2583.24 1500.16 2588.84 1508.38 2592.2C1516.6 2595.6 1526.33 2596.45 1537.57 2594.76L1565.38 2590.56L1548.32 2477.63ZM1421.96 2478.09L1440.41 2477.51L1391.57 2624.56L1373.39 2625.13L1315.47 2481.41L1333.93 2480.84L1381.19 2601.86L1382.33 2601.83L1421.96 2478.09ZM1416.91 2535.09L1342.52 2537.41L1342.03 2521.8L1416.43 2519.48L1416.91 2535.09Z" fill="#6B5310"/>
</svg>
