<svg width="2684" height="2684" viewBox="0 0 2684 2684" fill="none" xmlns="http://www.w3.org/2000/svg">
<circle cx="1342" cy="1342" r="1342" fill="#4CAF50"/>
<circle cx="1342" cy="1342" r="1048" fill="#F1FFF1"/>
<path fill-rule="evenodd" clip-rule="evenodd" d="M1152.79 1797.22L1152.79 1797.22C1152.56 1780.94 1151.22 1685.25 1152.82 1683.64C1153.08 1683.38 1154.47 1681.88 1156.66 1679.52L1156.66 1679.52C1169.04 1666.16 1206.94 1625.29 1210.4 1625.29C1210.4 1625.29 1470.33 1626.06 1472.08 1626.06C1473.83 1626.06 1529.66 1681.89 1529.66 1682.86C1529.66 1683.34 1529.66 1711.37 1529.66 1739.83C1529.66 1769.12 1529.66 1798.87 1529.66 1799.56C1529.66 1800.92 1429.83 1900.55 1428.67 1900.55H1350.61H1253.81C1252.45 1900.55 1152.82 1800.52 1152.82 1799.56C1152.82 1799.48 1152.81 1798.66 1152.79 1797.22ZM1287.08 1718.05C1301.52 1739.31 1300.3 1765.31 1284.35 1776.14C1268.41 1786.97 1243.79 1778.51 1229.35 1757.25C1214.92 1736 1216.14 1709.99 1232.08 1699.16C1248.03 1688.34 1272.65 1696.79 1287.08 1718.05ZM1399.57 1776.14C1383.62 1765.31 1382.4 1739.31 1396.84 1718.05C1411.27 1696.79 1435.89 1688.34 1451.84 1699.16C1467.78 1709.99 1469 1736 1454.57 1757.25C1440.13 1778.51 1415.51 1786.97 1399.57 1776.14Z" fill="#2E7D32"/>
<path fill-rule="evenodd" clip-rule="evenodd" d="M1091.56 1733.06V1660.95C1112.15 1607.05 1133.68 1586.82 1186.94 1565.58H1312.55V886.35H1114.83C1049.69 886.35 982.235 953.808 982.235 1056.16H779.862C733.339 1038.32 660.299 978.93 740.318 884.024C772.884 852.233 844.064 787.722 868.255 784C807.776 784 672.86 808.192 617.033 904.959C561.206 1001.73 604.627 1100.35 633.316 1137.57C695.059 1197.54 781.222 1197.02 948.026 1196.01C971.028 1195.87 995.564 1195.73 1021.78 1195.73V1363.21L970.606 1414.38V1593.49C976.033 1611.33 1007.82 1664.21 1091.56 1733.06ZM1091.56 1339.95V1288.77C1121.8 1284.12 1180.89 1296.22 1175.31 1381.82L1147.04 1381.82L1124.13 1381.82C1121.8 1381.82 1091.56 1342.28 1091.56 1339.95Z" fill="#2E7D32"/>
<path fill-rule="evenodd" clip-rule="evenodd" d="M1591.68 1733.07V1660.96C1571.1 1607.05 1549.57 1586.82 1496.31 1565.58H1370.7V886.353H1568.42C1633.55 886.353 1701.01 953.811 1701.01 1056.16H1903.39C1949.91 1038.33 2022.95 978.933 1942.93 884.026C1910.36 852.236 1839.18 787.725 1814.99 784.003C1875.47 784.003 2010.39 808.195 2066.21 904.962C2122.04 1001.73 2078.62 1100.36 2049.93 1137.58C1988.19 1197.54 1902.03 1197.02 1735.22 1196.02C1712.22 1195.88 1687.68 1195.73 1661.47 1195.73V1363.21L1712.64 1414.39V1593.5C1707.21 1611.33 1675.43 1664.21 1591.68 1733.07ZM1594.38 1339.95V1288.78C1564.14 1284.12 1505.06 1296.22 1510.64 1381.82C1510.64 1381.82 1559.49 1381.82 1561.81 1381.82C1564.14 1381.82 1594.38 1342.28 1594.38 1339.95Z" fill="#2E7D32"/>
<path d="M958.975 1253.88H817.081C773.511 1288.03 754.341 1309.76 726.361 1351.58C831.896 1433.84 882.64 1426.03 958.975 1321.34V1253.88Z" fill="#2E7D32"/>
<path d="M1724.27 1253.88H1866.17C1909.73 1288.03 1928.9 1309.76 1956.88 1351.58C1851.35 1433.84 1800.61 1426.03 1724.27 1321.34V1253.88Z" fill="#2E7D32"/>
<path d="M665.905 2309.32C670.597 2312.61 674.081 2316.75 676.356 2321.76C678.604 2326.8 679.533 2332.08 679.143 2337.59C678.714 2343.07 676.857 2348.15 673.569 2352.85C670.255 2357.58 666.109 2361.06 661.132 2363.3C656.088 2365.55 650.826 2366.45 645.345 2366.03C639.837 2365.64 634.737 2363.8 630.045 2360.51C625.314 2357.2 621.844 2353.03 619.635 2348.01C617.359 2343.01 616.436 2337.77 616.865 2332.29C617.228 2326.82 619.066 2321.72 622.38 2316.99C625.668 2312.29 629.833 2308.82 634.876 2306.58C639.881 2304.3 645.137 2303.36 650.645 2303.75C656.087 2304.15 661.174 2306.01 665.905 2309.32ZM413.45 2175.47C408.812 2181.04 407.134 2187.4 408.416 2194.53C409.698 2201.66 413.368 2208.43 419.426 2214.82C423.855 2219.49 428.487 2222.87 433.321 2224.94C438.123 2226.98 442.775 2227.72 447.278 2227.17C451.748 2226.59 455.667 2224.7 459.035 2221.51C461.853 2218.84 463.641 2215.88 464.399 2212.61C465.089 2209.35 465.095 2206.02 464.416 2202.62C463.703 2199.25 462.668 2195.99 461.313 2192.84C459.923 2189.72 458.558 2186.94 457.217 2184.49L449.942 2171.03C448.058 2167.6 446.156 2163.59 444.236 2159.02C442.284 2154.41 440.941 2149.52 440.21 2144.34C439.411 2139.16 439.752 2133.95 441.233 2128.69C442.714 2123.44 445.929 2118.47 450.878 2113.78C456.583 2108.38 463.155 2104.99 470.594 2103.61C478 2102.2 485.764 2103.06 493.885 2106.2C501.974 2109.29 509.862 2114.9 517.548 2123.01C524.713 2130.57 529.697 2138.27 532.501 2146.12C535.272 2153.93 535.973 2161.48 534.605 2168.78C533.204 2176.05 529.812 2182.62 524.429 2188.5L511.922 2175.31C515.583 2171.19 517.612 2166.72 518.01 2161.91C518.34 2157.09 517.431 2152.28 515.283 2147.46C513.068 2142.65 509.974 2138.15 506 2133.95C501.376 2129.07 496.433 2125.44 491.171 2123.05C485.876 2120.7 480.727 2119.74 475.725 2120.18C470.688 2120.64 466.246 2122.7 462.396 2126.35C458.891 2129.67 456.967 2133.35 456.624 2137.4C456.28 2141.44 456.936 2145.71 458.59 2150.21C460.244 2154.71 462.315 2159.3 464.801 2163.99L473.4 2180.5C478.845 2191 481.648 2200.74 481.809 2209.72C481.969 2218.7 478.493 2226.56 471.378 2233.3C465.467 2238.9 458.797 2242.19 451.369 2243.16C443.875 2244.13 436.334 2243.06 428.748 2239.94C421.095 2236.82 414.077 2231.89 407.693 2225.16C401.245 2218.35 396.733 2211.15 394.157 2203.54C391.547 2195.97 390.873 2188.65 392.135 2181.58C393.364 2174.48 396.561 2168.32 401.725 2163.1L413.45 2175.47ZM461.116 2064.42L345.366 2152.5L292.205 2082.64L304.639 2073.18L347.133 2129.02L386.244 2099.26L346.502 2047.04L358.937 2037.57L398.678 2089.8L438.015 2059.86L394.833 2003.12L407.267 1993.65L461.116 2064.42ZM390.2 1968.35L266.315 2044.57L257.085 2029.57L367.662 1961.54L332.232 1903.95L345.54 1895.77L390.2 1968.35ZM218.11 1796.12C232.005 1789.61 245.187 1786.5 257.656 1786.78C270.125 1787.06 281.151 1790.29 290.734 1796.47C300.318 1802.65 307.739 1811.36 312.997 1822.6C318.255 1833.83 320.187 1845.11 318.792 1856.43C317.397 1867.74 312.813 1878.28 305.041 1888.03C297.268 1897.79 286.435 1905.92 272.54 1912.42C258.645 1918.92 245.464 1922.03 232.995 1921.75C220.526 1921.47 209.5 1918.24 199.916 1912.06C190.333 1905.88 182.912 1897.17 177.654 1885.94C172.395 1874.7 170.464 1863.43 171.859 1852.11C173.253 1840.79 177.837 1830.25 185.61 1820.5C193.382 1810.75 204.216 1802.62 218.11 1796.12ZM225.336 1811.55C213.928 1816.89 205.194 1823.31 199.132 1830.8C193.051 1838.24 189.509 1846.15 188.509 1854.51C187.488 1862.83 188.844 1870.98 192.577 1878.95C196.31 1886.93 201.708 1893.21 208.769 1897.8C215.811 1902.35 224.149 1904.69 233.783 1904.84C243.397 1904.94 253.908 1902.32 265.315 1896.98C276.722 1891.64 285.467 1885.25 291.548 1877.8C297.61 1870.31 301.151 1862.41 302.172 1854.09C303.172 1845.73 301.806 1837.56 298.073 1829.58C294.34 1821.6 288.953 1815.34 281.911 1810.8C274.85 1806.21 266.512 1803.86 256.898 1803.76C247.264 1803.62 236.743 1806.22 225.336 1811.55ZM240.17 1632.1L98.0663 1663.14L87.2144 1613.46C85.0521 1603.56 84.9802 1595.02 86.9988 1587.85C88.9711 1580.68 92.4817 1574.9 97.5306 1570.5C102.533 1566.11 108.504 1563.16 115.443 1561.64C121.549 1560.31 126.828 1560.29 131.281 1561.6C135.724 1562.86 139.486 1564.99 142.567 1568C145.638 1570.97 148.173 1574.36 150.172 1578.19L151.56 1577.89C150.887 1573.48 151.459 1568.77 153.275 1563.77C155.09 1558.77 158.265 1554.23 162.799 1550.13C167.334 1546.04 173.348 1543.18 180.841 1541.54C187.965 1539.98 194.725 1540.2 201.122 1542.2C207.519 1544.19 213.146 1548.32 218.002 1554.58C222.859 1560.84 226.509 1569.56 228.955 1580.76L240.17 1632.1ZM221.146 1618.23L213.689 1584.09C211.234 1572.85 207.317 1565.35 201.938 1561.58C196.503 1557.77 190.663 1556.55 184.418 1557.92C179.607 1558.97 175.434 1561.16 171.899 1564.5C168.318 1567.85 165.796 1572.06 164.335 1577.13C162.827 1582.21 162.75 1587.85 164.104 1594.05L171.743 1629.02L221.146 1618.23ZM156.756 1632.29L149.784 1600.38C148.652 1595.19 146.614 1590.75 143.669 1587.03C140.714 1583.26 137.119 1580.56 132.883 1578.91C128.636 1577.22 124.015 1576.93 119.019 1578.02C112.775 1579.38 107.953 1582.71 104.555 1588.01C101.11 1593.32 100.418 1600.69 102.479 1610.13L109.573 1642.6L156.756 1632.29ZM60.8888 1423.18L59.2583 1405.64L155.152 1396.73C165.052 1395.81 174.109 1397.32 182.322 1401.26C190.483 1405.17 197.195 1411.13 202.459 1419.15C207.675 1427.18 210.811 1436.87 211.868 1448.23C212.924 1459.6 211.629 1469.7 207.981 1478.55C204.287 1487.41 198.791 1494.53 191.493 1499.91C184.144 1505.26 175.519 1508.39 165.618 1509.31L69.7252 1518.23L68.0947 1500.69L162.574 1491.9C169.645 1491.25 175.795 1489.11 181.021 1485.48C186.201 1481.86 190.103 1477.03 192.727 1470.98C195.299 1464.9 196.211 1457.82 195.461 1449.76C194.712 1441.7 192.511 1434.91 188.861 1429.4C185.163 1423.9 180.437 1419.87 174.683 1417.31C168.878 1414.71 162.44 1413.74 155.368 1414.4L60.8888 1423.18ZM202.867 1357.19L57.4488 1353.93L59.4025 1266.74L75.0236 1267.09L73.4644 1336.67L122.6 1337.77L124.013 1274.72L139.634 1275.07L138.221 1338.12L203.261 1339.58L202.867 1357.19ZM207.286 1240.02L62.9547 1221.97L73.7744 1135.43L89.2787 1137.37L80.6441 1206.43L129.412 1212.53L137.236 1149.95L152.74 1151.89L144.916 1214.47L209.471 1222.54L207.286 1240.02ZM135.856 1021.41C128.656 1020.58 122.423 1022.66 117.158 1027.64C111.892 1032.63 108.246 1039.4 106.219 1047.97C104.737 1054.24 104.454 1059.96 105.37 1065.14C106.297 1070.27 108.224 1074.57 111.15 1078.04C114.088 1081.46 117.815 1083.7 122.33 1084.77C126.109 1085.66 129.57 1085.53 132.713 1084.38C135.822 1083.17 138.612 1081.35 141.085 1078.92C143.511 1076.47 145.671 1073.82 147.564 1070.96C149.411 1068.09 150.991 1065.42 152.303 1062.96L159.573 1049.5C161.413 1046.04 163.719 1042.26 166.492 1038.14C169.276 1033.98 172.632 1030.18 176.562 1026.73C180.457 1023.22 185.006 1020.65 190.211 1019.01C195.415 1017.37 201.335 1017.34 207.97 1018.91C215.619 1020.72 222.057 1024.35 227.283 1029.82C232.52 1035.25 236.054 1042.21 237.885 1050.72C239.727 1059.19 239.363 1068.85 236.791 1079.73C234.393 1089.87 230.682 1098.26 225.656 1104.9C220.64 1111.5 214.706 1116.23 207.851 1119.08C201.008 1121.89 193.65 1122.66 185.778 1121.38L189.963 1103.69C195.417 1104.49 200.265 1103.74 204.508 1101.43C208.716 1099.07 212.244 1095.67 215.094 1091.24C217.908 1086.75 219.979 1081.69 221.309 1076.07C222.856 1069.52 223.186 1063.4 222.298 1057.69C221.364 1051.97 219.344 1047.14 216.239 1043.19C213.087 1039.24 208.931 1036.65 203.771 1035.43C199.071 1034.32 194.936 1034.73 191.366 1036.65C187.796 1038.58 184.582 1041.47 181.726 1045.32C178.869 1049.17 176.161 1053.42 173.602 1058.07L164.506 1074.31C158.712 1084.62 152.102 1092.3 144.679 1097.35C137.255 1102.41 128.775 1103.81 119.237 1101.55C111.311 1099.68 104.906 1095.9 100.022 1090.22C95.1023 1084.49 91.8677 1077.59 90.318 1069.54C88.7332 1061.43 89.0087 1052.85 91.1446 1043.82C93.3023 1034.7 96.856 1026.98 101.806 1020.66C106.709 1014.32 112.462 1009.75 119.065 1006.93C125.678 1004.07 132.582 1003.36 139.779 1004.82L135.856 1021.41ZM271.901 843.888C269.481 849.081 266.004 853.233 261.472 856.344C256.896 859.435 251.863 861.268 246.371 861.842C240.899 862.374 235.567 861.429 230.374 859.009C225.139 856.568 220.987 853.092 217.918 848.579C214.827 844.004 213.016 838.98 212.484 833.509C211.91 828.017 212.833 822.675 215.253 817.482C217.694 812.246 221.192 808.104 225.747 805.056C230.28 801.945 235.282 800.123 240.754 799.592C246.202 798.997 251.545 799.921 256.78 802.361C261.973 804.782 266.115 808.28 269.206 812.855C272.317 817.387 274.16 822.4 274.735 827.891C275.286 833.32 274.342 838.652 271.901 843.888ZM391.092 547.329L380.477 561.385C375.806 559.162 371.156 557.935 366.526 557.701C361.925 557.43 357.472 557.983 353.168 559.361C348.855 560.672 344.828 562.704 341.088 565.457C337.348 568.209 334.022 571.513 331.111 575.367C325.804 582.394 322.771 590.102 322.014 598.49C321.285 606.839 323.108 615.307 327.482 623.892C331.886 632.439 339.112 640.507 349.163 648.098C359.213 655.689 368.951 660.433 378.376 662.33C387.83 664.189 396.473 663.626 404.305 660.641C412.166 657.618 418.75 652.593 424.058 645.566C426.969 641.712 429.236 637.609 430.861 633.259C432.485 628.908 433.357 624.493 433.476 620.015C433.586 615.47 432.881 611.021 431.362 606.669C429.833 602.251 427.38 598.114 424.003 594.258L434.618 580.203C439.751 585.741 443.605 591.677 446.178 598.012C448.751 604.346 450.112 610.833 450.26 617.472C450.371 624.082 449.321 630.617 447.112 637.078C444.931 643.5 441.63 649.64 437.206 655.496C429.73 665.395 420.663 672.372 410.005 676.428C399.348 680.483 387.891 681.353 375.636 679.039C363.38 676.726 351.131 670.946 338.89 661.7C326.648 652.454 317.738 642.254 312.16 631.099C306.582 619.944 304.285 608.686 305.27 597.325C306.256 585.965 310.486 575.335 317.963 565.436C322.386 559.58 327.388 554.724 332.969 550.87C338.579 546.978 344.597 544.195 351.023 542.521C357.411 540.819 364.004 540.34 370.801 541.082C377.56 541.796 384.323 543.878 391.092 547.329ZM489.547 586.294L384.457 485.73L396.634 473.004L490.435 562.765L537.182 513.915L548.471 524.718L489.547 586.294ZM579.559 496.042L565.381 507.873L513.193 361.976L527.153 350.326L661.354 427.784L647.176 439.615L535.353 373.455L534.481 374.183L579.559 496.042ZM548.39 448.049L605.537 400.36L615.548 412.356L558.401 460.046L548.39 448.049ZM686.555 280.094C681.895 274.545 675.94 271.769 668.691 271.768C661.442 271.768 654.135 274.183 646.772 279.014C641.388 282.547 637.248 286.508 634.353 290.9C631.498 295.265 629.941 299.712 629.685 304.241C629.468 308.744 630.632 312.935 633.178 316.814C635.308 320.061 637.911 322.345 640.987 323.668C644.077 324.925 647.356 325.52 650.823 325.454C654.265 325.348 657.656 324.907 660.998 324.13C664.313 323.314 667.294 322.463 669.94 321.576L684.473 316.798C688.186 315.551 692.462 314.387 697.303 313.307C702.183 312.2 707.236 311.745 712.461 311.941C717.7 312.071 722.773 313.33 727.68 315.716C732.588 318.103 736.911 322.147 740.651 327.848C744.963 334.419 747.137 341.487 747.173 349.052C747.249 356.591 745.027 364.08 740.508 371.519C736.028 378.932 729.116 385.703 719.773 391.833C711.064 397.547 702.6 401.09 694.382 402.461C686.204 403.806 678.645 403.16 671.704 400.522C664.802 397.858 658.933 393.356 654.094 387.017L669.296 377.043C672.705 381.375 676.742 384.163 681.408 385.405C686.088 386.582 690.986 386.539 696.104 385.277C701.236 383.949 706.216 381.7 711.046 378.532C716.668 374.843 721.118 370.621 724.396 365.865C727.649 361.069 729.504 356.171 729.961 351.171C730.392 346.131 729.153 341.395 726.244 336.961C723.594 332.923 720.31 330.377 716.392 329.324C712.473 328.271 708.153 328.16 703.432 328.992C698.712 329.824 693.824 331.049 688.769 332.667L670.999 338.209C659.706 341.712 649.626 342.747 640.759 341.316C631.892 339.885 624.77 335.072 619.393 326.878C614.926 320.068 612.871 312.922 613.228 305.44C613.598 297.891 615.989 290.66 620.4 283.745C624.824 276.765 630.916 270.729 638.675 265.638C646.514 260.495 654.404 257.329 662.344 256.14C670.259 254.911 677.582 255.543 684.314 258.035C691.085 260.501 696.583 264.738 700.807 270.744L686.555 280.094ZM809.141 213.461C805.129 207.425 799.522 204.002 792.318 203.192C785.114 202.381 777.584 203.965 769.727 207.944C763.982 210.853 759.426 214.328 756.059 218.368C752.733 222.387 750.69 226.632 749.93 231.104C749.211 235.555 749.9 239.85 751.996 243.989C753.75 247.453 756.082 250.014 758.991 251.672C761.922 253.267 765.113 254.224 768.567 254.546C771.998 254.825 775.418 254.765 778.825 254.366C782.211 253.926 785.268 253.413 787.997 252.827L802.973 249.702C806.801 248.878 811.181 248.199 816.112 247.666C821.085 247.111 826.157 247.223 831.328 248.001C836.52 248.716 841.42 250.533 846.03 253.453C850.64 256.373 854.485 260.874 857.565 266.957C861.116 273.969 862.487 281.236 861.678 288.757C860.912 296.257 857.867 303.451 852.545 310.339C847.265 317.205 839.64 323.162 829.671 328.21C820.378 332.916 811.572 335.491 803.252 335.936C794.975 336.359 787.535 334.873 780.932 331.476C774.372 328.057 769.041 322.928 764.941 316.089L781.162 307.875C784.065 312.561 787.766 315.782 792.264 317.538C796.783 319.23 801.656 319.735 806.883 319.052C812.13 318.305 817.331 316.627 822.484 314.017C828.483 310.98 833.376 307.281 837.166 302.921C840.934 298.519 843.324 293.859 844.337 288.941C845.328 283.981 844.626 279.135 842.23 274.404C840.048 270.095 837.069 267.199 833.292 265.715C829.515 264.231 825.235 263.638 820.451 263.938C815.667 264.237 810.673 264.909 805.469 265.951L787.192 269.475C775.578 271.694 765.445 271.597 756.793 269.185C748.142 266.772 741.602 261.194 737.174 252.45C733.495 245.185 732.251 237.854 733.442 230.457C734.653 222.998 737.836 216.078 742.992 209.7C748.168 203.257 754.896 197.94 763.175 193.747C771.539 189.512 779.733 187.247 787.757 186.952C795.76 186.615 802.966 188.061 809.378 191.289C815.831 194.496 820.821 199.32 824.348 205.76L809.141 213.461ZM862.922 149.14L918.065 283.737L901.766 290.414L846.623 155.817L862.922 149.14ZM951.194 271.59L906.293 133.24L989.249 106.317L994.072 121.178L927.869 142.664L943.041 189.412L1003.03 169.943L1007.85 184.805L947.865 204.274L967.947 266.153L951.194 271.59ZM1045.88 91.1489L1080.27 232.479L1063.15 236.644L1028.76 95.3134L1045.88 91.1489ZM1215.53 109.16L1198.12 111.812C1196.33 106.961 1193.85 102.835 1190.7 99.4355C1187.6 96.029 1184.02 93.3165 1179.98 91.2981C1175.98 89.2257 1171.68 87.8692 1167.08 87.2287C1162.48 86.5882 1157.79 86.6315 1153.01 87.3586C1144.31 88.6846 1136.76 92.0858 1130.36 97.5623C1124.01 103.032 1119.4 110.367 1116.54 119.567C1113.72 128.76 1113.26 139.583 1115.16 152.034C1117.06 164.485 1120.72 174.68 1126.14 182.618C1131.61 190.55 1138.19 196.181 1145.88 199.512C1153.62 202.835 1161.84 203.834 1170.55 202.508C1175.33 201.781 1179.81 200.427 1184.01 198.446C1188.21 196.466 1191.92 193.913 1195.13 190.79C1198.38 187.613 1200.99 183.936 1202.94 179.759C1204.93 175.529 1206.06 170.854 1206.33 165.736L1223.74 163.084C1223.55 170.633 1222.17 177.573 1219.59 183.905C1217.01 190.236 1213.45 195.831 1208.92 200.687C1204.39 205.497 1199.07 209.443 1192.98 212.526C1186.94 215.602 1180.29 217.693 1173.03 218.798C1160.77 220.665 1149.41 219.331 1138.94 214.793C1128.48 210.256 1119.67 202.881 1112.51 192.668C1105.35 182.456 1100.62 169.766 1098.31 154.6C1096 139.434 1096.74 125.911 1100.54 114.03C1104.33 102.149 1110.55 92.4853 1119.18 85.0395C1127.82 77.5937 1138.27 72.9369 1150.53 71.0692C1157.79 69.9642 1164.76 69.9802 1171.45 71.117C1178.18 72.2468 1184.43 74.4557 1190.2 77.7439C1195.96 80.9853 1201.02 85.2444 1205.37 90.5211C1209.71 95.7511 1213.1 101.964 1215.53 109.16ZM1264.78 205.654L1246.33 206.24L1295.09 59.1643L1313.27 58.5876L1371.26 202.275L1352.81 202.861L1305.48 81.8577L1304.34 81.8938L1264.78 205.654ZM1269.8 148.648L1344.19 146.287L1344.69 161.904L1270.29 164.265L1269.8 148.648ZM1512.22 114.383L1494.68 112.856C1494.08 107.719 1492.65 103.127 1490.39 99.0802C1488.17 95.0378 1485.34 91.5593 1481.88 88.6448C1478.48 85.6872 1474.62 83.3552 1470.3 81.6486C1465.98 79.942 1461.42 78.8794 1456.61 78.4608C1447.83 77.6974 1439.69 79.2228 1432.18 83.037C1424.72 86.8554 1418.52 92.898 1413.57 101.165C1408.66 109.436 1405.67 119.845 1404.58 132.392C1403.48 144.94 1404.64 155.71 1408.04 164.703C1411.49 173.701 1416.55 180.724 1423.24 185.774C1429.98 190.828 1437.74 193.736 1446.51 194.5C1451.32 194.918 1456 194.66 1460.55 193.725C1465.1 192.79 1469.3 191.184 1473.16 188.905C1477.07 186.584 1480.46 183.624 1483.34 180.024C1486.27 176.382 1488.48 172.106 1489.95 167.196L1507.5 168.723C1505.53 176.014 1502.55 182.432 1498.55 187.978C1494.55 193.523 1489.78 198.122 1484.23 201.774C1478.69 205.379 1472.6 207.962 1465.95 209.522C1459.35 211.087 1452.39 211.551 1445.08 210.915C1432.72 209.84 1421.99 205.864 1412.9 198.989C1403.8 192.114 1396.98 182.87 1392.43 171.258C1387.88 159.646 1386.27 146.198 1387.59 130.915C1388.92 115.632 1392.83 102.664 1399.32 92.012C1405.81 81.36 1414.13 73.4338 1424.27 68.2333C1434.42 63.0328 1445.68 60.9702 1458.03 62.0455C1465.35 62.6817 1472.12 64.3402 1478.35 67.0211C1484.62 69.706 1490.18 73.3261 1495.01 77.8814C1499.85 82.3895 1503.76 87.72 1506.74 93.8728C1509.72 99.9785 1511.55 106.815 1512.22 114.383ZM1437.85 208.859L1451.71 210.066L1450.09 215.628C1453.72 216.514 1456.96 218.341 1459.81 221.108C1462.65 223.922 1463.83 228.088 1463.35 233.607C1462.82 239.692 1459.87 244.425 1454.49 247.807C1449.15 251.24 1441.6 252.531 1431.84 251.682L1432.23 240.595C1436.62 240.976 1440.31 240.585 1443.31 239.42C1446.36 238.307 1448.02 236.123 1448.3 232.868C1448.59 229.613 1447.58 227.291 1445.27 225.903C1442.97 224.514 1439.15 223.374 1433.81 222.481L1437.85 208.859ZM1537.34 219.783L1519.27 215.989L1601.43 84.6113L1619.22 88.3469L1641.6 241.672L1623.53 237.878L1606.15 109.116L1605.04 108.883L1537.34 219.783ZM1555.69 165.578L1628.53 180.871L1625.32 196.163L1552.48 180.87L1555.69 165.578ZM1591.89 67.8052L1579.22 64.5641C1580.71 57.4743 1583.94 52.1052 1588.91 48.4568C1593.94 44.7717 1599.45 43.5566 1605.43 44.8116C1608.07 45.3661 1610.31 46.3207 1612.16 47.6755C1614.01 48.984 1615.74 50.412 1617.35 51.9596C1618.96 53.5072 1620.64 54.9487 1622.39 56.284C1624.2 57.5828 1626.36 58.4948 1628.86 59.0201C1631.5 59.5746 1633.94 59.0221 1636.17 57.3627C1638.47 55.6666 1639.92 53.3589 1640.53 50.4396L1652.81 54.1783C1651.29 61.4071 1648.05 66.725 1643.07 70.132C1638.15 73.5488 1632.69 74.6297 1626.72 73.3748C1623.52 72.7035 1620.97 71.7088 1619.07 70.3906C1617.18 69.0261 1615.55 67.5943 1614.17 66.0954C1612.79 64.5964 1611.29 63.217 1609.66 61.9572C1608.05 60.6511 1605.93 59.7207 1603.28 59.1662C1600.64 58.6117 1598.22 59.1922 1596.02 60.9078C1593.88 62.5867 1592.5 64.8858 1591.89 67.8052ZM1796.14 218.116C1791.15 232.624 1784.23 244.262 1775.36 253.029C1766.49 261.797 1756.5 267.477 1745.39 270.07C1734.29 272.662 1722.87 271.943 1711.14 267.912C1699.41 263.88 1689.96 257.429 1682.79 248.559C1675.63 239.688 1671.24 229.069 1669.63 216.701C1668.03 204.333 1669.71 190.895 1674.7 176.387C1679.68 161.878 1686.61 150.24 1695.48 141.473C1704.35 132.705 1714.34 127.025 1725.45 124.433C1736.55 121.84 1747.97 122.559 1759.7 126.59C1771.43 130.622 1780.88 137.073 1788.05 145.943C1795.21 154.814 1799.6 165.433 1801.21 177.801C1802.81 190.169 1801.12 203.607 1796.14 218.116ZM1780.02 212.576C1784.11 200.665 1785.57 189.928 1784.4 180.364C1783.28 170.815 1780.06 162.775 1774.74 156.242C1769.47 149.725 1762.67 145.035 1754.35 142.173C1746.02 139.311 1737.75 138.823 1729.54 140.709C1721.38 142.61 1713.89 146.973 1707.09 153.798C1700.34 160.639 1694.91 170.015 1690.82 181.926C1686.73 193.837 1685.24 204.567 1686.37 214.115C1687.54 223.679 1690.76 231.72 1696.03 238.237C1701.34 244.77 1708.16 249.467 1716.49 252.329C1724.82 255.191 1733.07 255.671 1741.23 253.77C1749.44 251.884 1756.92 247.521 1763.68 240.681C1770.48 233.856 1775.93 224.487 1780.02 212.576ZM1898.73 347.934L1974.97 224.058L2016.82 249.817C2026.54 255.798 2033.41 262.441 2037.42 269.746C2041.49 277.035 2043.2 284.562 2042.53 292.326C2041.87 300.09 2039.29 307.622 2034.8 314.92C2030.31 322.219 2024.73 327.934 2018.08 332.066C2011.46 336.222 2003.98 338.176 1995.62 337.928C1987.29 337.639 1978.31 334.529 1968.67 328.598L1938.67 310.135L1946.86 296.828L1976.38 314.994C1983.03 319.088 1989.08 321.227 1994.53 321.41C1999.98 321.593 2004.81 320.287 2009.03 317.493C2013.32 314.683 2016.99 310.797 2020.04 305.838C2023.09 300.878 2024.9 295.871 2025.45 290.818C2026.04 285.79 2024.98 280.914 2022.28 276.19C2019.59 271.425 2014.88 266.971 2008.15 262.826L1981.78 246.597L1913.73 357.166L1898.73 347.934ZM2146.84 435.959C2137.27 447.946 2126.83 456.577 2115.53 461.851C2104.22 467.125 2092.91 469.116 2081.58 467.824C2070.25 466.532 2059.74 462.015 2050.04 454.273C2040.35 446.532 2033.62 437.279 2029.86 426.516C2026.09 415.752 2025.53 404.276 2028.18 392.088C2030.82 379.899 2036.93 367.812 2046.5 355.825C2056.08 343.838 2066.51 335.207 2077.82 329.933C2089.12 324.658 2100.43 322.667 2111.76 323.96C2123.09 325.252 2133.61 329.769 2143.3 337.51C2152.99 345.252 2159.72 354.504 2163.49 365.268C2167.25 376.031 2167.81 387.507 2165.17 399.696C2162.52 411.884 2156.41 423.972 2146.84 435.959ZM2133.52 425.322C2141.38 415.48 2146.37 405.86 2148.48 396.459C2150.63 387.089 2150.31 378.434 2147.5 370.494C2144.72 362.584 2139.9 355.881 2133.02 350.385C2126.13 344.889 2118.51 341.649 2110.15 340.665C2101.82 339.711 2093.31 341.304 2084.61 345.445C2075.94 349.615 2067.68 356.621 2059.82 366.462C2051.96 376.303 2046.96 385.909 2044.81 395.28C2042.69 404.68 2043.02 413.335 2045.79 421.245C2048.6 429.185 2053.45 435.902 2060.33 441.398C2067.21 446.894 2074.81 450.119 2083.14 451.074C2091.5 452.058 2100.02 450.465 2108.68 446.295C2117.38 442.154 2125.66 435.163 2133.52 425.322ZM2256.59 596.221C2252.97 591.783 2250.74 586.847 2249.91 581.412C2249.12 575.948 2249.66 570.618 2251.53 565.423C2253.43 560.265 2256.6 555.874 2261.04 552.251C2265.51 548.598 2270.45 546.372 2275.85 545.571C2281.31 544.778 2286.62 545.332 2291.78 547.233C2296.98 549.104 2301.39 552.259 2305.01 556.697C2308.66 561.172 2310.87 566.123 2311.63 571.551C2312.46 576.985 2311.93 582.282 2310.03 587.44C2308.19 592.605 2305.04 597.014 2300.56 600.667C2296.12 604.29 2291.17 606.498 2285.71 607.292C2280.27 608.122 2274.96 607.602 2269.76 605.73C2264.64 603.866 2260.25 600.696 2256.59 596.221ZM2329.6 773.914L2458.43 706.405L2481.25 749.939C2486.54 760.046 2489.05 769.264 2488.76 777.593C2488.54 785.942 2486.16 793.283 2481.62 799.617C2477.08 805.951 2471.01 811.107 2463.42 815.084C2455.83 819.062 2448.12 821.125 2440.29 821.274C2432.47 821.465 2425.04 819.319 2417.99 814.836C2410.98 810.331 2404.85 803.066 2399.59 793.043L2383.24 761.84L2397.08 754.588L2413.17 785.288C2416.8 792.208 2420.9 797.138 2425.49 800.08C2430.08 803.021 2434.9 804.37 2439.96 804.125C2445.08 803.901 2450.22 802.437 2455.38 799.734C2460.54 797.031 2464.65 793.649 2467.7 789.588C2470.78 785.57 2472.37 780.838 2472.45 775.393C2472.58 769.927 2470.81 763.691 2467.14 756.687L2452.77 729.259L2337.77 789.516L2329.6 773.914ZM2556.34 925.077L2562.56 941.554L2472.47 975.587C2463.17 979.101 2454.03 980.045 2445.07 978.421C2436.16 976.825 2428.11 972.857 2420.91 966.518C2413.75 960.162 2408.15 951.647 2404.12 940.972C2400.09 930.297 2398.66 920.209 2399.83 910.708C2401.04 901.19 2404.45 892.866 2410.06 885.737C2415.73 878.635 2423.21 873.328 2432.51 869.814L2522.61 835.781L2528.83 852.258L2440.07 885.789C2433.42 888.299 2428.06 891.995 2423.98 896.876C2419.95 901.74 2417.47 907.434 2416.54 913.959C2415.68 920.512 2416.67 927.575 2419.54 935.149C2422.4 942.723 2426.32 948.682 2431.3 953.026C2436.33 957.353 2441.95 959.986 2448.18 960.924C2454.46 961.89 2460.93 961.118 2467.57 958.608L2556.34 925.077ZM2436.83 1026.39L2578.15 991.93L2589.79 1039.68C2592.48 1050.72 2592.81 1060.24 2590.76 1068.24C2588.76 1076.24 2584.91 1082.73 2579.21 1087.73C2573.51 1092.73 2566.5 1096.24 2558.17 1098.27C2549.84 1100.3 2542.05 1100.4 2534.78 1098.57C2527.51 1096.73 2521.17 1092.75 2515.78 1086.6C2510.43 1080.45 2506.42 1071.9 2503.74 1060.95L2494.32 1022.31L2509.78 1018.55L2519.07 1056.63C2520.91 1064.18 2523.49 1069.98 2526.82 1074.04C2530.16 1078.15 2534.11 1080.74 2538.66 1081.83C2543.27 1082.94 2548.41 1082.81 2554.06 1081.43C2559.72 1080.05 2564.41 1077.79 2568.13 1074.64C2571.84 1071.49 2574.28 1067.32 2575.45 1062.11C2576.66 1056.89 2576.34 1050.46 2574.48 1042.83L2567.14 1012.74L2441.01 1043.51L2436.83 1026.39ZM2516.53 1077.43L2461.54 1127.69L2456.69 1107.81L2511.82 1058.11L2516.53 1077.43ZM2465.24 1150.97L2609.46 1132.06L2620.87 1219.1L2605.38 1221.13L2596.26 1151.55L2547.53 1157.94L2556.06 1223.01L2540.57 1225.04L2532.04 1159.97L2483.03 1166.4L2492.29 1237.1L2476.8 1239.13L2465.24 1150.97ZM2478.79 1264.74L2491.57 1264.44L2610.45 1340.04L2608.56 1260.8L2624.18 1260.43L2626.57 1360.69L2613.79 1360.99L2494.91 1285.39L2496.79 1364.63L2481.17 1365L2478.79 1264.74ZM2479.36 1400.35L2481 1381.96L2621.15 1448.05L2619.54 1466.16L2469.92 1506.47L2471.56 1488.07L2597.37 1455.63L2597.47 1454.5L2479.36 1400.35ZM2535.35 1412.18L2528.76 1486.32L2513.19 1484.93L2519.79 1410.79L2535.35 1412.18ZM2507.15 1762.2C2512.18 1762.18 2516.89 1761.53 2521.28 1760.26C2525.7 1759.05 2529.73 1757.18 2533.37 1754.67C2537 1752.21 2540.16 1749.1 2542.86 1745.34C2545.56 1741.59 2547.72 1737.21 2549.33 1732.2C2551.97 1724 2552.25 1715.86 2550.17 1707.78C2548.1 1699.7 2543.57 1692.35 2536.6 1685.73C2529.63 1679.11 2520.15 1673.87 2508.16 1670.02C2496.17 1666.16 2485.4 1664.91 2475.87 1666.27C2466.33 1667.62 2458.34 1671.05 2451.9 1676.53C2445.45 1682.02 2440.86 1689.05 2438.1 1697.61C2435.55 1705.54 2434.99 1713.07 2436.43 1720.2C2437.9 1727.39 2441.2 1733.67 2446.33 1739.05C2451.49 1744.5 2458.31 1748.58 2466.78 1751.31L2464.05 1756.1L2477.45 1714.45L2492.32 1719.23L2475.35 1771.97L2460.48 1767.18C2449.08 1763.52 2439.94 1757.89 2433.08 1750.31C2426.2 1742.78 2421.82 1734 2419.91 1723.99C2418.04 1714.04 2418.88 1703.56 2422.41 1692.56C2426.36 1680.3 2432.71 1670.46 2441.47 1663.03C2450.21 1655.65 2460.73 1651.08 2473.04 1649.31C2485.33 1647.6 2498.78 1649.09 2513.38 1653.79C2524.33 1657.31 2533.71 1661.95 2541.51 1667.69C2549.34 1673.49 2555.48 1680.09 2559.91 1687.49C2564.35 1694.88 2567.02 1702.81 2567.93 1711.26C2568.84 1719.71 2567.87 1728.37 2565.01 1737.25C2562.66 1744.55 2559.37 1751 2555.13 1756.6C2550.92 1762.26 2546.01 1766.93 2540.41 1770.59C2534.83 1774.32 2528.74 1776.96 2522.12 1778.51C2515.55 1780.08 2508.7 1780.41 2501.58 1779.51L2507.15 1762.2ZM2394.97 1777.55L2527.19 1838.17L2490.61 1917.97L2476.41 1911.46L2505.65 1847.67L2460.97 1827.19L2433.62 1886.84L2419.42 1880.33L2446.77 1820.68L2401.83 1800.08L2372.12 1864.9L2357.91 1858.38L2394.97 1777.55ZM2407.3 2059.45L2283.19 1983.6L2292.08 1969.05L2430.86 1960.97L2431.6 1959.76L2334.15 1900.21L2343.34 1885.18L2467.45 1961.03L2458.56 1975.57L2319.39 1983.74L2318.65 1984.96L2416.34 2044.66L2407.3 2059.45ZM2263.16 2012.39L2377.46 2102.34L2323.17 2171.33L2310.89 2161.66L2354.29 2106.52L2315.67 2076.13L2275.08 2127.7L2262.8 2118.03L2303.39 2066.46L2264.55 2035.89L2220.44 2091.93L2208.17 2082.26L2263.16 2012.39ZM2366.76 2139.83L2381.93 2173.83L2369.81 2189.24L2357.62 2151.44L2366.76 2139.83ZM2286.18 2190.16L2297.34 2201.09L2221.02 2279.04L2209.86 2268.11L2241.85 2235.43L2149.09 2144.6L2161.41 2132.02L2254.18 2222.84L2286.18 2190.16ZM2179.44 2316.88L2083.88 2207.22L2097.16 2195.65L2192.72 2305.31L2179.44 2316.88ZM2020.69 2378.99L2034.92 2368.61C2038.74 2372.09 2042.84 2374.61 2047.2 2376.18C2051.53 2377.77 2055.95 2378.53 2060.47 2378.46C2064.98 2378.45 2069.42 2377.67 2073.8 2376.12C2078.18 2374.57 2082.31 2372.37 2086.22 2369.52C2093.33 2364.33 2098.47 2357.83 2101.62 2350.02C2104.73 2342.24 2105.44 2333.61 2103.74 2324.12C2102 2314.67 2097.41 2304.85 2089.99 2294.68C2082.57 2284.5 2074.62 2277.14 2066.15 2272.6C2057.64 2268.08 2049.2 2266.12 2040.84 2266.71C2032.44 2267.33 2024.68 2270.23 2017.57 2275.42C2013.67 2278.27 2010.31 2281.54 2007.5 2285.23C2004.68 2288.93 2002.57 2292.9 2001.16 2297.15C1999.74 2301.47 1999.12 2305.93 1999.32 2310.54C1999.5 2315.21 2000.65 2319.88 2002.77 2324.55L1988.54 2334.93C1985.23 2328.14 1983.26 2321.34 1982.63 2314.54C1982 2307.73 1982.58 2301.12 1984.36 2294.73C1986.16 2288.37 1989.06 2282.42 1993.05 2276.87C1996.99 2271.36 2001.93 2266.43 2007.86 2262.11C2017.88 2254.8 2028.58 2250.74 2039.95 2249.95C2051.33 2249.15 2062.55 2251.63 2073.61 2257.4C2084.67 2263.16 2094.72 2272.24 2103.76 2284.63C2112.8 2297.02 2118.38 2309.37 2120.49 2321.66C2122.6 2333.95 2121.54 2345.39 2117.31 2355.98C2113.08 2366.57 2105.95 2375.52 2095.93 2382.83C2090 2387.16 2083.8 2390.36 2077.35 2392.43C2070.85 2394.53 2064.29 2395.45 2057.65 2395.2C2051.04 2394.98 2044.59 2393.53 2038.3 2390.85C2032.04 2388.21 2026.17 2384.26 2020.69 2378.99ZM1932.46 2316L1948.6 2307.03L1972.58 2460.11L1956.69 2468.94L1839.34 2367.76L1855.48 2358.79L1952.96 2444.69L1953.96 2444.14L1932.46 2316ZM1954.1 2368.97L1889.05 2405.13L1881.46 2391.48L1946.51 2355.32L1954.1 2368.97ZM1671.38 2545.77C1674.28 2552.41 1679.2 2556.76 1686.16 2558.82C1693.11 2560.87 1700.8 2560.62 1709.23 2558.07C1715.39 2556.21 1720.48 2553.58 1724.51 2550.19C1728.48 2546.82 1731.23 2542.99 1732.76 2538.72C1734.24 2534.46 1734.31 2530.11 1732.97 2525.67C1731.85 2521.96 1730 2519.03 1727.42 2516.89C1724.82 2514.81 1721.84 2513.31 1718.5 2512.39C1715.17 2511.52 1711.79 2510.98 1708.36 2510.78C1704.95 2510.62 1701.85 2510.59 1699.06 2510.69L1683.77 2511.16C1679.86 2511.3 1675.43 2511.21 1670.48 2510.87C1665.49 2510.55 1660.51 2509.56 1655.55 2507.89C1650.57 2506.28 1646.06 2503.64 1642.03 2499.96C1638 2496.28 1635 2491.18 1633.02 2484.65C1630.75 2477.13 1630.67 2469.73 1632.78 2462.47C1634.84 2455.22 1639.09 2448.66 1645.53 2442.81C1651.93 2436.97 1660.47 2432.43 1671.17 2429.2C1681.14 2426.19 1690.26 2425.18 1698.53 2426.2C1706.76 2427.22 1713.82 2429.98 1719.73 2434.48C1725.6 2438.99 1729.95 2444.97 1732.8 2452.42L1715.39 2457.68C1713.35 2452.56 1710.27 2448.74 1706.14 2446.23C1701.99 2443.78 1697.28 2442.43 1692.01 2442.19C1686.72 2442.01 1681.3 2442.76 1675.77 2444.43C1669.34 2446.37 1663.87 2449.16 1659.38 2452.79C1654.9 2456.47 1651.74 2460.64 1649.88 2465.31C1648.04 2470.02 1647.89 2474.92 1649.42 2479.99C1650.82 2484.61 1653.25 2487.99 1656.71 2490.11C1660.17 2492.23 1664.28 2493.56 1669.04 2494.09C1673.81 2494.63 1678.84 2494.84 1684.15 2494.72L1702.76 2494.44C1714.58 2494.28 1724.54 2496.14 1732.64 2500.03C1740.74 2503.91 1746.21 2510.54 1749.04 2519.93C1751.4 2527.72 1751.35 2535.16 1748.88 2542.23C1746.39 2549.37 1742.05 2555.62 1735.86 2561.01C1729.64 2566.45 1722.09 2570.51 1713.21 2573.2C1704.23 2575.91 1695.77 2576.71 1687.82 2575.6C1679.88 2574.54 1673.03 2571.86 1667.28 2567.56C1661.49 2563.28 1657.41 2557.66 1655.06 2550.7L1671.38 2545.77ZM1524.26 2612.75L1506.91 2615.77L1490.45 2520.88C1488.75 2511.08 1489.54 2501.93 1492.82 2493.43C1496.07 2484.99 1501.48 2477.83 1509.06 2471.95C1516.65 2466.11 1526.07 2462.22 1537.31 2460.27C1548.55 2458.32 1558.73 2458.81 1567.84 2461.75C1576.96 2464.73 1584.5 2469.65 1590.44 2476.5C1596.35 2483.4 1600.15 2491.75 1601.85 2501.55L1618.31 2596.44L1600.96 2599.45L1584.74 2505.96C1583.53 2498.96 1580.91 2493 1576.88 2488.08C1572.86 2483.2 1567.74 2479.69 1561.5 2477.55C1555.23 2475.47 1548.11 2475.12 1540.13 2476.5C1532.15 2477.89 1525.56 2480.62 1520.36 2484.69C1515.16 2488.81 1511.52 2493.84 1509.42 2499.78C1507.29 2505.77 1506.83 2512.27 1508.05 2519.26L1524.26 2612.75ZM1447.26 2476.34L1454.77 2621.6L1405.68 2624.14C1394.29 2624.73 1384.87 2623.15 1377.42 2619.41C1369.93 2615.72 1364.25 2610.49 1360.39 2603.72C1356.53 2596.95 1354.38 2589.29 1353.94 2580.73C1353.5 2572.17 1354.85 2564.3 1357.99 2557.12C1361.08 2549.95 1366.13 2544.09 1373.15 2539.56C1380.17 2535.07 1389.33 2532.53 1400.64 2531.95L1435.82 2530.13L1436.62 2545.74L1402.01 2547.52C1394.21 2547.93 1388.01 2549.6 1383.42 2552.54C1378.83 2555.48 1375.59 2559.3 1373.7 2563.99C1371.77 2568.74 1370.95 2574.02 1371.25 2579.84C1371.55 2585.65 1372.91 2590.8 1375.32 2595.27C1377.68 2599.75 1381.32 2603.16 1386.23 2605.52C1391.14 2607.92 1397.55 2608.92 1405.44 2608.51L1436.37 2606.91L1429.67 2477.25L1447.26 2476.34ZM1320.54 2481.02L1312.56 2626.25L1224.9 2621.43L1225.76 2605.83L1295.83 2609.68L1298.53 2560.61L1233 2557L1233.86 2541.4L1299.38 2545.01L1302.1 2495.65L1230.9 2491.73L1231.76 2476.13L1320.54 2481.02ZM1201.45 2472.56L1177.81 2616.08L1129.32 2608.09C1118.11 2606.25 1109.22 2602.81 1102.65 2597.8C1096.08 2592.83 1091.62 2586.74 1089.25 2579.54C1086.89 2572.34 1086.4 2564.51 1087.79 2556.05C1089.19 2547.59 1092.15 2540.38 1096.68 2534.41C1101.22 2528.44 1107.37 2524.17 1115.13 2521.61C1122.89 2519.1 1132.33 2518.76 1143.44 2520.59L1182.69 2527.05L1180.1 2542.75L1141.42 2536.38C1133.76 2535.12 1127.41 2535.22 1122.36 2536.69C1117.28 2538.16 1113.34 2540.77 1110.56 2544.54C1107.73 2548.34 1105.84 2553.12 1104.89 2558.87C1103.95 2564.61 1104.19 2569.81 1105.63 2574.46C1107.08 2579.12 1109.96 2583 1114.3 2586.11C1118.62 2589.27 1124.66 2591.49 1132.42 2592.77L1162.97 2597.8L1184.07 2469.7L1201.45 2472.56ZM1123.28 2525.9L1098.58 2455.61L1118.76 2458.94L1142.9 2529.14L1123.28 2525.9ZM1023.51 2587.36L1058.48 2446.17L1075.57 2450.41L1040.61 2591.6L1023.51 2587.36ZM884.88 2464.68C889.904 2450.18 896.862 2438.56 905.756 2429.82C914.65 2421.07 924.652 2415.42 935.763 2412.86C946.875 2410.29 958.291 2411.04 970.012 2415.11C981.733 2419.17 991.165 2425.65 998.306 2434.53C1005.45 2443.42 1009.81 2454.06 1011.38 2466.43C1012.96 2478.8 1011.23 2492.23 1006.21 2506.73C1001.18 2521.22 994.225 2532.84 985.331 2541.59C976.437 2550.33 966.435 2555.98 955.324 2558.55C944.213 2561.11 932.796 2560.36 921.075 2556.3C909.354 2552.24 899.922 2545.76 892.781 2536.87C885.639 2527.98 881.281 2517.35 879.706 2504.98C878.131 2492.6 879.856 2479.17 884.88 2464.68ZM900.985 2470.26C896.86 2482.16 895.37 2492.89 896.514 2502.46C897.614 2512.01 900.812 2520.06 906.11 2526.61C911.363 2533.14 918.15 2537.85 926.471 2540.73C934.792 2543.61 943.059 2544.12 951.272 2542.26C959.441 2540.38 966.934 2536.04 973.754 2529.23C980.528 2522.41 985.978 2513.05 990.102 2501.15C994.227 2489.25 995.739 2478.52 994.64 2468.97C993.496 2459.4 990.298 2451.35 985.044 2444.82C979.747 2438.27 972.937 2433.56 964.616 2430.68C956.295 2427.79 948.05 2427.29 939.882 2429.17C931.669 2431.03 924.175 2435.38 917.401 2442.2C910.582 2449 905.11 2458.36 900.985 2470.26ZM881.661 2384.29L817.44 2514.8L773.342 2493.1C763.146 2488.08 755.634 2482.22 750.806 2475.52C745.957 2468.86 743.445 2461.74 743.269 2454.16C743.094 2446.58 744.898 2438.94 748.682 2431.25C752.466 2423.56 757.393 2417.52 763.464 2413.12C769.534 2408.72 776.656 2406.42 784.828 2406.22C792.98 2406.06 802.111 2408.47 812.222 2413.44L847.908 2431.01L840.884 2445.28L805.708 2427.97C798.74 2424.54 792.631 2422.8 787.379 2422.75C782.085 2422.68 777.562 2424.04 773.811 2426.84C769.996 2429.66 766.803 2433.68 764.231 2438.91C761.66 2444.13 760.39 2449.18 760.421 2454.05C760.452 2458.92 762.09 2463.47 765.335 2467.71C768.56 2471.99 773.699 2475.86 780.751 2479.33L808.535 2493L865.858 2376.51L881.661 2384.29ZM791.381 2412.69L788.113 2338.26L806.466 2347.29L809.224 2421.47L791.381 2412.69Z" fill="#215A24"/>
</svg>
