<svg width="2684" height="2684" viewBox="0 0 2684 2684" fill="none" xmlns="http://www.w3.org/2000/svg">
<circle cx="1342" cy="1342" r="1342" fill="#8E8E8E"/>
<circle cx="1342" cy="1342" r="1048" fill="#F5F5F5"/>
<path fill-rule="evenodd" clip-rule="evenodd" d="M1152.79 1797.22L1152.79 1797.22C1152.56 1780.94 1151.22 1685.25 1152.82 1683.64C1153.08 1683.38 1154.47 1681.88 1156.66 1679.52L1156.66 1679.52C1169.04 1666.16 1206.94 1625.29 1210.4 1625.29C1210.4 1625.29 1470.33 1626.06 1472.08 1626.06C1473.83 1626.06 1529.66 1681.89 1529.66 1682.86C1529.66 1683.34 1529.66 1711.37 1529.66 1739.83C1529.66 1769.12 1529.66 1798.87 1529.66 1799.56C1529.66 1800.92 1429.83 1900.55 1428.67 1900.55H1350.61H1253.81C1252.45 1900.55 1152.82 1800.52 1152.82 1799.56C1152.82 1799.48 1152.81 1798.66 1152.79 1797.22ZM1287.08 1718.05C1301.52 1739.31 1300.3 1765.31 1284.35 1776.14C1268.41 1786.97 1243.79 1778.51 1229.35 1757.25C1214.92 1736 1216.14 1709.99 1232.08 1699.16C1248.03 1688.34 1272.65 1696.79 1287.08 1718.05ZM1399.57 1776.14C1383.62 1765.31 1382.4 1739.31 1396.84 1718.05C1411.27 1696.79 1435.89 1688.34 1451.84 1699.16C1467.78 1709.99 1469 1736 1454.57 1757.25C1440.13 1778.51 1415.51 1786.97 1399.57 1776.14Z" fill="#5A5A5A"/>
<path fill-rule="evenodd" clip-rule="evenodd" d="M1091.56 1733.06V1660.95C1112.15 1607.05 1133.68 1586.82 1186.94 1565.58H1312.55V886.35H1114.83C1049.69 886.35 982.235 953.808 982.235 1056.16H779.862C733.339 1038.32 660.299 978.93 740.318 884.024C772.884 852.233 844.064 787.722 868.255 784C807.776 784 672.86 808.192 617.033 904.959C561.206 1001.73 604.627 1100.35 633.316 1137.57C695.059 1197.54 781.222 1197.02 948.026 1196.01C971.028 1195.87 995.564 1195.73 1021.78 1195.73V1363.21L970.606 1414.38V1593.49C976.033 1611.33 1007.82 1664.21 1091.56 1733.06ZM1091.56 1339.95V1288.77C1121.8 1284.12 1180.89 1296.22 1175.31 1381.82L1147.04 1381.82L1124.13 1381.82C1121.8 1381.82 1091.56 1342.28 1091.56 1339.95Z" fill="#5A5A5A"/>
<path fill-rule="evenodd" clip-rule="evenodd" d="M1591.68 1733.07V1660.96C1571.1 1607.05 1549.57 1586.82 1496.31 1565.58H1370.7V886.353H1568.42C1633.55 886.353 1701.01 953.811 1701.01 1056.16H1903.39C1949.91 1038.33 2022.95 978.933 1942.93 884.026C1910.36 852.236 1839.18 787.725 1814.99 784.003C1875.47 784.003 2010.39 808.195 2066.21 904.962C2122.04 1001.73 2078.62 1100.36 2049.93 1137.58C1988.19 1197.54 1902.03 1197.02 1735.22 1196.02C1712.22 1195.88 1687.68 1195.73 1661.47 1195.73V1363.21L1712.64 1414.39V1593.5C1707.21 1611.33 1675.43 1664.21 1591.68 1733.07ZM1594.38 1339.95V1288.78C1564.14 1284.12 1505.06 1296.22 1510.64 1381.82C1510.64 1381.82 1559.49 1381.82 1561.81 1381.82C1564.14 1381.82 1594.38 1342.28 1594.38 1339.95Z" fill="#5A5A5A"/>
<path d="M958.974 1253.88H817.08C773.511 1288.03 754.341 1309.76 726.361 1351.58C831.895 1433.84 882.64 1426.03 958.974 1321.34V1253.88Z" fill="#5A5A5A"/>
<path d="M1724.27 1253.88H1866.17C1909.73 1288.03 1928.9 1309.76 1956.88 1351.58C1851.35 1433.84 1800.61 1426.03 1724.27 1321.34V1253.88Z" fill="#5A5A5A"/>
<path d="M369.965 2124.37C365.035 2129.68 363.019 2135.94 363.917 2143.13C364.815 2150.32 368.117 2157.27 373.824 2163.98C377.996 2168.89 382.44 2172.5 387.157 2174.83C391.842 2177.12 396.448 2178.12 400.973 2177.81C405.469 2177.47 409.483 2175.79 413.017 2172.79C415.975 2170.27 417.919 2167.4 418.85 2164.19C419.715 2160.97 419.899 2157.64 419.403 2154.21C418.871 2150.8 418.013 2147.49 416.829 2144.27C415.608 2141.09 414.394 2138.23 413.186 2135.72L406.643 2121.89C404.946 2118.36 403.261 2114.26 401.589 2109.59C399.886 2104.89 398.808 2099.93 398.354 2094.72C397.834 2089.5 398.455 2084.31 400.215 2079.15C401.975 2073.98 405.452 2069.19 410.645 2064.77C416.631 2059.68 423.376 2056.65 430.877 2055.67C438.348 2054.66 446.055 2055.94 453.997 2059.5C461.908 2063.03 469.484 2069.05 476.725 2077.56C483.474 2085.49 488.039 2093.45 490.418 2101.44C492.766 2109.39 493.061 2116.97 491.304 2124.18C489.516 2131.36 485.776 2137.74 480.086 2143.33L468.305 2129.48C472.181 2125.56 474.447 2121.21 475.101 2116.43C475.689 2111.64 475.04 2106.78 473.152 2101.86C471.199 2096.93 468.35 2092.27 464.607 2087.87C460.251 2082.75 455.509 2078.86 450.384 2076.19C445.222 2073.56 440.132 2072.33 435.113 2072.49C430.059 2072.69 425.512 2074.5 421.473 2077.94C417.795 2081.07 415.676 2084.64 415.117 2088.66C414.557 2092.68 414.983 2096.98 416.394 2101.56C417.805 2106.15 419.626 2110.84 421.857 2115.66L429.56 2132.6C434.434 2143.38 436.711 2153.25 436.391 2162.23C436.07 2171.2 432.177 2178.87 424.711 2185.22C418.509 2190.49 411.672 2193.42 404.203 2193.99C396.667 2194.56 389.195 2193.08 381.787 2189.56C374.312 2186.04 367.568 2180.74 361.554 2173.67C355.48 2166.53 351.36 2159.1 349.196 2151.37C346.996 2143.66 346.715 2136.32 348.353 2129.33C349.961 2122.31 353.483 2116.32 358.92 2111.39L369.965 2124.37ZM423.51 2016.03L303.226 2097.82L253.868 2025.22L266.789 2016.44L306.244 2074.46L346.886 2046.83L309.987 1992.56L322.909 1983.78L359.808 2038.04L400.685 2010.25L360.592 1951.28L373.513 1942.5L423.51 2016.03ZM357.829 1916.32L230.009 1985.74L221.603 1970.26L335.692 1908.3L303.423 1848.88L317.153 1841.42L357.829 1916.32ZM195.303 1735.02C209.53 1729.28 222.86 1726.89 235.296 1727.84C247.731 1728.8 258.566 1732.62 267.801 1739.31C277.036 1746 283.975 1755.09 288.617 1766.6C293.26 1778.1 294.578 1789.47 292.573 1800.69C290.567 1811.92 285.42 1822.19 277.13 1831.51C268.841 1840.83 257.584 1848.36 243.357 1854.1C229.131 1859.84 215.8 1862.23 203.365 1861.28C190.93 1860.32 180.094 1856.5 170.859 1849.81C161.625 1843.12 154.686 1834.02 150.044 1822.52C145.401 1811.01 144.083 1799.65 146.088 1788.42C148.094 1777.2 153.241 1766.93 161.53 1757.61C169.82 1748.29 181.077 1740.76 195.303 1735.02ZM201.682 1750.83C190.003 1755.54 180.934 1761.47 174.476 1768.62C168 1775.73 164.036 1783.43 162.584 1791.72C161.115 1799.98 162.028 1808.19 165.324 1816.35C168.619 1824.52 173.669 1831.09 180.472 1836.05C187.257 1840.97 195.455 1843.76 205.068 1844.43C214.662 1845.05 225.299 1843 236.979 1838.29C248.658 1833.58 257.736 1827.67 264.212 1820.56C270.67 1813.41 274.634 1805.71 276.103 1797.46C277.555 1789.16 276.633 1780.93 273.337 1772.76C270.042 1764.6 265.001 1758.05 258.216 1753.13C251.413 1748.17 243.214 1745.37 233.62 1744.75C224.008 1744.09 213.362 1746.11 201.682 1750.83ZM235.943 1615.5L93.3836 1644.38L83.2883 1594.54C81.2768 1584.61 81.3348 1576.07 83.4622 1568.92C85.5433 1561.79 89.1415 1556.06 94.2566 1551.74C99.3254 1547.43 105.34 1544.57 112.301 1543.16C118.427 1541.91 123.706 1541.98 128.139 1543.35C132.562 1544.68 136.291 1546.87 139.326 1549.93C142.351 1552.94 144.834 1556.37 146.775 1560.23L148.167 1559.95C147.562 1555.53 148.205 1550.83 150.096 1545.86C151.988 1540.89 155.232 1536.39 159.827 1532.37C164.423 1528.35 170.48 1525.57 177.998 1524.05C185.145 1522.6 191.901 1522.93 198.267 1525.02C204.633 1527.11 210.196 1531.32 214.956 1537.65C219.717 1543.98 223.235 1552.76 225.509 1563.99L235.943 1615.5ZM217.132 1601.34L210.195 1567.1C207.911 1555.82 204.109 1548.26 198.788 1544.41C193.411 1540.52 187.59 1539.21 181.325 1540.48C176.499 1541.46 172.293 1543.59 168.708 1546.88C165.076 1550.17 162.491 1554.34 160.952 1559.39C159.368 1564.44 159.205 1570.08 160.465 1576.3L167.571 1611.38L217.132 1601.34ZM152.535 1614.43L146.049 1582.41C144.997 1577.21 143.026 1572.73 140.138 1568.97C137.241 1565.16 133.687 1562.4 129.477 1560.69C125.256 1558.94 120.641 1558.57 115.629 1559.58C109.364 1560.85 104.492 1564.11 101.014 1569.36C97.4885 1574.61 96.6848 1581.97 98.6023 1591.44L105.201 1624.02L152.535 1614.43ZM59.8216 1403.94L58.4514 1386.38L154.466 1378.89C164.379 1378.11 173.413 1379.76 181.566 1383.83C189.669 1387.85 196.292 1393.91 201.436 1402.01C206.532 1410.11 209.524 1419.85 210.412 1431.23C211.3 1442.6 209.855 1452.69 206.077 1461.49C202.251 1470.29 196.65 1477.32 189.273 1482.6C181.846 1487.84 173.175 1490.84 163.262 1491.61L67.2471 1499.1L65.8769 1481.54L160.476 1474.16C167.556 1473.61 173.737 1471.56 179.017 1468.01C184.249 1464.47 188.222 1459.7 190.936 1453.69C193.598 1447.64 194.615 1440.58 193.985 1432.51C193.355 1424.44 191.256 1417.62 187.687 1412.06C184.071 1406.5 179.406 1402.4 173.691 1399.76C167.925 1397.07 161.501 1396.01 154.42 1396.56L59.8216 1403.94ZM202.762 1340.06L57.4079 1334.65L60.6497 1247.5L76.2639 1248.08L73.6768 1317.63L122.791 1319.46L125.135 1256.43L140.749 1257.01L138.405 1320.04L203.417 1322.46L202.762 1340.06ZM208.919 1222.96L64.8783 1202.73L77.0106 1116.36L92.4837 1118.54L82.8016 1187.46L131.471 1194.3L140.245 1131.84L155.718 1134.02L146.945 1196.47L211.369 1205.52L208.919 1222.96ZM140.814 1003.3C133.627 1002.37 127.364 1004.35 122.023 1009.25C116.683 1014.15 112.934 1020.87 110.778 1029.41C109.201 1035.66 108.831 1041.37 109.668 1046.57C110.517 1051.71 112.378 1056.04 115.252 1059.55C118.138 1063.01 121.83 1065.31 126.329 1066.45C130.093 1067.4 133.556 1067.32 136.716 1066.22C139.843 1065.05 142.661 1063.27 145.17 1060.88C147.633 1058.47 149.833 1055.86 151.769 1053.02C153.659 1050.18 155.279 1047.54 156.629 1045.09L164.103 1031.75C165.994 1028.32 168.357 1024.57 171.192 1020.5C174.039 1016.38 177.453 1012.63 181.434 1009.24C185.382 1005.79 189.97 1003.29 195.199 1001.73C200.428 1000.17 206.347 1000.22 212.958 1001.89C220.578 1003.82 226.96 1007.55 232.103 1013.1C237.257 1018.6 240.685 1025.62 242.387 1034.16C244.101 1042.65 243.589 1052.31 240.853 1063.14C238.302 1073.24 234.463 1081.58 229.337 1088.15C224.222 1094.67 218.217 1099.3 211.32 1102.05C204.434 1104.76 197.066 1105.41 189.215 1104.02L193.667 1086.39C199.108 1087.27 203.967 1086.6 208.245 1084.36C212.488 1082.06 216.067 1078.71 218.983 1074.32C221.865 1069.87 224.013 1064.85 225.428 1059.25C227.074 1052.73 227.497 1046.61 226.695 1040.89C225.848 1035.16 223.902 1030.29 220.857 1026.3C217.766 1022.3 213.65 1019.65 208.508 1018.35C203.826 1017.17 199.685 1017.51 196.086 1019.39C192.487 1021.26 189.23 1024.1 186.316 1027.91C183.401 1031.71 180.629 1035.92 178 1040.53L168.659 1056.63C162.708 1066.85 155.983 1074.43 148.484 1079.37C140.985 1084.31 132.484 1085.59 122.981 1083.19C115.085 1081.19 108.738 1077.32 103.94 1071.56C99.1084 1065.75 95.9787 1058.81 94.5513 1050.73C93.0896 1042.6 93.4951 1034.03 95.7677 1025.03C98.0635 1015.94 101.734 1008.28 106.779 1002.03C111.778 995.773 117.6 991.285 124.244 988.568C130.9 985.805 137.814 985.207 144.988 986.775L140.814 1003.3ZM260.373 869.405C258.077 874.654 254.7 878.887 250.243 882.105C245.742 885.305 240.754 887.257 235.277 887.961C229.82 888.623 224.466 887.806 219.218 885.509C213.925 883.194 209.692 879.817 206.517 875.379C203.318 870.878 201.388 865.899 200.726 860.442C200.021 854.965 200.817 849.602 203.113 844.354C205.429 839.061 208.827 834.837 213.309 831.682C217.766 828.464 222.723 826.524 228.181 825.862C233.614 825.138 238.977 825.934 244.269 828.249C249.518 830.546 253.742 833.944 256.941 838.445C260.159 842.902 262.12 847.869 262.825 853.345C263.506 858.76 262.688 864.113 260.373 869.405ZM343.302 608.218L333.583 622.907C328.783 620.98 324.065 620.044 319.43 620.099C314.82 620.115 310.411 620.944 306.201 622.587C301.978 624.164 298.085 626.443 294.524 629.423C290.962 632.403 287.849 635.907 285.184 639.935C280.324 647.279 277.777 655.161 277.543 663.579C277.336 671.959 279.682 680.296 284.583 688.592C289.509 696.848 297.225 704.451 307.728 711.401C318.231 718.352 328.246 722.48 337.771 723.787C347.323 725.054 355.914 723.954 363.545 720.487C371.202 716.981 377.46 711.555 382.32 704.211C384.985 700.183 386.993 695.948 388.344 691.504C389.694 687.061 390.289 682.601 390.129 678.123C389.956 673.58 388.976 669.184 387.188 664.935C385.388 660.621 382.682 656.645 379.071 653.007L388.791 638.318C394.259 643.525 398.474 649.21 401.437 655.372C404.4 661.534 406.162 667.923 406.723 674.54C407.245 681.131 406.604 687.719 404.801 694.304C403.025 700.85 400.111 707.183 396.062 713.304C389.216 723.649 380.601 731.177 370.216 735.888C359.832 740.599 348.452 742.181 336.076 740.635C323.7 739.088 311.115 734.082 298.322 725.617C285.528 717.151 276 707.525 269.739 696.739C263.477 685.953 260.484 674.86 260.76 663.46C261.036 652.06 264.597 641.188 271.442 630.842C275.492 624.722 280.182 619.564 285.513 615.37C290.869 611.136 296.702 607.984 303.012 605.914C309.281 603.817 315.831 602.928 322.661 603.246C329.452 603.538 336.332 605.195 343.302 608.218ZM443.993 640.979L332.859 547.137L344.223 533.68L443.419 617.441L487.041 565.781L498.979 575.862L443.993 640.979ZM528.225 545.31L514.809 557.999L453.658 415.626L466.867 403.132L605.621 472.103L592.206 484.792L476.488 425.706L475.663 426.487L528.225 545.31ZM494.134 499.347L548.208 448.199L558.945 459.551L504.871 510.698L494.134 499.347ZM621.586 323.132C616.589 317.882 610.473 315.483 603.238 315.933C596.002 316.383 588.861 319.248 581.812 324.528C576.658 328.389 572.773 332.601 570.157 337.164C567.578 341.698 566.302 346.233 566.328 350.769C566.391 355.277 567.814 359.388 570.596 363.101C572.924 366.209 575.664 368.327 578.817 369.456C581.979 370.518 585.288 370.908 588.745 370.626C592.173 370.306 595.531 369.655 598.817 368.672C602.075 367.651 604.997 366.616 607.583 365.566L621.791 359.893C625.419 358.418 629.615 356.991 634.379 355.611C639.181 354.203 644.195 353.434 649.423 353.304C654.66 353.109 659.801 354.049 664.847 356.126C669.893 358.203 674.46 361.97 678.548 367.427C683.26 373.717 685.87 380.637 686.377 388.184C686.921 395.704 685.17 403.316 681.121 411.022C677.111 418.7 670.634 425.888 661.691 432.587C653.354 438.832 645.127 442.895 637.011 444.774C628.932 446.626 621.347 446.451 614.255 444.249C607.202 442.02 601.063 437.892 595.839 431.866L610.391 420.966C614.063 425.078 618.266 427.609 623 428.559C627.744 429.442 632.631 429.095 637.66 427.516C642.699 425.871 647.53 423.317 652.153 419.854C657.534 415.823 661.713 411.333 664.69 406.382C667.638 401.393 669.184 396.389 669.329 391.37C669.446 386.313 667.914 381.663 664.735 377.419C661.84 373.553 658.404 371.217 654.427 370.41C650.45 369.602 646.132 369.761 641.472 370.885C636.812 372.009 632.01 373.536 627.066 375.464L609.676 382.102C598.622 386.3 588.626 387.96 579.687 387.084C570.748 386.207 563.34 381.847 557.464 374.003C552.582 367.485 550.086 360.48 549.977 352.99C549.877 345.433 551.813 338.066 555.786 330.891C559.767 323.649 565.472 317.246 572.899 311.682C580.403 306.062 588.08 302.411 595.931 300.73C603.754 299.011 611.103 299.186 617.976 301.254C624.888 303.295 630.639 307.181 635.228 312.912L621.586 323.132ZM739.743 248.991C735.362 243.218 729.551 240.152 722.311 239.794C715.07 239.435 707.654 241.487 700.061 245.949C694.509 249.212 690.179 252.965 687.071 257.208C684.004 261.427 682.23 265.792 681.751 270.302C681.312 274.789 682.268 279.033 684.619 283.033C686.586 286.381 689.073 288.791 692.081 290.263C695.105 291.672 698.35 292.428 701.817 292.533C705.26 292.596 708.669 292.323 712.044 291.712C715.396 291.061 718.415 290.357 721.102 289.602L735.853 285.546C739.622 284.484 743.951 283.533 748.839 282.693C753.768 281.828 758.837 281.622 764.047 282.076C769.273 282.465 774.277 283.972 779.061 286.598C783.844 289.224 787.963 293.476 791.418 299.354C795.4 306.13 797.223 313.297 796.886 320.854C796.59 328.387 794.001 335.758 789.12 342.965C784.28 350.148 777.043 356.57 767.409 362.232C758.428 367.51 749.8 370.63 741.525 371.595C733.29 372.535 725.772 371.516 718.969 368.539C712.208 365.537 706.567 360.752 702.047 354.182L717.722 344.97C720.913 349.465 724.808 352.448 729.408 353.919C734.023 355.326 738.918 355.525 744.092 354.516C749.283 353.443 754.368 351.443 759.348 348.516C765.145 345.109 769.798 341.112 773.307 336.523C776.793 331.894 778.887 327.093 779.59 322.122C780.269 317.11 779.265 312.317 776.578 307.745C774.131 303.582 770.977 300.877 767.114 299.632C763.252 298.387 758.943 298.063 754.187 298.662C749.431 299.26 744.489 300.242 739.361 301.608L721.339 306.268C709.887 309.209 699.768 309.746 690.982 307.879C682.197 306.013 675.321 300.854 670.355 292.404C666.229 285.383 664.529 278.144 665.254 270.688C665.997 263.167 668.741 256.062 673.488 249.374C678.251 242.62 684.633 236.892 692.634 232.19C700.717 227.441 708.753 224.667 716.743 223.871C724.709 223.034 731.992 224.027 738.592 226.848C745.234 229.645 750.516 234.147 754.438 240.354L739.743 248.991ZM789.345 181.443L852.842 312.306L836.996 319.995L773.498 189.133L789.345 181.443ZM885.142 298.099L831.615 162.851L912.71 130.756L918.46 145.284L853.742 170.898L871.829 216.597L930.471 193.388L936.221 207.916L877.579 231.125L901.519 291.617L885.142 298.099ZM968.302 112.05L1011.5 250.942L994.678 256.173L951.483 117.28L968.302 112.05ZM1138.77 119.387L1121.55 123.125C1119.46 118.395 1116.73 114.432 1113.38 111.237C1110.06 108.032 1106.33 105.549 1102.16 103.788C1098.04 101.97 1093.66 100.886 1089.03 100.535C1084.4 100.184 1079.72 100.521 1075 101.546C1066.4 103.415 1059.07 107.283 1053.03 113.15C1047.04 119.006 1042.9 126.616 1040.62 135.977C1038.39 145.329 1038.61 156.159 1041.28 168.466C1043.95 180.774 1048.24 190.72 1054.15 198.303C1060.11 205.876 1067.03 211.083 1074.92 213.926C1082.85 216.758 1091.12 217.239 1099.72 215.37C1104.44 214.345 1108.84 212.713 1112.91 210.472C1116.97 208.232 1120.51 205.453 1123.52 202.134C1126.57 198.759 1128.93 194.927 1130.62 190.636C1132.34 186.289 1133.18 181.553 1133.13 176.428L1150.34 172.69C1150.62 180.235 1149.68 187.249 1147.5 193.73C1145.32 200.211 1142.12 206.017 1137.91 211.148C1133.68 216.232 1128.63 220.504 1122.74 223.963C1116.9 227.411 1110.39 229.914 1103.22 231.472C1091.1 234.105 1079.67 233.485 1068.95 229.612C1058.22 225.739 1048.97 218.931 1041.18 209.187C1033.4 199.443 1027.88 187.075 1024.62 172.084C1021.37 157.092 1021.26 143.549 1024.3 131.454C1027.34 119.358 1032.94 109.324 1041.09 101.352C1049.25 93.3794 1059.39 88.0769 1071.51 85.4441C1078.68 83.8866 1085.64 83.4656 1092.38 84.1811C1099.17 84.8866 1105.55 86.6995 1111.52 89.6196C1117.47 92.4935 1122.78 96.4273 1127.45 101.421C1132.11 106.369 1135.88 112.357 1138.77 119.387ZM1193.97 212.621L1175.58 214.349L1215.15 64.5357L1233.25 62.8346L1300.03 202.654L1281.65 204.382L1226.92 86.5424L1225.79 86.6487L1193.97 212.621ZM1195.44 155.415L1269.55 148.451L1271.01 164.007L1196.9 170.971L1195.44 155.415ZM1435.3 106.227L1417.69 105.787C1416.78 100.696 1415.07 96.2011 1412.56 92.3019C1410.1 88.4039 1407.06 85.1071 1403.43 82.4114C1399.85 79.6695 1395.85 77.5802 1391.44 76.1436C1387.02 74.7069 1382.4 73.9282 1377.57 73.8074C1368.77 73.5871 1360.73 75.6123 1353.48 79.8828C1346.26 84.1546 1340.44 90.5688 1336.01 99.1255C1331.63 107.683 1329.28 118.258 1328.97 130.848C1328.65 143.439 1330.47 154.118 1334.42 162.884C1338.42 171.651 1343.91 178.349 1350.9 182.976C1357.93 187.604 1365.85 190.028 1374.66 190.248C1379.49 190.369 1384.14 189.822 1388.62 188.608C1393.11 187.394 1397.2 185.531 1400.91 183.019C1404.67 180.461 1407.88 177.297 1410.53 173.526C1413.23 169.71 1415.16 165.306 1416.33 160.315L1433.94 160.756C1432.42 168.154 1429.84 174.744 1426.19 180.526C1422.55 186.307 1418.07 191.192 1412.76 195.18C1407.45 199.12 1401.52 202.074 1394.99 204.042C1388.5 206.011 1381.58 206.904 1374.25 206.72C1361.84 206.41 1350.89 203.105 1341.39 196.805C1331.88 190.504 1324.5 181.699 1319.24 170.39C1313.98 159.081 1311.55 145.758 1311.93 130.422C1312.31 115.086 1315.41 101.902 1321.23 90.8696C1327.05 79.8374 1334.86 71.4127 1344.67 65.5956C1354.48 59.7785 1365.58 57.025 1377.98 57.3353C1385.32 57.5188 1392.18 58.7561 1398.56 61.0472C1405 63.3395 1410.76 66.6097 1415.87 70.858C1420.97 75.059 1425.2 80.138 1428.56 86.095C1431.91 92.0046 1434.16 98.7154 1435.3 106.227ZM1366.9 205.116L1380.81 205.464L1379.53 211.115C1383.21 211.776 1386.56 213.399 1389.57 215.984C1392.58 218.617 1394.02 222.703 1393.88 228.241C1393.73 234.347 1391.07 239.254 1385.91 242.961C1380.8 246.717 1373.34 248.472 1363.54 248.227L1363.25 237.137C1367.66 237.247 1371.32 236.628 1374.24 235.28C1377.21 233.981 1378.74 231.698 1378.82 228.432C1378.9 225.166 1377.75 222.912 1375.36 221.668C1372.98 220.424 1369.09 219.522 1363.71 218.961L1366.9 205.116ZM1466.88 209.856L1448.61 207.2L1522.38 70.9373L1540.37 73.5518L1572.31 225.175L1554.04 222.519L1528.63 95.0985L1527.51 94.9351L1466.88 209.856ZM1481.8 154.608L1555.46 165.311L1553.21 180.774L1479.56 170.071L1481.8 154.608ZM1511.81 54.761L1498.96 52.3196C1500 45.1505 1502.89 39.5897 1507.63 35.6369C1512.42 31.6441 1517.84 30.0869 1523.88 30.9652C1526.55 31.3533 1528.85 32.1657 1530.78 33.4024C1532.71 34.5922 1534.53 35.909 1536.23 37.3528C1537.94 38.7965 1539.7 40.1299 1541.53 41.353C1543.42 42.536 1545.63 43.3114 1548.16 43.6791C1550.83 44.0671 1553.23 43.3631 1555.36 41.5669C1557.54 39.7308 1558.84 37.3367 1559.27 34.3847L1571.76 37.3476C1570.7 44.6572 1567.79 50.1678 1563.04 53.8794C1558.34 57.5979 1552.96 59.018 1546.92 58.1397C1543.69 57.6699 1541.08 56.8367 1539.1 55.64C1537.13 54.3965 1535.41 53.0699 1533.94 51.6602C1532.47 50.2505 1530.88 48.9677 1529.19 47.8119C1527.49 46.6093 1525.31 45.8139 1522.64 45.4258C1519.97 45.0377 1517.59 45.7686 1515.51 47.6184C1513.47 49.4282 1512.24 51.809 1511.81 54.761ZM1725.06 191.944C1721 206.738 1714.81 218.788 1706.51 228.096C1698.21 237.404 1688.6 243.701 1677.68 246.987C1666.76 250.274 1655.32 250.274 1643.36 246.988C1631.4 243.703 1621.56 237.859 1613.85 229.457C1606.14 221.055 1601.1 210.732 1598.71 198.49C1596.33 186.247 1597.17 172.73 1601.24 157.937C1605.3 143.143 1611.48 131.093 1619.78 121.785C1628.08 112.477 1637.69 106.18 1648.61 102.894C1659.53 99.6074 1670.97 99.6071 1682.94 102.893C1694.9 106.178 1704.73 112.022 1712.44 120.424C1720.15 128.826 1725.2 139.149 1727.58 151.391C1729.96 163.634 1729.12 177.151 1725.06 191.944ZM1708.62 187.43C1711.96 175.285 1712.74 164.477 1710.97 155.006C1709.25 145.547 1705.53 137.725 1699.81 131.539C1694.14 125.366 1687.06 121.114 1678.57 118.781C1670.08 116.449 1661.8 116.482 1653.72 118.88C1645.7 121.291 1638.5 126.116 1632.14 133.356C1625.83 140.608 1621.01 150.306 1617.67 162.451C1614.34 174.596 1613.53 185.398 1615.25 194.857C1617.02 204.328 1620.74 212.15 1626.41 218.323C1632.13 224.508 1639.23 228.767 1647.72 231.1C1656.22 233.432 1664.48 233.393 1672.5 230.982C1680.58 228.584 1687.77 223.758 1694.08 216.507C1700.44 209.267 1705.29 199.575 1708.62 187.43ZM1914.56 233.125C1916.93 226.275 1916.25 219.741 1912.52 213.521C1908.8 207.302 1902.97 202.276 1895.05 198.441C1889.25 195.638 1883.72 194.122 1878.47 193.895C1873.26 193.689 1868.64 194.639 1864.62 196.746C1860.65 198.874 1857.65 202.027 1855.63 206.204C1853.94 209.699 1853.32 213.106 1853.77 216.425C1854.27 219.722 1855.45 222.841 1857.29 225.781C1859.15 228.679 1861.27 231.362 1863.65 233.829C1866.06 236.254 1868.32 238.373 1870.44 240.188L1882.01 250.2C1884.98 252.744 1888.18 255.815 1891.59 259.412C1895.05 263.03 1898.04 267.131 1900.55 271.714C1903.13 276.276 1904.66 281.274 1905.14 286.71C1905.61 292.147 1904.36 297.934 1901.39 304.072C1897.97 311.148 1893.03 316.645 1886.56 320.563C1880.13 324.502 1872.56 326.444 1863.86 326.39C1855.19 326.356 1845.83 323.906 1835.77 319.041C1826.4 314.506 1819.01 309.066 1813.61 302.721C1808.25 296.396 1804.92 289.579 1803.62 282.269C1802.36 274.979 1803.2 267.63 1806.16 260.222L1822.52 268.138C1820.56 273.289 1820.24 278.185 1821.57 282.826C1822.97 287.445 1825.52 291.626 1829.24 295.367C1833.01 299.087 1837.5 302.204 1842.7 304.719C1848.75 307.646 1854.66 309.294 1860.43 309.663C1866.21 309.989 1871.37 309.063 1875.89 306.886C1880.44 304.666 1883.86 301.169 1886.17 296.395C1888.28 292.047 1888.77 287.922 1887.66 284.019C1886.55 280.116 1884.43 276.353 1881.29 272.731C1878.15 269.109 1874.58 265.545 1870.6 262.04L1856.71 249.644C1847.91 241.756 1841.84 233.64 1838.51 225.298C1835.18 216.956 1835.65 208.373 1839.92 199.55C1843.46 192.218 1848.54 186.783 1855.14 183.244C1861.8 179.683 1869.24 178.018 1877.44 178.249C1885.7 178.457 1894 180.582 1902.36 184.622C1910.8 188.704 1917.57 193.845 1922.67 200.046C1927.79 206.205 1931.01 212.812 1932.33 219.867C1933.7 226.943 1932.89 233.837 1929.91 240.547L1914.56 233.125ZM1909.25 353.927L1986.84 230.896L2028.41 257.113C2038.03 263.174 2044.88 269.792 2048.98 276.966C2053.1 284.099 2054.85 291.444 2054.23 299C2053.6 306.556 2051.01 313.959 2046.43 321.208C2041.86 328.457 2036.33 333.95 2029.83 337.688C2023.33 341.426 2016 342.965 2007.86 342.304C1999.73 341.604 1990.91 338.248 1981.37 332.237L1947.73 311.02L1956.22 297.564L1989.38 318.477C1995.95 322.619 2001.84 324.992 2007.06 325.595C2012.31 326.224 2016.96 325.344 2020.98 322.957C2025.07 320.554 2028.67 316.89 2031.78 311.964C2034.88 307.038 2036.68 302.151 2037.16 297.305C2037.64 292.459 2036.49 287.759 2033.71 283.205C2030.95 278.612 2026.25 274.219 2019.6 270.026L1993.41 253.508L1924.15 363.323L1909.25 353.927ZM2002.02 335.181L1997.44 409.544L1980.14 398.633L1985.2 324.573L2002.02 335.181ZM2051.04 452.118L2016.18 423.835L2107.83 310.887L2144.23 340.422C2155.19 349.313 2162.73 359.182 2166.85 370.029C2171.01 380.839 2171.75 392.14 2169.07 403.931C2166.42 415.685 2160.36 427.408 2150.87 439.1C2141.32 450.865 2131.01 459.294 2119.92 464.386C2108.87 469.442 2097.49 470.997 2085.77 469.052C2074.09 467.071 2062.51 461.426 2051.04 452.118ZM2039.71 422.8L2060 439.269C2069.34 446.847 2078.54 451.325 2087.6 452.704C2096.67 454.083 2105.41 452.668 2113.82 448.46C2122.24 444.252 2130.17 437.551 2137.63 428.36C2145.03 419.241 2149.91 410.183 2152.27 401.185C2154.67 392.151 2154.33 383.467 2151.28 375.134C2148.25 366.765 2142.33 359 2133.5 351.84L2111.66 334.118L2039.71 422.8ZM2230.07 564.855C2226.3 560.546 2223.9 555.689 2222.88 550.287C2221.9 544.853 2222.25 539.508 2223.94 534.251C2225.66 529.03 2228.68 524.532 2232.99 520.758C2237.33 516.952 2242.19 514.555 2247.56 513.569C2252.99 512.586 2258.32 512.956 2263.54 514.677C2268.8 516.367 2273.31 519.367 2277.09 523.677C2280.89 528.022 2283.27 532.894 2284.22 538.292C2285.24 543.695 2284.89 549.006 2283.17 554.227C2281.51 559.453 2278.51 563.969 2274.17 567.775C2269.86 571.549 2264.99 573.928 2259.55 574.91C2254.15 575.928 2248.82 575.592 2243.56 573.902C2238.37 572.216 2233.88 569.201 2230.07 564.855ZM2288.18 708.016L2278.49 692.3L2430.33 661.4L2439.87 676.875L2344.11 798.69L2334.41 782.974L2415.81 681.701L2415.21 680.734L2288.18 708.016ZM2340.12 683.992L2379.19 747.343L2365.9 755.546L2326.82 692.195L2340.12 683.992ZM2534.17 863.686L2401.78 923.93L2394.72 908.415L2465.84 788.971L2465.25 787.678L2361.3 834.978L2354.01 818.947L2486.4 758.703L2493.46 774.218L2422.2 894.038L2422.79 895.331L2527 847.913L2534.17 863.686ZM2557.95 924.96L2420.7 973.115L2414.87 956.495L2552.12 908.34L2557.95 924.96ZM2572.11 973.069L2577.01 993.513L2471.1 1069.71L2471.5 1071.36L2600.43 1091.32L2605.33 1111.76L2463.87 1145.64L2460.04 1129.61L2567.51 1103.87L2567.18 1102.49L2449.12 1084.03L2445.41 1068.55L2542.3 998.612L2541.97 997.231L2434.5 1022.97L2430.66 1006.94L2572.11 973.069ZM2470.25 1186.14L2468.45 1167.76L2618.42 1206.73L2620.2 1224.83L2480.64 1292.17L2478.84 1273.79L2596.46 1218.59L2596.35 1217.46L2470.25 1186.14ZM2527.47 1187.39L2534.72 1261.46L2519.17 1262.99L2511.92 1188.91L2527.47 1187.39ZM2480.95 1314.72L2626.4 1316.16L2626.22 1333.78L2496.4 1332.49L2495.73 1400.1L2480.11 1399.94L2480.95 1314.72ZM2564.97 1590.48C2572.21 1590.88 2578.31 1588.43 2583.27 1583.15C2588.22 1577.86 2591.46 1570.88 2592.97 1562.2C2594.08 1555.86 2594.02 1550.13 2592.8 1545.01C2591.57 1539.94 2589.39 1535.77 2586.26 1532.48C2583.12 1529.24 2579.27 1527.23 2574.7 1526.43C2570.87 1525.76 2567.42 1526.1 2564.36 1527.44C2561.32 1528.83 2558.65 1530.82 2556.32 1533.39C2554.05 1535.98 2552.05 1538.75 2550.33 1541.72C2548.66 1544.7 2547.24 1547.45 2546.08 1549.99L2539.62 1563.86C2537.99 1567.42 2535.92 1571.34 2533.39 1575.61C2530.86 1579.92 2527.74 1583.92 2524.02 1587.6C2520.34 1591.33 2515.95 1594.17 2510.86 1596.12C2505.76 1598.06 2499.85 1598.45 2493.13 1597.28C2485.39 1595.93 2478.75 1592.68 2473.21 1587.54C2467.65 1582.43 2463.71 1575.69 2461.38 1567.31C2459.03 1558.97 2458.82 1549.29 2460.74 1538.29C2462.53 1528.02 2465.73 1519.43 2470.36 1512.49C2474.97 1505.61 2480.61 1500.54 2487.28 1497.28C2493.95 1494.06 2501.25 1492.86 2509.18 1493.67L2506.06 1511.58C2500.56 1511.1 2495.77 1512.14 2491.67 1514.7C2487.61 1517.3 2484.29 1520.91 2481.71 1525.5C2479.17 1530.16 2477.41 1535.33 2476.41 1541.02C2475.26 1547.64 2475.29 1553.78 2476.52 1559.42C2477.79 1565.07 2480.1 1569.78 2483.43 1573.53C2486.82 1577.29 2491.12 1579.63 2496.34 1580.54C2501.1 1581.37 2505.2 1580.71 2508.65 1578.58C2512.1 1576.44 2515.14 1573.36 2517.76 1569.35C2520.38 1565.34 2522.83 1560.93 2525.11 1556.14L2533.22 1539.39C2538.39 1528.75 2544.53 1520.69 2551.64 1515.2C2558.75 1509.71 2567.13 1507.81 2576.78 1509.49C2584.81 1510.89 2591.43 1514.28 2596.64 1519.66C2601.89 1525.09 2605.53 1531.78 2607.56 1539.73C2609.63 1547.73 2609.86 1556.3 2608.27 1565.45C2606.66 1574.68 2603.57 1582.6 2599.01 1589.21C2594.49 1595.82 2589.02 1600.73 2582.6 1603.94C2576.17 1607.19 2569.32 1608.3 2562.04 1607.28L2564.97 1590.48ZM2447.4 1618.53L2587.12 1658.97L2562.72 1743.29L2547.71 1738.95L2567.21 1671.54L2520 1657.88L2501.76 1720.92L2486.75 1716.57L2505 1653.54L2457.51 1639.79L2437.69 1708.29L2422.68 1703.95L2447.4 1618.53ZM2545.24 1790.89L2536.8 1810.15L2406.37 1806.96L2405.69 1808.52L2496.43 1902.26L2487.99 1921.51L2354.77 1863.13L2361.38 1848.04L2462.6 1892.4L2463.17 1891.1L2380.2 1805.1L2386.58 1790.53L2506.05 1793.26L2506.62 1791.96L2405.4 1747.6L2412.01 1732.51L2545.24 1790.89ZM2278.58 1988.18L2304.41 1951.47L2423.38 2035.14L2396.42 2073.49C2388.3 2085.03 2378.97 2093.23 2368.43 2098.09C2357.93 2102.98 2346.71 2104.49 2334.76 2102.63C2322.85 2100.79 2310.74 2095.55 2298.43 2086.89C2286.03 2078.17 2276.92 2068.46 2271.07 2057.75C2265.27 2047.07 2262.94 2035.82 2264.07 2024C2265.25 2012.21 2270.08 2000.27 2278.58 1988.18ZM2307.05 1974.86L2292.02 1996.24C2285.1 2006.08 2281.26 2015.57 2280.51 2024.7C2279.76 2033.84 2281.77 2042.46 2286.54 2050.57C2291.32 2058.68 2298.55 2066.13 2308.23 2072.94C2317.84 2079.7 2327.21 2083.94 2336.35 2085.68C2345.53 2087.45 2354.17 2086.52 2362.27 2082.9C2370.41 2079.31 2377.75 2072.86 2384.29 2063.57L2400.47 2040.56L2307.05 1974.86ZM2220.18 2067.71L2328.76 2164.5L2270.35 2230.03L2258.68 2219.63L2305.37 2167.25L2268.69 2134.55L2225.02 2183.54L2213.36 2173.14L2257.02 2124.15L2220.12 2091.26L2172.67 2144.49L2161.01 2134.09L2220.18 2067.71ZM2139.39 2155.63L2237.43 2263.07L2173 2321.86L2162.47 2310.32L2213.88 2263.4L2180.76 2227.1L2134.17 2269.61L2123.64 2258.06L2170.23 2215.56L2126.38 2167.5L2139.39 2155.63ZM2127.82 2359.01L2038.01 2244.59L2051.87 2233.71L2141.67 2348.13L2127.82 2359.01ZM1991.86 2449.92L1912.61 2327.95L1926.9 2318.67L2055.59 2371.25L2056.78 2370.47L1994.55 2274.71L2009.32 2265.11L2088.57 2387.08L2074.28 2396.37L1945.2 2343.7L1944.01 2344.48L2006.39 2440.48L1991.86 2449.92ZM1934.81 2482.54L1866.78 2353.98L1882.34 2345.74L1950.38 2474.3L1934.81 2482.54ZM1765.97 2506.75L1782.19 2499.9C1785.12 2504.17 1788.53 2507.56 1792.43 2510.08C1796.27 2512.62 1800.4 2514.37 1804.82 2515.33C1809.21 2516.36 1813.71 2516.61 1818.33 2516.1C1822.94 2515.59 1827.48 2514.4 1831.93 2512.52C1840.04 2509.1 1846.52 2503.94 1851.38 2497.06C1856.19 2490.2 1858.85 2481.96 1859.37 2472.34C1859.84 2462.73 1857.62 2452.13 1852.72 2440.53C1847.82 2428.92 1841.77 2419.94 1834.56 2413.58C1827.31 2407.24 1819.55 2403.39 1811.27 2402.06C1802.95 2400.74 1794.74 2401.79 1786.63 2405.21C1782.18 2407.09 1778.16 2409.51 1774.57 2412.46C1770.99 2415.41 1768.02 2418.8 1765.68 2422.61C1763.31 2426.49 1761.69 2430.7 1760.83 2435.23C1759.94 2439.81 1759.99 2444.62 1760.98 2449.65L1744.75 2456.5C1743.08 2449.14 1742.72 2442.07 1743.67 2435.3C1744.61 2428.53 1746.68 2422.23 1749.88 2416.41C1753.09 2410.63 1757.27 2405.5 1762.42 2401.02C1767.52 2396.55 1773.46 2392.89 1780.22 2390.03C1791.65 2385.21 1802.99 2383.71 1814.24 2385.54C1825.5 2387.36 1835.85 2392.35 1845.3 2400.49C1854.75 2408.63 1862.46 2419.77 1868.43 2433.9C1874.39 2448.03 1877 2461.32 1876.24 2473.77C1875.48 2486.22 1871.83 2497.12 1865.29 2506.46C1858.75 2515.8 1849.76 2522.88 1838.33 2527.7C1831.57 2530.56 1824.81 2532.25 1818.05 2532.8C1811.25 2533.36 1804.64 2532.75 1798.24 2530.98C1791.86 2529.26 1785.91 2526.37 1780.4 2522.32C1774.91 2518.32 1770.1 2513.13 1765.97 2506.75ZM1787.57 2388.47L1774.75 2393.88L1773.59 2388.21C1769.96 2389.12 1766.25 2389.02 1762.44 2387.9C1758.61 2386.75 1755.61 2383.62 1753.46 2378.51C1751.08 2372.88 1751.48 2367.32 1754.66 2361.82C1757.77 2356.29 1763.85 2351.62 1772.87 2347.8L1777.71 2357.79C1773.65 2359.5 1770.57 2361.58 1768.46 2364.01C1766.29 2366.41 1765.84 2369.12 1767.11 2372.13C1768.38 2375.14 1770.36 2376.72 1773.04 2376.87C1775.73 2377.03 1779.64 2376.25 1784.78 2374.54L1787.57 2388.47ZM1694.5 2425.29L1712.26 2420.21L1700.89 2574.75L1683.41 2579.74L1592.07 2454.57L1609.83 2449.5L1685.28 2555.28L1686.37 2554.96L1694.5 2425.29ZM1703.57 2481.79L1632 2502.25L1627.71 2487.23L1699.27 2466.77L1703.57 2481.79ZM1717.16 2585.16L1729.89 2582.12C1731.88 2589.08 1731.52 2595.34 1728.83 2600.89C1726.09 2606.49 1721.79 2610.14 1715.92 2611.81C1713.33 2612.56 1710.9 2612.76 1708.63 2612.42C1706.38 2612.13 1704.18 2611.67 1702.04 2611.06C1699.89 2610.44 1697.73 2609.95 1695.56 2609.58C1693.36 2609.28 1691.02 2609.48 1688.57 2610.18C1685.97 2610.92 1684.07 2612.55 1682.87 2615.06C1681.63 2617.63 1681.43 2620.35 1682.25 2623.21L1669.64 2625.64C1667.61 2618.53 1668 2612.32 1670.81 2606.98C1673.57 2601.66 1677.89 2598.16 1683.76 2596.48C1686.9 2595.59 1689.62 2595.28 1691.92 2595.56C1694.23 2595.88 1696.34 2596.38 1698.26 2597.07C1700.18 2597.75 1702.15 2598.27 1704.17 2598.63C1706.21 2599.03 1708.52 2598.86 1711.12 2598.12C1713.71 2597.38 1715.58 2595.73 1716.73 2593.19C1717.84 2590.71 1717.98 2588.03 1717.16 2585.16ZM1466.42 2547.57C1464.06 2532.41 1464.75 2518.88 1468.5 2506.99C1472.25 2495.09 1478.43 2485.41 1487.03 2477.93C1495.64 2470.45 1506.08 2465.75 1518.33 2463.84C1530.59 2461.93 1541.96 2463.22 1552.44 2467.72C1562.91 2472.22 1571.75 2479.56 1578.95 2489.74C1586.15 2499.93 1590.93 2512.6 1593.29 2527.76C1595.66 2542.92 1594.97 2556.44 1591.22 2568.34C1587.47 2580.23 1581.29 2589.92 1572.68 2597.4C1564.07 2604.87 1553.64 2609.57 1541.38 2611.48C1529.13 2613.4 1517.76 2612.11 1507.28 2607.61C1496.8 2603.11 1487.96 2595.77 1480.77 2585.58C1473.57 2575.39 1468.79 2562.72 1466.42 2547.57ZM1483.26 2544.94C1485.21 2557.38 1488.93 2567.56 1494.43 2575.47C1499.88 2583.39 1506.48 2588.99 1514.23 2592.29C1521.94 2595.59 1530.14 2596.56 1538.84 2595.2C1547.54 2593.85 1555.08 2590.42 1561.46 2584.92C1567.79 2579.42 1572.37 2572.07 1575.2 2562.86C1577.98 2553.66 1578.4 2542.83 1576.45 2530.39C1574.51 2517.94 1570.81 2507.76 1565.36 2499.84C1559.86 2491.93 1553.26 2486.33 1545.55 2483.03C1537.8 2479.73 1529.58 2478.76 1520.87 2480.12C1512.17 2481.48 1504.66 2484.9 1498.33 2490.4C1491.95 2495.9 1487.37 2503.25 1484.59 2512.45C1481.76 2521.67 1481.32 2532.49 1483.26 2544.94ZM1359.23 2481.01L1355.58 2626.42L1306.44 2625.19C1295.08 2624.9 1285.81 2622.73 1278.62 2618.66C1271.42 2614.65 1266.16 2609.23 1262.83 2602.42C1259.49 2595.61 1257.93 2587.92 1258.15 2579.36C1258.36 2570.79 1260.31 2563.24 1263.98 2556.7C1267.65 2550.16 1273.15 2545.09 1280.49 2541.48C1287.82 2537.93 1297.12 2536.29 1308.39 2536.57L1348.15 2537.57L1347.75 2553.48L1308.56 2552.49C1300.79 2552.3 1294.52 2553.27 1289.73 2555.43C1284.89 2557.58 1281.35 2560.71 1279.12 2564.82C1276.83 2568.98 1275.62 2573.97 1275.47 2579.79C1275.33 2585.61 1276.29 2590.73 1278.36 2595.14C1280.42 2599.55 1283.82 2603 1288.54 2605.48C1293.26 2608.02 1299.55 2609.38 1307.41 2609.58L1338.36 2610.36L1341.62 2480.57L1359.23 2481.01ZM1289.15 2544.61L1255 2478.39L1275.45 2478.91L1309.03 2545.11L1289.15 2544.61ZM1225.66 2475.03L1243.95 2477.55L1171.23 2614.38L1153.22 2611.9L1120.11 2460.53L1138.41 2463.04L1164.8 2590.26L1165.92 2590.42L1225.66 2475.03ZM1211.17 2530.39L1137.43 2520.26L1139.55 2504.78L1213.29 2514.91L1211.17 2530.39ZM966.276 2523.2L983.309 2527.68C983.026 2532.85 983.656 2537.62 985.198 2541.99C986.694 2546.35 988.896 2550.26 991.804 2553.72C994.655 2557.21 998.064 2560.16 1002.03 2562.58C1006 2564.99 1010.32 2566.82 1014.99 2568.05C1023.5 2570.29 1031.78 2570.17 1039.83 2567.68C1047.83 2565.19 1054.97 2560.29 1061.26 2552.98C1067.49 2545.66 1072.21 2535.91 1075.42 2523.73C1078.63 2511.55 1079.32 2500.74 1077.49 2491.3C1075.63 2481.85 1071.82 2474.07 1066.09 2467.96C1060.31 2461.83 1053.16 2457.65 1044.64 2455.41C1039.97 2454.18 1035.32 2453.64 1030.67 2453.79C1026.03 2453.93 1021.62 2454.8 1017.43 2456.39C1013.18 2458.02 1009.33 2460.36 1005.89 2463.42C1002.38 2466.51 999.482 2470.35 997.197 2474.94L980.164 2470.45C983.339 2463.6 987.368 2457.78 992.251 2453C997.134 2448.21 1002.62 2444.49 1008.7 2441.83C1014.78 2439.22 1021.22 2437.71 1028.04 2437.3C1034.81 2436.88 1041.74 2437.6 1048.84 2439.47C1060.83 2442.63 1070.73 2448.37 1078.53 2456.69C1086.33 2465.01 1091.48 2475.28 1093.99 2487.5C1096.51 2499.71 1095.81 2513.24 1091.9 2528.07C1088 2542.91 1081.94 2555.02 1073.74 2564.42C1065.54 2573.82 1055.99 2580.21 1045.11 2583.62C1034.23 2587.02 1022.79 2587.14 1010.79 2583.98C1003.69 2582.11 997.302 2579.33 991.617 2575.63C985.887 2571.92 981.028 2567.4 977.04 2562.09C973.04 2556.83 970.093 2550.91 968.2 2544.34C966.294 2537.82 965.653 2530.77 966.276 2523.2ZM898.989 2548.72L948.193 2411.84L964.768 2417.8L915.564 2554.68L898.989 2548.72ZM910.086 2396.07L926.886 2403.73L817.924 2513.9L801.383 2506.35L813.161 2351.85L829.961 2359.52L818.687 2488.96L819.721 2489.43L910.086 2396.07ZM880.301 2444.93L812.582 2414.04L819.068 2399.82L886.786 2430.72L880.301 2444.93ZM793.513 2340.78L719.084 2465.75L703.951 2456.74L770.385 2345.19L712.294 2310.59L720.289 2297.17L793.513 2340.78ZM587.776 2249.64C592.181 2253.3 595.31 2257.72 597.164 2262.9C598.988 2268.11 599.478 2273.44 598.634 2278.9C597.754 2284.33 595.482 2289.24 591.819 2293.65C588.125 2298.09 583.706 2301.22 578.56 2303.04C573.348 2304.86 568.029 2305.33 562.603 2304.45C557.146 2303.61 552.215 2301.35 547.81 2297.69C543.369 2294 540.255 2289.56 538.467 2284.38C536.613 2279.2 536.126 2273.9 537.006 2268.47C537.82 2263.05 540.073 2258.12 543.767 2253.68C547.431 2249.28 551.868 2246.16 557.08 2244.34C562.256 2242.49 567.572 2241.98 573.029 2242.82C578.419 2243.67 583.335 2245.95 587.776 2249.64Z" fill="#EFE0E0"/>
</svg>
